<?xml version="1.0" encoding="utf-8" standalone="no"?>
<!DOCTYPE svg PUBLIC "-//W3C//DTD SVG 1.1//EN"
  "http://www.w3.org/Graphics/SVG/1.1/DTD/svg11.dtd">
<!-- Created with matplotlib (https://matplotlib.org/) -->
<svg height="345.6pt" version="1.1" viewBox="0 0 460.8 345.6" width="460.8pt" xmlns="http://www.w3.org/2000/svg" xmlns:xlink="http://www.w3.org/1999/xlink">
 <defs>
  <style type="text/css">
*{stroke-linecap:butt;stroke-linejoin:round;}
  </style>
 </defs>
 <g id="figure_1">
  <g id="patch_1">
   <path d="M 0 345.6 
L 460.8 345.6 
L 460.8 0 
L 0 0 
z
" style="fill:#ffffff;"/>
  </g>
  <g id="axes_1">
   <g id="patch_2">
    <path d="M 57.6 307.584 
L 414.72 307.584 
L 414.72 41.472 
L 57.6 41.472 
z
" style="fill:#ffffff;"/>
   </g>
   <g id="PathCollection_1">
    <path clip-path="url(#pe182986f32)" d="M 57.940455 307.555763 
z
" style="fill:#440154;"/>
   </g>
   <g id="PathCollection_2">
    <path clip-path="url(#pe182986f32)" d="M 57.940455 307.584 
L 57.940455 307.582118 
L 57.940455 307.580235 
L 57.940455 307.578353 
L 57.940455 307.57647 
L 57.940455 307.574588 
L 57.940455 307.572705 
L 57.940455 307.570823 
L 57.940455 307.56894 
L 57.940455 307.567058 
L 57.940455 307.565175 
L 57.940455 307.563293 
L 57.940455 307.56141 
L 57.940455 307.559528 
L 57.940455 307.557645 
L 57.940455 307.555763 
L 57.925361 307.555763 
L 57.925362 307.557645 
L 57.925364 307.559528 
L 57.925366 307.56141 
L 57.925367 307.563293 
L 57.925369 307.565175 
L 57.92537 307.567058 
L 57.925371 307.56894 
L 57.925372 307.570823 
L 57.925373 307.572705 
L 57.925374 307.574588 
L 57.925374 307.57647 
L 57.925374 307.578353 
L 57.925373 307.580235 
L 57.925372 307.582118 
L 57.925371 307.584 
z
" style="fill:#481668;"/>
   </g>
   <g id="PathCollection_3">
    <path clip-path="url(#pe182986f32)" d="M 57.917758 307.584 
L 57.925371 307.584 
L 57.925372 307.582118 
L 57.925373 307.580235 
L 57.925374 307.578353 
L 57.925374 307.57647 
L 57.925374 307.574588 
L 57.925373 307.572705 
L 57.925372 307.570823 
L 57.925371 307.56894 
L 57.92537 307.567058 
L 57.925369 307.565175 
L 57.925367 307.563293 
L 57.925366 307.56141 
L 57.925364 307.559528 
L 57.925362 307.557645 
L 57.925361 307.555763 
L 57.917758 307.555763 
L 57.910638 307.555763 
L 57.91064 307.557645 
L 57.910642 307.559528 
L 57.910643 307.56141 
L 57.910645 307.563293 
L 57.910647 307.565175 
L 57.910648 307.567058 
L 57.910649 307.56894 
L 57.910651 307.570823 
L 57.910651 307.572705 
L 57.910652 307.574588 
L 57.910652 307.57647 
L 57.910652 307.578353 
L 57.910652 307.580235 
L 57.910651 307.582118 
L 57.910649 307.584 
z
" style="fill:#443983;"/>
   </g>
   <g id="PathCollection_4">
    <path clip-path="url(#pe182986f32)" d="M 57.910651 307.582118 
L 57.910652 307.580235 
L 57.910652 307.578353 
L 57.910652 307.57647 
L 57.910652 307.574588 
L 57.910651 307.572705 
L 57.910651 307.570823 
L 57.910649 307.56894 
L 57.910648 307.567058 
L 57.910647 307.565175 
L 57.910645 307.563293 
L 57.910643 307.56141 
L 57.910642 307.559528 
L 57.91064 307.557645 
L 57.910638 307.555763 
L 57.896292 307.555763 
L 57.896294 307.557645 
L 57.896296 307.559528 
L 57.896298 307.56141 
L 57.8963 307.563293 
L 57.896302 307.565175 
L 57.896303 307.567058 
L 57.896305 307.56894 
L 57.896306 307.570823 
L 57.896307 307.572705 
L 57.896308 307.574588 
L 57.896308 307.57647 
L 57.896308 307.578353 
L 57.896307 307.580235 
L 57.896306 307.582118 
L 57.896304 307.584 
L 57.910649 307.584 
z
" style="fill:#375a8c;"/>
   </g>
   <g id="PathCollection_5">
    <path clip-path="url(#pe182986f32)" d="M 57.895061 307.584 
L 57.896304 307.584 
L 57.896306 307.582118 
L 57.896307 307.580235 
L 57.896308 307.578353 
L 57.896308 307.57647 
L 57.896308 307.574588 
L 57.896307 307.572705 
L 57.896306 307.570823 
L 57.896305 307.56894 
L 57.896303 307.567058 
L 57.896302 307.565175 
L 57.8963 307.563293 
L 57.896298 307.56141 
L 57.896296 307.559528 
L 57.896294 307.557645 
L 57.896292 307.555763 
L 57.895061 307.555763 
L 57.881178 307.555763 
L 57.88118 307.557645 
L 57.881183 307.559528 
L 57.881185 307.56141 
L 57.881187 307.563293 
L 57.881189 307.565175 
L 57.88119 307.567058 
L 57.881192 307.56894 
L 57.881193 307.570823 
L 57.881194 307.572705 
L 57.881195 307.574588 
L 57.881195 307.57647 
L 57.881194 307.578353 
L 57.881193 307.580235 
L 57.881191 307.582118 
L 57.881189 307.584 
z
" style="fill:#2b758e;"/>
   </g>
   <g id="PathCollection_6">
    <path clip-path="url(#pe182986f32)" d="M 57.872364 307.584 
L 57.881189 307.584 
L 57.881191 307.582118 
L 57.881193 307.580235 
L 57.881194 307.578353 
L 57.881195 307.57647 
L 57.881195 307.574588 
L 57.881194 307.572705 
L 57.881193 307.570823 
L 57.881192 307.56894 
L 57.88119 307.567058 
L 57.881189 307.565175 
L 57.881187 307.563293 
L 57.881185 307.56141 
L 57.881183 307.559528 
L 57.88118 307.557645 
L 57.881178 307.555763 
L 57.872364 307.555763 
L 57.864894 307.555763 
L 57.864897 307.557645 
L 57.8649 307.559528 
L 57.864902 307.56141 
L 57.864905 307.563293 
L 57.864907 307.565175 
L 57.864909 307.567058 
L 57.86491 307.56894 
L 57.864911 307.570823 
L 57.864912 307.572705 
L 57.864913 307.574588 
L 57.864912 307.57647 
L 57.864911 307.578353 
L 57.86491 307.580235 
L 57.864907 307.582118 
L 57.864902 307.584 
z
" style="fill:#21918c;"/>
   </g>
   <g id="PathCollection_7">
    <path clip-path="url(#pe182986f32)" d="M 57.849667 307.584 
L 57.864902 307.584 
L 57.864907 307.582118 
L 57.86491 307.580235 
L 57.864911 307.578353 
L 57.864912 307.57647 
L 57.864913 307.574588 
L 57.864912 307.572705 
L 57.864911 307.570823 
L 57.86491 307.56894 
L 57.864909 307.567058 
L 57.864907 307.565175 
L 57.864905 307.563293 
L 57.864902 307.56141 
L 57.8649 307.559528 
L 57.864897 307.557645 
L 57.864894 307.555763 
L 57.849667 307.555763 
L 57.846373 307.555763 
L 57.846376 307.557645 
L 57.846379 307.559528 
L 57.846382 307.56141 
L 57.846385 307.563293 
L 57.846387 307.565175 
L 57.846389 307.567058 
L 57.846391 307.56894 
L 57.846392 307.570823 
L 57.846392 307.572705 
L 57.846392 307.574588 
L 57.84639 307.57647 
L 57.846388 307.578353 
L 57.846384 307.580235 
L 57.846379 307.582118 
L 57.846372 307.584 
z
" style="fill:#25ab82;"/>
   </g>
   <g id="PathCollection_8">
    <path clip-path="url(#pe182986f32)" d="M 57.82697 307.584 
L 57.846372 307.584 
L 57.846379 307.582118 
L 57.846384 307.580235 
L 57.846388 307.578353 
L 57.84639 307.57647 
L 57.846392 307.574588 
L 57.846392 307.572705 
L 57.846392 307.570823 
L 57.846391 307.56894 
L 57.846389 307.567058 
L 57.846387 307.565175 
L 57.846385 307.563293 
L 57.846382 307.56141 
L 57.846379 307.559528 
L 57.846376 307.557645 
L 57.846373 307.555763 
L 57.82697 307.555763 
L 57.822343 307.555763 
L 57.822346 307.557645 
L 57.82235 307.559528 
L 57.822352 307.56141 
L 57.822354 307.563293 
L 57.822356 307.565175 
L 57.822357 307.567058 
L 57.822358 307.56894 
L 57.822358 307.570823 
L 57.822356 307.572705 
L 57.822354 307.574588 
L 57.82235 307.57647 
L 57.822344 307.578353 
L 57.822336 307.580235 
L 57.822325 307.582118 
L 57.822312 307.584 
z
" style="fill:#4ec36b;"/>
   </g>
   <g id="PathCollection_9">
    <path clip-path="url(#pe182986f32)" d="M 57.804273 307.584 
L 57.822312 307.584 
L 57.822325 307.582118 
L 57.822336 307.580235 
L 57.822344 307.578353 
L 57.82235 307.57647 
L 57.822354 307.574588 
L 57.822356 307.572705 
L 57.822358 307.570823 
L 57.822358 307.56894 
L 57.822357 307.567058 
L 57.822356 307.565175 
L 57.822354 307.563293 
L 57.822352 307.56141 
L 57.82235 307.559528 
L 57.822346 307.557645 
L 57.822343 307.555763 
L 57.804273 307.555763 
L 57.785288 307.555763 
L 57.78529 307.557645 
L 57.785291 307.559528 
L 57.785291 307.56141 
L 57.785291 307.563293 
L 57.78529 307.565175 
L 57.785288 307.567058 
L 57.785284 307.56894 
L 57.785279 307.570823 
L 57.785272 307.572705 
L 57.785263 307.574588 
L 57.785251 307.57647 
L 57.785235 307.578353 
L 57.785215 307.580235 
L 57.785191 307.582118 
L 57.785159 307.584 
z
" style="fill:#90d743;"/>
   </g>
   <g id="PathCollection_10">
    <path clip-path="url(#pe182986f32)" d="M 57.622697 307.584 
L 57.645394 307.584 
L 57.668091 307.584 
L 57.690788 307.584 
L 57.713485 307.584 
L 57.736182 307.584 
L 57.758879 307.584 
L 57.781576 307.584 
L 57.785159 307.584 
L 57.785191 307.582118 
L 57.785215 307.580235 
L 57.785235 307.578353 
L 57.785251 307.57647 
L 57.785263 307.574588 
L 57.785272 307.572705 
L 57.785279 307.570823 
L 57.785284 307.56894 
L 57.785288 307.567058 
L 57.78529 307.565175 
L 57.785291 307.563293 
L 57.785291 307.56141 
L 57.785291 307.559528 
L 57.78529 307.557645 
L 57.785288 307.555763 
L 57.781576 307.555763 
L 57.758879 307.555763 
L 57.736182 307.555763 
L 57.713485 307.555763 
L 57.690788 307.555763 
L 57.668091 307.555763 
L 57.645394 307.555763 
L 57.622697 307.555763 
L 57.6 307.555763 
L 57.6 307.557645 
L 57.6 307.559528 
L 57.6 307.56141 
L 57.6 307.563293 
L 57.6 307.565175 
L 57.6 307.567058 
L 57.6 307.56894 
L 57.6 307.570823 
L 57.6 307.572705 
L 57.6 307.574588 
L 57.6 307.57647 
L 57.6 307.578353 
L 57.6 307.580235 
L 57.6 307.582118 
L 57.6 307.584 
z
" style="fill:#dae319;"/>
   </g>
   <g id="PathCollection_11"/>
   <g id="matplotlib.axis_1">
    <g id="xtick_1">
     <g id="line2d_1">
      <defs>
       <path d="M 0 0 
L 0 3.5 
" id="me11270257d" style="stroke:#000000;stroke-width:0.8;"/>
      </defs>
      <g>
       <use style="stroke:#000000;stroke-width:0.8;" x="57.6" xlink:href="#me11270257d" y="307.584"/>
      </g>
     </g>
     <g id="text_1">
      <!-- 0 -->
      <defs>
       <path d="M 31.78125 66.40625 
Q 24.171875 66.40625 20.328125 58.90625 
Q 16.5 51.421875 16.5 36.375 
Q 16.5 21.390625 20.328125 13.890625 
Q 24.171875 6.390625 31.78125 6.390625 
Q 39.453125 6.390625 43.28125 13.890625 
Q 47.125 21.390625 47.125 36.375 
Q 47.125 51.421875 43.28125 58.90625 
Q 39.453125 66.40625 31.78125 66.40625 
z
M 31.78125 74.21875 
Q 44.046875 74.21875 50.515625 64.515625 
Q 56.984375 54.828125 56.984375 36.375 
Q 56.984375 17.96875 50.515625 8.265625 
Q 44.046875 -1.421875 31.78125 -1.421875 
Q 19.53125 -1.421875 13.0625 8.265625 
Q 6.59375 17.96875 6.59375 36.375 
Q 6.59375 54.828125 13.0625 64.515625 
Q 19.53125 74.21875 31.78125 74.21875 
z
" id="DejaVuSans-48"/>
      </defs>
      <g transform="translate(54.41875 322.182437)scale(0.1 -0.1)">
       <use xlink:href="#DejaVuSans-48"/>
      </g>
     </g>
    </g>
    <g id="xtick_2">
     <g id="line2d_2">
      <g>
       <use style="stroke:#000000;stroke-width:0.8;" x="125.690948" xlink:href="#me11270257d" y="307.584"/>
      </g>
     </g>
     <g id="text_2">
      <!-- 200 -->
      <defs>
       <path d="M 19.1875 8.296875 
L 53.609375 8.296875 
L 53.609375 0 
L 7.328125 0 
L 7.328125 8.296875 
Q 12.9375 14.109375 22.625 23.890625 
Q 32.328125 33.6875 34.8125 36.53125 
Q 39.546875 41.84375 41.421875 45.53125 
Q 43.3125 49.21875 43.3125 52.78125 
Q 43.3125 58.59375 39.234375 62.25 
Q 35.15625 65.921875 28.609375 65.921875 
Q 23.96875 65.921875 18.8125 64.3125 
Q 13.671875 62.703125 7.8125 59.421875 
L 7.8125 69.390625 
Q 13.765625 71.78125 18.9375 73 
Q 24.125 74.21875 28.421875 74.21875 
Q 39.75 74.21875 46.484375 68.546875 
Q 53.21875 62.890625 53.21875 53.421875 
Q 53.21875 48.921875 51.53125 44.890625 
Q 49.859375 40.875 45.40625 35.40625 
Q 44.1875 33.984375 37.640625 27.21875 
Q 31.109375 20.453125 19.1875 8.296875 
z
" id="DejaVuSans-50"/>
      </defs>
      <g transform="translate(116.147198 322.182437)scale(0.1 -0.1)">
       <use xlink:href="#DejaVuSans-50"/>
       <use x="63.623047" xlink:href="#DejaVuSans-48"/>
       <use x="127.246094" xlink:href="#DejaVuSans-48"/>
      </g>
     </g>
    </g>
    <g id="xtick_3">
     <g id="line2d_3">
      <g>
       <use style="stroke:#000000;stroke-width:0.8;" x="193.781896" xlink:href="#me11270257d" y="307.584"/>
      </g>
     </g>
     <g id="text_3">
      <!-- 400 -->
      <defs>
       <path d="M 37.796875 64.3125 
L 12.890625 25.390625 
L 37.796875 25.390625 
z
M 35.203125 72.90625 
L 47.609375 72.90625 
L 47.609375 25.390625 
L 58.015625 25.390625 
L 58.015625 17.1875 
L 47.609375 17.1875 
L 47.609375 0 
L 37.796875 0 
L 37.796875 17.1875 
L 4.890625 17.1875 
L 4.890625 26.703125 
z
" id="DejaVuSans-52"/>
      </defs>
      <g transform="translate(184.238146 322.182437)scale(0.1 -0.1)">
       <use xlink:href="#DejaVuSans-52"/>
       <use x="63.623047" xlink:href="#DejaVuSans-48"/>
       <use x="127.246094" xlink:href="#DejaVuSans-48"/>
      </g>
     </g>
    </g>
    <g id="xtick_4">
     <g id="line2d_4">
      <g>
       <use style="stroke:#000000;stroke-width:0.8;" x="261.872844" xlink:href="#me11270257d" y="307.584"/>
      </g>
     </g>
     <g id="text_4">
      <!-- 600 -->
      <defs>
       <path d="M 33.015625 40.375 
Q 26.375 40.375 22.484375 35.828125 
Q 18.609375 31.296875 18.609375 23.390625 
Q 18.609375 15.53125 22.484375 10.953125 
Q 26.375 6.390625 33.015625 6.390625 
Q 39.65625 6.390625 43.53125 10.953125 
Q 47.40625 15.53125 47.40625 23.390625 
Q 47.40625 31.296875 43.53125 35.828125 
Q 39.65625 40.375 33.015625 40.375 
z
M 52.59375 71.296875 
L 52.59375 62.3125 
Q 48.875 64.0625 45.09375 64.984375 
Q 41.3125 65.921875 37.59375 65.921875 
Q 27.828125 65.921875 22.671875 59.328125 
Q 17.53125 52.734375 16.796875 39.40625 
Q 19.671875 43.65625 24.015625 45.921875 
Q 28.375 48.1875 33.59375 48.1875 
Q 44.578125 48.1875 50.953125 41.515625 
Q 57.328125 34.859375 57.328125 23.390625 
Q 57.328125 12.15625 50.6875 5.359375 
Q 44.046875 -1.421875 33.015625 -1.421875 
Q 20.359375 -1.421875 13.671875 8.265625 
Q 6.984375 17.96875 6.984375 36.375 
Q 6.984375 53.65625 15.1875 63.9375 
Q 23.390625 74.21875 37.203125 74.21875 
Q 40.921875 74.21875 44.703125 73.484375 
Q 48.484375 72.75 52.59375 71.296875 
z
" id="DejaVuSans-54"/>
      </defs>
      <g transform="translate(252.329094 322.182437)scale(0.1 -0.1)">
       <use xlink:href="#DejaVuSans-54"/>
       <use x="63.623047" xlink:href="#DejaVuSans-48"/>
       <use x="127.246094" xlink:href="#DejaVuSans-48"/>
      </g>
     </g>
    </g>
    <g id="xtick_5">
     <g id="line2d_5">
      <g>
       <use style="stroke:#000000;stroke-width:0.8;" x="329.963792" xlink:href="#me11270257d" y="307.584"/>
      </g>
     </g>
     <g id="text_5">
      <!-- 800 -->
      <defs>
       <path d="M 31.78125 34.625 
Q 24.75 34.625 20.71875 30.859375 
Q 16.703125 27.09375 16.703125 20.515625 
Q 16.703125 13.921875 20.71875 10.15625 
Q 24.75 6.390625 31.78125 6.390625 
Q 38.8125 6.390625 42.859375 10.171875 
Q 46.921875 13.96875 46.921875 20.515625 
Q 46.921875 27.09375 42.890625 30.859375 
Q 38.875 34.625 31.78125 34.625 
z
M 21.921875 38.8125 
Q 15.578125 40.375 12.03125 44.71875 
Q 8.5 49.078125 8.5 55.328125 
Q 8.5 64.0625 14.71875 69.140625 
Q 20.953125 74.21875 31.78125 74.21875 
Q 42.671875 74.21875 48.875 69.140625 
Q 55.078125 64.0625 55.078125 55.328125 
Q 55.078125 49.078125 51.53125 44.71875 
Q 48 40.375 41.703125 38.8125 
Q 48.828125 37.15625 52.796875 32.3125 
Q 56.78125 27.484375 56.78125 20.515625 
Q 56.78125 9.90625 50.3125 4.234375 
Q 43.84375 -1.421875 31.78125 -1.421875 
Q 19.734375 -1.421875 13.25 4.234375 
Q 6.78125 9.90625 6.78125 20.515625 
Q 6.78125 27.484375 10.78125 32.3125 
Q 14.796875 37.15625 21.921875 38.8125 
z
M 18.3125 54.390625 
Q 18.3125 48.734375 21.84375 45.5625 
Q 25.390625 42.390625 31.78125 42.390625 
Q 38.140625 42.390625 41.71875 45.5625 
Q 45.3125 48.734375 45.3125 54.390625 
Q 45.3125 60.0625 41.71875 63.234375 
Q 38.140625 66.40625 31.78125 66.40625 
Q 25.390625 66.40625 21.84375 63.234375 
Q 18.3125 60.0625 18.3125 54.390625 
z
" id="DejaVuSans-56"/>
      </defs>
      <g transform="translate(320.420042 322.182437)scale(0.1 -0.1)">
       <use xlink:href="#DejaVuSans-56"/>
       <use x="63.623047" xlink:href="#DejaVuSans-48"/>
       <use x="127.246094" xlink:href="#DejaVuSans-48"/>
      </g>
     </g>
    </g>
    <g id="xtick_6">
     <g id="line2d_6">
      <g>
       <use style="stroke:#000000;stroke-width:0.8;" x="398.05474" xlink:href="#me11270257d" y="307.584"/>
      </g>
     </g>
     <g id="text_6">
      <!-- 1000 -->
      <defs>
       <path d="M 12.40625 8.296875 
L 28.515625 8.296875 
L 28.515625 63.921875 
L 10.984375 60.40625 
L 10.984375 69.390625 
L 28.421875 72.90625 
L 38.28125 72.90625 
L 38.28125 8.296875 
L 54.390625 8.296875 
L 54.390625 0 
L 12.40625 0 
z
" id="DejaVuSans-49"/>
      </defs>
      <g transform="translate(385.32974 322.182437)scale(0.1 -0.1)">
       <use xlink:href="#DejaVuSans-49"/>
       <use x="63.623047" xlink:href="#DejaVuSans-48"/>
       <use x="127.246094" xlink:href="#DejaVuSans-48"/>
       <use x="190.869141" xlink:href="#DejaVuSans-48"/>
      </g>
     </g>
    </g>
   </g>
   <g id="matplotlib.axis_2">
    <g id="ytick_1">
     <g id="line2d_7">
      <defs>
       <path d="M 0 0 
L -3.5 0 
" id="m65ec627b37" style="stroke:#000000;stroke-width:0.8;"/>
      </defs>
      <g>
       <use style="stroke:#000000;stroke-width:0.8;" x="57.6" xlink:href="#m65ec627b37" y="307.584"/>
      </g>
     </g>
     <g id="text_7">
      <!-- 0 -->
      <g transform="translate(44.2375 311.383219)scale(0.1 -0.1)">
       <use xlink:href="#DejaVuSans-48"/>
      </g>
     </g>
    </g>
    <g id="ytick_2">
     <g id="line2d_8">
      <g>
       <use style="stroke:#000000;stroke-width:0.8;" x="57.6" xlink:href="#m65ec627b37" y="251.109049"/>
      </g>
     </g>
     <g id="text_8">
      <!-- 2000 -->
      <g transform="translate(25.15 254.908268)scale(0.1 -0.1)">
       <use xlink:href="#DejaVuSans-50"/>
       <use x="63.623047" xlink:href="#DejaVuSans-48"/>
       <use x="127.246094" xlink:href="#DejaVuSans-48"/>
       <use x="190.869141" xlink:href="#DejaVuSans-48"/>
      </g>
     </g>
    </g>
    <g id="ytick_3">
     <g id="line2d_9">
      <g>
       <use style="stroke:#000000;stroke-width:0.8;" x="57.6" xlink:href="#m65ec627b37" y="194.634099"/>
      </g>
     </g>
     <g id="text_9">
      <!-- 4000 -->
      <g transform="translate(25.15 198.433317)scale(0.1 -0.1)">
       <use xlink:href="#DejaVuSans-52"/>
       <use x="63.623047" xlink:href="#DejaVuSans-48"/>
       <use x="127.246094" xlink:href="#DejaVuSans-48"/>
       <use x="190.869141" xlink:href="#DejaVuSans-48"/>
      </g>
     </g>
    </g>
    <g id="ytick_4">
     <g id="line2d_10">
      <g>
       <use style="stroke:#000000;stroke-width:0.8;" x="57.6" xlink:href="#m65ec627b37" y="138.159148"/>
      </g>
     </g>
     <g id="text_10">
      <!-- 6000 -->
      <g transform="translate(25.15 141.958367)scale(0.1 -0.1)">
       <use xlink:href="#DejaVuSans-54"/>
       <use x="63.623047" xlink:href="#DejaVuSans-48"/>
       <use x="127.246094" xlink:href="#DejaVuSans-48"/>
       <use x="190.869141" xlink:href="#DejaVuSans-48"/>
      </g>
     </g>
    </g>
    <g id="ytick_5">
     <g id="line2d_11">
      <g>
       <use style="stroke:#000000;stroke-width:0.8;" x="57.6" xlink:href="#m65ec627b37" y="81.684197"/>
      </g>
     </g>
     <g id="text_11">
      <!-- 8000 -->
      <g transform="translate(25.15 85.483416)scale(0.1 -0.1)">
       <use xlink:href="#DejaVuSans-56"/>
       <use x="63.623047" xlink:href="#DejaVuSans-48"/>
       <use x="127.246094" xlink:href="#DejaVuSans-48"/>
       <use x="190.869141" xlink:href="#DejaVuSans-48"/>
      </g>
     </g>
    </g>
   </g>
   <g id="line2d_12">
    <path clip-path="url(#pe182986f32)" d="M 57.6 54.144 
L 57.940455 208.679354 
L 58.280909 212.519458 
L 58.961819 226.004927 
L 59.983183 240.718203 
L 60.323638 223.27888 
L 60.664093 226.643366 
L 61.685457 255.235995 
L 62.025912 257.161203 
L 62.366366 257.158804 
L 62.706821 255.629651 
L 63.047276 255.599594 
L 63.728185 260.840307 
L 64.06864 264.13647 
L 64.74955 268.304176 
L 65.430459 270.968839 
L 66.451823 273.557256 
L 67.132733 274.773777 
L 67.813642 275.662427 
L 68.154097 276.09542 
L 68.494552 276.305305 
L 68.835006 276.699923 
L 69.175461 276.846222 
L 69.515916 277.297122 
L 69.856371 277.472521 
L 70.196825 278.032486 
L 70.53728 278.291156 
L 70.877735 278.923369 
L 71.21819 279.25071 
L 71.558644 279.873633 
L 71.899099 280.222631 
L 72.239554 280.778432 
L 73.260918 281.884335 
L 73.941828 282.544103 
L 74.963192 283.39005 
L 77.346375 284.736846 
L 78.708194 285.318137 
L 80.410468 285.930127 
L 85.517289 287.262549 
L 88.581381 287.865613 
L 93.347748 288.546065 
L 99.135478 289.0976 
L 106.965937 289.603467 
L 117.860489 290.068613 
L 132.840498 290.470718 
L 154.970056 290.823645 
L 189.355985 291.127965 
L 247.23329 291.393012 
L 353.455169 291.628801 
L 397.714286 291.69016 
L 397.714286 291.69016 
" style="fill:none;stroke:#1f77b4;stroke-linecap:square;stroke-width:1.5;"/>
   </g>
   <g id="patch_3">
    <path d="M 57.6 307.584 
L 57.6 41.472 
" style="fill:none;stroke:#000000;stroke-linecap:square;stroke-linejoin:miter;stroke-width:0.8;"/>
   </g>
   <g id="patch_4">
    <path d="M 414.72 307.584 
L 414.72 41.472 
" style="fill:none;stroke:#000000;stroke-linecap:square;stroke-linejoin:miter;stroke-width:0.8;"/>
   </g>
   <g id="patch_5">
    <path d="M 57.6 307.584 
L 414.72 307.584 
" style="fill:none;stroke:#000000;stroke-linecap:square;stroke-linejoin:miter;stroke-width:0.8;"/>
   </g>
   <g id="patch_6">
    <path d="M 57.6 41.472 
L 414.72 41.472 
" style="fill:none;stroke:#000000;stroke-linecap:square;stroke-linejoin:miter;stroke-width:0.8;"/>
   </g>
  </g>
 </g>
 <defs>
  <clipPath id="pe182986f32">
   <rect height="266.112" width="357.12" x="57.6" y="41.472"/>
  </clipPath>
 </defs>
</svg>
