<?xml version="1.0" encoding="utf-8" standalone="no"?>
<!DOCTYPE svg PUBLIC "-//W3C//DTD SVG 1.1//EN"
  "http://www.w3.org/Graphics/SVG/1.1/DTD/svg11.dtd">
<!-- Created with matplotlib (https://matplotlib.org/) -->
<svg height="345.6pt" version="1.1" viewBox="0 0 460.8 345.6" width="460.8pt" xmlns="http://www.w3.org/2000/svg" xmlns:xlink="http://www.w3.org/1999/xlink">
 <defs>
  <style type="text/css">
*{stroke-linecap:butt;stroke-linejoin:round;}
  </style>
 </defs>
 <g id="figure_1">
  <g id="patch_1">
   <path d="M 0 345.6 
L 460.8 345.6 
L 460.8 0 
L 0 0 
z
" style="fill:#ffffff;"/>
  </g>
  <g id="axes_1">
   <g id="patch_2">
    <path d="M 57.6 307.584 
L 414.72 307.584 
L 414.72 41.472 
L 57.6 41.472 
z
" style="fill:#ffffff;"/>
   </g>
   <g id="PathCollection_1">
    <path clip-path="url(#p97f975e996)" d="M 57.634015 307.584 
z
" style="fill:#440154;"/>
   </g>
   <g id="PathCollection_2">
    <path clip-path="url(#p97f975e996)" d="M 57.634015 307.584 
L 57.634015 307.58263 
L 57.634015 307.581261 
L 57.634015 307.579891 
L 57.634015 307.578521 
L 57.634015 307.577151 
L 57.634015 307.575782 
L 57.634015 307.574412 
L 57.634015 307.573042 
L 57.634015 307.571672 
L 57.634015 307.570303 
L 57.634015 307.568933 
L 57.634015 307.567563 
L 57.634015 307.566193 
L 57.634015 307.564824 
L 57.634015 307.563454 
L 57.63293 307.563454 
L 57.632923 307.564824 
L 57.632915 307.566193 
L 57.632908 307.567563 
L 57.632901 307.568933 
L 57.632893 307.570303 
L 57.632886 307.571672 
L 57.632878 307.573042 
L 57.632871 307.574412 
L 57.632864 307.575782 
L 57.632856 307.577151 
L 57.632849 307.578521 
L 57.632842 307.579891 
L 57.632834 307.581261 
L 57.632827 307.58263 
L 57.63282 307.584 
L 57.634015 307.584 
z
" style="fill:#481668;"/>
   </g>
   <g id="PathCollection_3">
    <path clip-path="url(#p97f975e996)" d="M 57.631747 307.584 
L 57.63282 307.584 
L 57.632827 307.58263 
L 57.632834 307.581261 
L 57.632842 307.579891 
L 57.632849 307.578521 
L 57.632856 307.577151 
L 57.632864 307.575782 
L 57.632871 307.574412 
L 57.632878 307.573042 
L 57.632886 307.571672 
L 57.632893 307.570303 
L 57.632901 307.568933 
L 57.632908 307.567563 
L 57.632915 307.566193 
L 57.632923 307.564824 
L 57.63293 307.563454 
L 57.631747 307.563454 
L 57.631734 307.563454 
L 57.631726 307.564824 
L 57.631718 307.566193 
L 57.63171 307.567563 
L 57.631702 307.568933 
L 57.631694 307.570303 
L 57.631686 307.571672 
L 57.631678 307.573042 
L 57.63167 307.574412 
L 57.631663 307.575782 
L 57.631655 307.577151 
L 57.631647 307.578521 
L 57.631639 307.579891 
L 57.631631 307.581261 
L 57.631623 307.58263 
L 57.631615 307.584 
z
" style="fill:#443983;"/>
   </g>
   <g id="PathCollection_4">
    <path clip-path="url(#p97f975e996)" d="M 57.631623 307.58263 
L 57.631631 307.581261 
L 57.631639 307.579891 
L 57.631647 307.578521 
L 57.631655 307.577151 
L 57.631663 307.575782 
L 57.63167 307.574412 
L 57.631678 307.573042 
L 57.631686 307.571672 
L 57.631694 307.570303 
L 57.631702 307.568933 
L 57.63171 307.567563 
L 57.631718 307.566193 
L 57.631726 307.564824 
L 57.631734 307.563454 
L 57.630435 307.563454 
L 57.630428 307.564824 
L 57.630421 307.566193 
L 57.630414 307.567563 
L 57.630407 307.568933 
L 57.6304 307.570303 
L 57.630393 307.571672 
L 57.630386 307.573042 
L 57.630379 307.574412 
L 57.630372 307.575782 
L 57.630365 307.577151 
L 57.630358 307.578521 
L 57.630351 307.579891 
L 57.630344 307.581261 
L 57.630337 307.58263 
L 57.630331 307.584 
L 57.631615 307.584 
z
" style="fill:#375a8c;"/>
   </g>
   <g id="PathCollection_5">
    <path clip-path="url(#p97f975e996)" d="M 57.62948 307.584 
L 57.630331 307.584 
L 57.630337 307.58263 
L 57.630344 307.581261 
L 57.630351 307.579891 
L 57.630358 307.578521 
L 57.630365 307.577151 
L 57.630372 307.575782 
L 57.630379 307.574412 
L 57.630386 307.573042 
L 57.630393 307.571672 
L 57.6304 307.570303 
L 57.630407 307.568933 
L 57.630414 307.567563 
L 57.630421 307.566193 
L 57.630428 307.564824 
L 57.630435 307.563454 
L 57.62948 307.563454 
L 57.629025 307.563454 
L 57.629018 307.564824 
L 57.62901 307.566193 
L 57.629003 307.567563 
L 57.628995 307.568933 
L 57.628988 307.570303 
L 57.628981 307.571672 
L 57.628973 307.573042 
L 57.628966 307.574412 
L 57.628958 307.575782 
L 57.628951 307.577151 
L 57.628943 307.578521 
L 57.628936 307.579891 
L 57.628929 307.581261 
L 57.628921 307.58263 
L 57.628914 307.584 
z
" style="fill:#2b758e;"/>
   </g>
   <g id="PathCollection_6">
    <path clip-path="url(#p97f975e996)" d="M 57.628921 307.58263 
L 57.628929 307.581261 
L 57.628936 307.579891 
L 57.628943 307.578521 
L 57.628951 307.577151 
L 57.628958 307.575782 
L 57.628966 307.574412 
L 57.628973 307.573042 
L 57.628981 307.571672 
L 57.628988 307.570303 
L 57.628995 307.568933 
L 57.629003 307.567563 
L 57.62901 307.566193 
L 57.629018 307.564824 
L 57.629025 307.563454 
L 57.627313 307.563454 
L 57.627308 307.564824 
L 57.627303 307.566193 
L 57.627298 307.567563 
L 57.627293 307.568933 
L 57.627288 307.570303 
L 57.627283 307.571672 
L 57.627278 307.573042 
L 57.627273 307.574412 
L 57.627268 307.575782 
L 57.627263 307.577151 
L 57.627258 307.578521 
L 57.627253 307.579891 
L 57.627248 307.581261 
L 57.627243 307.58263 
L 57.627238 307.584 
L 57.628914 307.584 
z
" style="fill:#21918c;"/>
   </g>
   <g id="PathCollection_7">
    <path clip-path="url(#p97f975e996)" d="M 57.624944 307.584 
L 57.627212 307.584 
L 57.627238 307.584 
L 57.627243 307.58263 
L 57.627248 307.581261 
L 57.627253 307.579891 
L 57.627258 307.578521 
L 57.627263 307.577151 
L 57.627268 307.575782 
L 57.627273 307.574412 
L 57.627278 307.573042 
L 57.627283 307.571672 
L 57.627288 307.570303 
L 57.627293 307.568933 
L 57.627298 307.567563 
L 57.627303 307.566193 
L 57.627308 307.564824 
L 57.627313 307.563454 
L 57.627212 307.563454 
L 57.624944 307.563454 
L 57.62473 307.563454 
L 57.624726 307.564824 
L 57.624722 307.566193 
L 57.624718 307.567563 
L 57.624714 307.568933 
L 57.62471 307.570303 
L 57.624706 307.571672 
L 57.624702 307.573042 
L 57.624698 307.574412 
L 57.624694 307.575782 
L 57.62469 307.577151 
L 57.624686 307.578521 
L 57.624682 307.579891 
L 57.624677 307.581261 
L 57.624673 307.58263 
L 57.624669 307.584 
z
" style="fill:#25ab82;"/>
   </g>
   <g id="PathCollection_8">
    <path clip-path="url(#p97f975e996)" d="M 57.620409 307.584 
L 57.622677 307.584 
L 57.624669 307.584 
L 57.624673 307.58263 
L 57.624677 307.581261 
L 57.624682 307.579891 
L 57.624686 307.578521 
L 57.62469 307.577151 
L 57.624694 307.575782 
L 57.624698 307.574412 
L 57.624702 307.573042 
L 57.624706 307.571672 
L 57.62471 307.570303 
L 57.624714 307.568933 
L 57.624718 307.567563 
L 57.624722 307.566193 
L 57.624726 307.564824 
L 57.62473 307.563454 
L 57.622677 307.563454 
L 57.620409 307.563454 
L 57.619784 307.563454 
L 57.619792 307.564824 
L 57.6198 307.566193 
L 57.619808 307.567563 
L 57.619816 307.568933 
L 57.619824 307.570303 
L 57.619831 307.571672 
L 57.619839 307.573042 
L 57.619847 307.574412 
L 57.619855 307.575782 
L 57.619862 307.577151 
L 57.61987 307.578521 
L 57.619877 307.579891 
L 57.619884 307.581261 
L 57.619891 307.58263 
L 57.619897 307.584 
z
" style="fill:#4ec36b;"/>
   </g>
   <g id="PathCollection_9">
    <path clip-path="url(#p97f975e996)" d="M 57.613606 307.584 
L 57.615874 307.584 
L 57.618141 307.584 
L 57.619897 307.584 
L 57.619891 307.58263 
L 57.619884 307.581261 
L 57.619877 307.579891 
L 57.61987 307.578521 
L 57.619862 307.577151 
L 57.619855 307.575782 
L 57.619847 307.574412 
L 57.619839 307.573042 
L 57.619831 307.571672 
L 57.619824 307.570303 
L 57.619816 307.568933 
L 57.619808 307.567563 
L 57.6198 307.566193 
L 57.619792 307.564824 
L 57.619784 307.563454 
L 57.618141 307.563454 
L 57.615874 307.563454 
L 57.613606 307.563454 
L 57.611489 307.563454 
L 57.611508 307.564824 
L 57.611528 307.566193 
L 57.611547 307.567563 
L 57.611567 307.568933 
L 57.611586 307.570303 
L 57.611606 307.571672 
L 57.611625 307.573042 
L 57.611644 307.574412 
L 57.611662 307.575782 
L 57.611681 307.577151 
L 57.611699 307.578521 
L 57.611716 307.579891 
L 57.611732 307.581261 
L 57.611748 307.58263 
L 57.611762 307.584 
z
" style="fill:#90d743;"/>
   </g>
   <g id="PathCollection_10">
    <path clip-path="url(#p97f975e996)" d="M 57.602268 307.584 
L 57.604535 307.584 
L 57.606803 307.584 
L 57.609071 307.584 
L 57.611338 307.584 
L 57.611762 307.584 
L 57.611748 307.58263 
L 57.611732 307.581261 
L 57.611716 307.579891 
L 57.611699 307.578521 
L 57.611681 307.577151 
L 57.611662 307.575782 
L 57.611644 307.574412 
L 57.611625 307.573042 
L 57.611606 307.571672 
L 57.611586 307.570303 
L 57.611567 307.568933 
L 57.611547 307.567563 
L 57.611528 307.566193 
L 57.611508 307.564824 
L 57.611489 307.563454 
L 57.611338 307.563454 
L 57.609071 307.563454 
L 57.606803 307.563454 
L 57.604535 307.563454 
L 57.602268 307.563454 
L 57.6 307.563454 
L 57.6 307.564824 
L 57.6 307.566193 
L 57.6 307.567563 
L 57.6 307.568933 
L 57.6 307.570303 
L 57.6 307.571672 
L 57.6 307.573042 
L 57.6 307.574412 
L 57.6 307.575782 
L 57.6 307.577151 
L 57.6 307.578521 
L 57.6 307.579891 
L 57.6 307.581261 
L 57.6 307.58263 
L 57.6 307.584 
z
" style="fill:#dae319;"/>
   </g>
   <g id="PathCollection_11"/>
   <g id="matplotlib.axis_1">
    <g id="xtick_1">
     <g id="line2d_1">
      <defs>
       <path d="M 0 0 
L 0 3.5 
" id="mb2b3acf235" style="stroke:#000000;stroke-width:0.8;"/>
      </defs>
      <g>
       <use style="stroke:#000000;stroke-width:0.8;" x="57.6" xlink:href="#mb2b3acf235" y="307.584"/>
      </g>
     </g>
     <g id="text_1">
      <!-- 0 -->
      <defs>
       <path d="M 31.78125 66.40625 
Q 24.171875 66.40625 20.328125 58.90625 
Q 16.5 51.421875 16.5 36.375 
Q 16.5 21.390625 20.328125 13.890625 
Q 24.171875 6.390625 31.78125 6.390625 
Q 39.453125 6.390625 43.28125 13.890625 
Q 47.125 21.390625 47.125 36.375 
Q 47.125 51.421875 43.28125 58.90625 
Q 39.453125 66.40625 31.78125 66.40625 
z
M 31.78125 74.21875 
Q 44.046875 74.21875 50.515625 64.515625 
Q 56.984375 54.828125 56.984375 36.375 
Q 56.984375 17.96875 50.515625 8.265625 
Q 44.046875 -1.421875 31.78125 -1.421875 
Q 19.53125 -1.421875 13.0625 8.265625 
Q 6.59375 17.96875 6.59375 36.375 
Q 6.59375 54.828125 13.0625 64.515625 
Q 19.53125 74.21875 31.78125 74.21875 
z
" id="DejaVuSans-48"/>
      </defs>
      <g transform="translate(54.41875 322.182437)scale(0.1 -0.1)">
       <use xlink:href="#DejaVuSans-48"/>
      </g>
     </g>
    </g>
    <g id="xtick_2">
     <g id="line2d_2">
      <g>
       <use style="stroke:#000000;stroke-width:0.8;" x="125.62966" xlink:href="#mb2b3acf235" y="307.584"/>
      </g>
     </g>
     <g id="text_2">
      <!-- 2000 -->
      <defs>
       <path d="M 19.1875 8.296875 
L 53.609375 8.296875 
L 53.609375 0 
L 7.328125 0 
L 7.328125 8.296875 
Q 12.9375 14.109375 22.625 23.890625 
Q 32.328125 33.6875 34.8125 36.53125 
Q 39.546875 41.84375 41.421875 45.53125 
Q 43.3125 49.21875 43.3125 52.78125 
Q 43.3125 58.59375 39.234375 62.25 
Q 35.15625 65.921875 28.609375 65.921875 
Q 23.96875 65.921875 18.8125 64.3125 
Q 13.671875 62.703125 7.8125 59.421875 
L 7.8125 69.390625 
Q 13.765625 71.78125 18.9375 73 
Q 24.125 74.21875 28.421875 74.21875 
Q 39.75 74.21875 46.484375 68.546875 
Q 53.21875 62.890625 53.21875 53.421875 
Q 53.21875 48.921875 51.53125 44.890625 
Q 49.859375 40.875 45.40625 35.40625 
Q 44.1875 33.984375 37.640625 27.21875 
Q 31.109375 20.453125 19.1875 8.296875 
z
" id="DejaVuSans-50"/>
      </defs>
      <g transform="translate(112.90466 322.182437)scale(0.1 -0.1)">
       <use xlink:href="#DejaVuSans-50"/>
       <use x="63.623047" xlink:href="#DejaVuSans-48"/>
       <use x="127.246094" xlink:href="#DejaVuSans-48"/>
       <use x="190.869141" xlink:href="#DejaVuSans-48"/>
      </g>
     </g>
    </g>
    <g id="xtick_3">
     <g id="line2d_3">
      <g>
       <use style="stroke:#000000;stroke-width:0.8;" x="193.65932" xlink:href="#mb2b3acf235" y="307.584"/>
      </g>
     </g>
     <g id="text_3">
      <!-- 4000 -->
      <defs>
       <path d="M 37.796875 64.3125 
L 12.890625 25.390625 
L 37.796875 25.390625 
z
M 35.203125 72.90625 
L 47.609375 72.90625 
L 47.609375 25.390625 
L 58.015625 25.390625 
L 58.015625 17.1875 
L 47.609375 17.1875 
L 47.609375 0 
L 37.796875 0 
L 37.796875 17.1875 
L 4.890625 17.1875 
L 4.890625 26.703125 
z
" id="DejaVuSans-52"/>
      </defs>
      <g transform="translate(180.93432 322.182437)scale(0.1 -0.1)">
       <use xlink:href="#DejaVuSans-52"/>
       <use x="63.623047" xlink:href="#DejaVuSans-48"/>
       <use x="127.246094" xlink:href="#DejaVuSans-48"/>
       <use x="190.869141" xlink:href="#DejaVuSans-48"/>
      </g>
     </g>
    </g>
    <g id="xtick_4">
     <g id="line2d_4">
      <g>
       <use style="stroke:#000000;stroke-width:0.8;" x="261.68898" xlink:href="#mb2b3acf235" y="307.584"/>
      </g>
     </g>
     <g id="text_4">
      <!-- 6000 -->
      <defs>
       <path d="M 33.015625 40.375 
Q 26.375 40.375 22.484375 35.828125 
Q 18.609375 31.296875 18.609375 23.390625 
Q 18.609375 15.53125 22.484375 10.953125 
Q 26.375 6.390625 33.015625 6.390625 
Q 39.65625 6.390625 43.53125 10.953125 
Q 47.40625 15.53125 47.40625 23.390625 
Q 47.40625 31.296875 43.53125 35.828125 
Q 39.65625 40.375 33.015625 40.375 
z
M 52.59375 71.296875 
L 52.59375 62.3125 
Q 48.875 64.0625 45.09375 64.984375 
Q 41.3125 65.921875 37.59375 65.921875 
Q 27.828125 65.921875 22.671875 59.328125 
Q 17.53125 52.734375 16.796875 39.40625 
Q 19.671875 43.65625 24.015625 45.921875 
Q 28.375 48.1875 33.59375 48.1875 
Q 44.578125 48.1875 50.953125 41.515625 
Q 57.328125 34.859375 57.328125 23.390625 
Q 57.328125 12.15625 50.6875 5.359375 
Q 44.046875 -1.421875 33.015625 -1.421875 
Q 20.359375 -1.421875 13.671875 8.265625 
Q 6.984375 17.96875 6.984375 36.375 
Q 6.984375 53.65625 15.1875 63.9375 
Q 23.390625 74.21875 37.203125 74.21875 
Q 40.921875 74.21875 44.703125 73.484375 
Q 48.484375 72.75 52.59375 71.296875 
z
" id="DejaVuSans-54"/>
      </defs>
      <g transform="translate(248.96398 322.182437)scale(0.1 -0.1)">
       <use xlink:href="#DejaVuSans-54"/>
       <use x="63.623047" xlink:href="#DejaVuSans-48"/>
       <use x="127.246094" xlink:href="#DejaVuSans-48"/>
       <use x="190.869141" xlink:href="#DejaVuSans-48"/>
      </g>
     </g>
    </g>
    <g id="xtick_5">
     <g id="line2d_5">
      <g>
       <use style="stroke:#000000;stroke-width:0.8;" x="329.71864" xlink:href="#mb2b3acf235" y="307.584"/>
      </g>
     </g>
     <g id="text_5">
      <!-- 8000 -->
      <defs>
       <path d="M 31.78125 34.625 
Q 24.75 34.625 20.71875 30.859375 
Q 16.703125 27.09375 16.703125 20.515625 
Q 16.703125 13.921875 20.71875 10.15625 
Q 24.75 6.390625 31.78125 6.390625 
Q 38.8125 6.390625 42.859375 10.171875 
Q 46.921875 13.96875 46.921875 20.515625 
Q 46.921875 27.09375 42.890625 30.859375 
Q 38.875 34.625 31.78125 34.625 
z
M 21.921875 38.8125 
Q 15.578125 40.375 12.03125 44.71875 
Q 8.5 49.078125 8.5 55.328125 
Q 8.5 64.0625 14.71875 69.140625 
Q 20.953125 74.21875 31.78125 74.21875 
Q 42.671875 74.21875 48.875 69.140625 
Q 55.078125 64.0625 55.078125 55.328125 
Q 55.078125 49.078125 51.53125 44.71875 
Q 48 40.375 41.703125 38.8125 
Q 48.828125 37.15625 52.796875 32.3125 
Q 56.78125 27.484375 56.78125 20.515625 
Q 56.78125 9.90625 50.3125 4.234375 
Q 43.84375 -1.421875 31.78125 -1.421875 
Q 19.734375 -1.421875 13.25 4.234375 
Q 6.78125 9.90625 6.78125 20.515625 
Q 6.78125 27.484375 10.78125 32.3125 
Q 14.796875 37.15625 21.921875 38.8125 
z
M 18.3125 54.390625 
Q 18.3125 48.734375 21.84375 45.5625 
Q 25.390625 42.390625 31.78125 42.390625 
Q 38.140625 42.390625 41.71875 45.5625 
Q 45.3125 48.734375 45.3125 54.390625 
Q 45.3125 60.0625 41.71875 63.234375 
Q 38.140625 66.40625 31.78125 66.40625 
Q 25.390625 66.40625 21.84375 63.234375 
Q 18.3125 60.0625 18.3125 54.390625 
z
" id="DejaVuSans-56"/>
      </defs>
      <g transform="translate(316.99364 322.182437)scale(0.1 -0.1)">
       <use xlink:href="#DejaVuSans-56"/>
       <use x="63.623047" xlink:href="#DejaVuSans-48"/>
       <use x="127.246094" xlink:href="#DejaVuSans-48"/>
       <use x="190.869141" xlink:href="#DejaVuSans-48"/>
      </g>
     </g>
    </g>
    <g id="xtick_6">
     <g id="line2d_6">
      <g>
       <use style="stroke:#000000;stroke-width:0.8;" x="397.748301" xlink:href="#mb2b3acf235" y="307.584"/>
      </g>
     </g>
     <g id="text_6">
      <!-- 10000 -->
      <defs>
       <path d="M 12.40625 8.296875 
L 28.515625 8.296875 
L 28.515625 63.921875 
L 10.984375 60.40625 
L 10.984375 69.390625 
L 28.421875 72.90625 
L 38.28125 72.90625 
L 38.28125 8.296875 
L 54.390625 8.296875 
L 54.390625 0 
L 12.40625 0 
z
" id="DejaVuSans-49"/>
      </defs>
      <g transform="translate(381.842051 322.182437)scale(0.1 -0.1)">
       <use xlink:href="#DejaVuSans-49"/>
       <use x="63.623047" xlink:href="#DejaVuSans-48"/>
       <use x="127.246094" xlink:href="#DejaVuSans-48"/>
       <use x="190.869141" xlink:href="#DejaVuSans-48"/>
       <use x="254.492188" xlink:href="#DejaVuSans-48"/>
      </g>
     </g>
    </g>
   </g>
   <g id="matplotlib.axis_2">
    <g id="ytick_1">
     <g id="line2d_7">
      <defs>
       <path d="M 0 0 
L -3.5 0 
" id="m4bc04d5360" style="stroke:#000000;stroke-width:0.8;"/>
      </defs>
      <g>
       <use style="stroke:#000000;stroke-width:0.8;" x="57.6" xlink:href="#m4bc04d5360" y="307.584"/>
      </g>
     </g>
     <g id="text_7">
      <!-- 0 -->
      <g transform="translate(44.2375 311.383219)scale(0.1 -0.1)">
       <use xlink:href="#DejaVuSans-48"/>
      </g>
     </g>
    </g>
    <g id="ytick_2">
     <g id="line2d_8">
      <g>
       <use style="stroke:#000000;stroke-width:0.8;" x="57.6" xlink:href="#m4bc04d5360" y="266.491809"/>
      </g>
     </g>
     <g id="text_8">
      <!-- 2000 -->
      <g transform="translate(25.15 270.291028)scale(0.1 -0.1)">
       <use xlink:href="#DejaVuSans-50"/>
       <use x="63.623047" xlink:href="#DejaVuSans-48"/>
       <use x="127.246094" xlink:href="#DejaVuSans-48"/>
       <use x="190.869141" xlink:href="#DejaVuSans-48"/>
      </g>
     </g>
    </g>
    <g id="ytick_3">
     <g id="line2d_9">
      <g>
       <use style="stroke:#000000;stroke-width:0.8;" x="57.6" xlink:href="#m4bc04d5360" y="225.399618"/>
      </g>
     </g>
     <g id="text_9">
      <!-- 4000 -->
      <g transform="translate(25.15 229.198837)scale(0.1 -0.1)">
       <use xlink:href="#DejaVuSans-52"/>
       <use x="63.623047" xlink:href="#DejaVuSans-48"/>
       <use x="127.246094" xlink:href="#DejaVuSans-48"/>
       <use x="190.869141" xlink:href="#DejaVuSans-48"/>
      </g>
     </g>
    </g>
    <g id="ytick_4">
     <g id="line2d_10">
      <g>
       <use style="stroke:#000000;stroke-width:0.8;" x="57.6" xlink:href="#m4bc04d5360" y="184.307427"/>
      </g>
     </g>
     <g id="text_10">
      <!-- 6000 -->
      <g transform="translate(25.15 188.106646)scale(0.1 -0.1)">
       <use xlink:href="#DejaVuSans-54"/>
       <use x="63.623047" xlink:href="#DejaVuSans-48"/>
       <use x="127.246094" xlink:href="#DejaVuSans-48"/>
       <use x="190.869141" xlink:href="#DejaVuSans-48"/>
      </g>
     </g>
    </g>
    <g id="ytick_5">
     <g id="line2d_11">
      <g>
       <use style="stroke:#000000;stroke-width:0.8;" x="57.6" xlink:href="#m4bc04d5360" y="143.215236"/>
      </g>
     </g>
     <g id="text_11">
      <!-- 8000 -->
      <g transform="translate(25.15 147.014455)scale(0.1 -0.1)">
       <use xlink:href="#DejaVuSans-56"/>
       <use x="63.623047" xlink:href="#DejaVuSans-48"/>
       <use x="127.246094" xlink:href="#DejaVuSans-48"/>
       <use x="190.869141" xlink:href="#DejaVuSans-48"/>
      </g>
     </g>
    </g>
    <g id="ytick_6">
     <g id="line2d_12">
      <g>
       <use style="stroke:#000000;stroke-width:0.8;" x="57.6" xlink:href="#m4bc04d5360" y="102.123045"/>
      </g>
     </g>
     <g id="text_12">
      <!-- 10000 -->
      <g transform="translate(18.7875 105.922264)scale(0.1 -0.1)">
       <use xlink:href="#DejaVuSans-49"/>
       <use x="63.623047" xlink:href="#DejaVuSans-48"/>
       <use x="127.246094" xlink:href="#DejaVuSans-48"/>
       <use x="190.869141" xlink:href="#DejaVuSans-48"/>
       <use x="254.492188" xlink:href="#DejaVuSans-48"/>
      </g>
     </g>
    </g>
    <g id="ytick_7">
     <g id="line2d_13">
      <g>
       <use style="stroke:#000000;stroke-width:0.8;" x="57.6" xlink:href="#m4bc04d5360" y="61.030855"/>
      </g>
     </g>
     <g id="text_13">
      <!-- 12000 -->
      <g transform="translate(18.7875 64.830073)scale(0.1 -0.1)">
       <use xlink:href="#DejaVuSans-49"/>
       <use x="63.623047" xlink:href="#DejaVuSans-50"/>
       <use x="127.246094" xlink:href="#DejaVuSans-48"/>
       <use x="190.869141" xlink:href="#DejaVuSans-48"/>
       <use x="254.492188" xlink:href="#DejaVuSans-48"/>
      </g>
     </g>
    </g>
   </g>
   <g id="line2d_14">
    <path clip-path="url(#p97f975e996)" d="M 57.6 169.088027 
L 57.634015 54.144 
L 57.66803 200.961583 
L 57.804089 255.370578 
L 58.008178 272.255109 
L 58.076208 247.125554 
L 58.110222 265.585245 
L 58.314311 280.195257 
L 58.5184 282.836516 
L 58.552415 282.803395 
L 58.756504 284.480227 
L 58.994608 287.997019 
L 59.402786 290.407286 
L 60.457246 293.070747 
L 60.933453 293.703442 
L 61.61375 294.244221 
L 62.60018 294.730381 
L 63.960773 295.135065 
L 65.967648 295.477428 
L 69.165042 295.772527 
L 75.049608 296.059611 
L 90.866504 296.540001 
L 114.914989 297.07448 
L 142.637075 297.452974 
L 182.808589 297.761046 
L 246.212233 298.004071 
L 357.270653 298.177553 
L 397.714286 298.209332 
L 397.714286 298.209332 
" style="fill:none;stroke:#1f77b4;stroke-linecap:square;stroke-width:1.5;"/>
   </g>
   <g id="patch_3">
    <path d="M 57.6 307.584 
L 57.6 41.472 
" style="fill:none;stroke:#000000;stroke-linecap:square;stroke-linejoin:miter;stroke-width:0.8;"/>
   </g>
   <g id="patch_4">
    <path d="M 414.72 307.584 
L 414.72 41.472 
" style="fill:none;stroke:#000000;stroke-linecap:square;stroke-linejoin:miter;stroke-width:0.8;"/>
   </g>
   <g id="patch_5">
    <path d="M 57.6 307.584 
L 414.72 307.584 
" style="fill:none;stroke:#000000;stroke-linecap:square;stroke-linejoin:miter;stroke-width:0.8;"/>
   </g>
   <g id="patch_6">
    <path d="M 57.6 41.472 
L 414.72 41.472 
" style="fill:none;stroke:#000000;stroke-linecap:square;stroke-linejoin:miter;stroke-width:0.8;"/>
   </g>
  </g>
 </g>
 <defs>
  <clipPath id="p97f975e996">
   <rect height="266.112" width="357.12" x="57.6" y="41.472"/>
  </clipPath>
 </defs>
</svg>
