<?xml version="1.0" encoding="utf-8" standalone="no"?>
<!DOCTYPE svg PUBLIC "-//W3C//DTD SVG 1.1//EN"
  "http://www.w3.org/Graphics/SVG/1.1/DTD/svg11.dtd">
<!-- Created with matplotlib (https://matplotlib.org/) -->
<svg height="345.6pt" version="1.1" viewBox="0 0 460.8 345.6" width="460.8pt" xmlns="http://www.w3.org/2000/svg" xmlns:xlink="http://www.w3.org/1999/xlink">
 <defs>
  <style type="text/css">
*{stroke-linecap:butt;stroke-linejoin:round;}
  </style>
 </defs>
 <g id="figure_1">
  <g id="patch_1">
   <path d="M 0 345.6 
L 460.8 345.6 
L 460.8 0 
L 0 0 
z
" style="fill:#ffffff;"/>
  </g>
  <g id="axes_1">
   <g id="patch_2">
    <path d="M 57.6 307.584 
L 414.72 307.584 
L 414.72 41.472 
L 57.6 41.472 
z
" style="fill:#ffffff;"/>
   </g>
   <g id="PathCollection_1">
    <path clip-path="url(#p51a944f43e)" d="M 414.72 307.584 
z
" style="fill:#440154;"/>
   </g>
   <g id="PathCollection_2">
    <path clip-path="url(#p51a944f43e)" d="M 414.72 307.584 
L 414.72 289.8432 
L 414.72 272.1024 
L 414.72 254.3616 
L 414.72 236.6208 
L 414.72 218.88 
L 414.72 201.1392 
L 414.72 183.3984 
L 414.72 165.6576 
L 414.72 147.9168 
L 414.72 130.176 
L 414.72 112.4352 
L 414.72 94.6944 
L 414.72 76.9536 
L 414.72 59.2128 
L 414.72 41.472 
L 403.330045 41.472 
L 403.252764 59.2128 
L 403.175499 76.9536 
L 403.098273 94.6944 
L 403.021046 112.4352 
L 402.943832 130.176 
L 402.866616 147.9168 
L 402.789406 165.6576 
L 402.712212 183.3984 
L 402.635006 201.1392 
L 402.557801 218.88 
L 402.480567 236.6208 
L 402.403306 254.3616 
L 402.32596 272.1024 
L 402.248593 289.8432 
L 402.17111 307.584 
L 414.72 307.584 
z
" style="fill:#481668;"/>
   </g>
   <g id="PathCollection_3">
    <path clip-path="url(#p51a944f43e)" d="M 390.912 307.584 
L 402.17111 307.584 
L 402.248593 289.8432 
L 402.32596 272.1024 
L 402.403306 254.3616 
L 402.480567 236.6208 
L 402.557801 218.88 
L 402.635006 201.1392 
L 402.712212 183.3984 
L 402.789406 165.6576 
L 402.866616 147.9168 
L 402.943832 130.176 
L 403.021046 112.4352 
L 403.098273 94.6944 
L 403.175499 76.9536 
L 403.252764 59.2128 
L 403.330045 41.472 
L 390.912 41.472 
L 390.775596 41.472 
L 390.691606 59.2128 
L 390.607713 76.9536 
L 390.523966 94.6944 
L 390.440308 112.4352 
L 390.356771 130.176 
L 390.273322 147.9168 
L 390.189966 165.6576 
L 390.106737 183.3984 
L 390.023578 201.1392 
L 389.940516 218.88 
L 389.857516 236.6208 
L 389.774568 254.3616 
L 389.691624 272.1024 
L 389.608727 289.8432 
L 389.525808 307.584 
z
" style="fill:#443983;"/>
   </g>
   <g id="PathCollection_4">
    <path clip-path="url(#p51a944f43e)" d="M 389.608727 289.8432 
L 389.691624 272.1024 
L 389.774568 254.3616 
L 389.857516 236.6208 
L 389.940516 218.88 
L 390.023578 201.1392 
L 390.106737 183.3984 
L 390.189966 165.6576 
L 390.273322 147.9168 
L 390.356771 130.176 
L 390.440308 112.4352 
L 390.523966 94.6944 
L 390.607713 76.9536 
L 390.691606 59.2128 
L 390.775596 41.472 
L 377.1312 41.472 
L 377.058026 59.2128 
L 376.984927 76.9536 
L 376.9119 94.6944 
L 376.838949 112.4352 
L 376.766046 130.176 
L 376.69321 147.9168 
L 376.620414 165.6576 
L 376.547692 183.3984 
L 376.474999 201.1392 
L 376.402338 218.88 
L 376.329712 236.6208 
L 376.257068 254.3616 
L 376.184397 272.1024 
L 376.111678 289.8432 
L 376.038877 307.584 
L 389.525808 307.584 
z
" style="fill:#375a8c;"/>
   </g>
   <g id="PathCollection_5">
    <path clip-path="url(#p51a944f43e)" d="M 367.104 307.584 
L 376.038877 307.584 
L 376.111678 289.8432 
L 376.184397 272.1024 
L 376.257068 254.3616 
L 376.329712 236.6208 
L 376.402338 218.88 
L 376.474999 201.1392 
L 376.547692 183.3984 
L 376.620414 165.6576 
L 376.69321 147.9168 
L 376.766046 130.176 
L 376.838949 112.4352 
L 376.9119 94.6944 
L 376.984927 76.9536 
L 377.058026 59.2128 
L 377.1312 41.472 
L 367.104 41.472 
L 362.336521 41.472 
L 362.257565 59.2128 
L 362.178784 76.9536 
L 362.10012 94.6944 
L 362.021634 112.4352 
L 361.943241 130.176 
L 361.865005 147.9168 
L 361.786867 165.6576 
L 361.708864 183.3984 
L 361.630957 201.1392 
L 361.553122 218.88 
L 361.475385 236.6208 
L 361.397657 254.3616 
L 361.319938 272.1024 
L 361.242159 289.8432 
L 361.164283 307.584 
z
" style="fill:#2b758e;"/>
   </g>
   <g id="PathCollection_6">
    <path clip-path="url(#p51a944f43e)" d="M 361.242159 289.8432 
L 361.319938 272.1024 
L 361.397657 254.3616 
L 361.475385 236.6208 
L 361.553122 218.88 
L 361.630957 201.1392 
L 361.708864 183.3984 
L 361.786867 165.6576 
L 361.865005 147.9168 
L 361.943241 130.176 
L 362.021634 112.4352 
L 362.10012 94.6944 
L 362.178784 76.9536 
L 362.257565 59.2128 
L 362.336521 41.472 
L 344.353152 41.472 
L 344.300432 59.2128 
L 344.247809 76.9536 
L 344.195235 94.6944 
L 344.142749 112.4352 
L 344.090301 130.176 
L 344.037922 147.9168 
L 343.985572 165.6576 
L 343.933262 183.3984 
L 343.880981 201.1392 
L 343.828683 218.88 
L 343.776369 236.6208 
L 343.723992 254.3616 
L 343.671496 272.1024 
L 343.618854 289.8432 
L 343.565956 307.584 
L 361.164283 307.584 
z
" style="fill:#21918c;"/>
   </g>
   <g id="PathCollection_7">
    <path clip-path="url(#p51a944f43e)" d="M 319.488 307.584 
L 343.296 307.584 
L 343.565956 307.584 
L 343.618854 289.8432 
L 343.671496 272.1024 
L 343.723992 254.3616 
L 343.776369 236.6208 
L 343.828683 218.88 
L 343.880981 201.1392 
L 343.933262 183.3984 
L 343.985572 165.6576 
L 344.037922 147.9168 
L 344.090301 130.176 
L 344.142749 112.4352 
L 344.195235 94.6944 
L 344.247809 76.9536 
L 344.300432 59.2128 
L 344.353152 41.472 
L 343.296 41.472 
L 319.488 41.472 
L 317.24314 41.472 
L 317.200382 59.2128 
L 317.157707 76.9536 
L 317.11508 94.6944 
L 317.072545 112.4352 
L 317.030038 130.176 
L 316.987574 147.9168 
L 316.945086 165.6576 
L 316.902585 183.3984 
L 316.859972 201.1392 
L 316.817236 218.88 
L 316.774253 236.6208 
L 316.730922 254.3616 
L 316.687112 272.1024 
L 316.642617 289.8432 
L 316.597184 307.584 
z
" style="fill:#25ab82;"/>
   </g>
   <g id="PathCollection_8">
    <path clip-path="url(#p51a944f43e)" d="M 271.872 307.584 
L 295.68 307.584 
L 316.597184 307.584 
L 316.642617 289.8432 
L 316.687112 272.1024 
L 316.730922 254.3616 
L 316.774253 236.6208 
L 316.817236 218.88 
L 316.859972 201.1392 
L 316.902585 183.3984 
L 316.945086 165.6576 
L 316.987574 147.9168 
L 317.030038 130.176 
L 317.072545 112.4352 
L 317.11508 94.6944 
L 317.157707 76.9536 
L 317.200382 59.2128 
L 317.24314 41.472 
L 295.68 41.472 
L 271.872 41.472 
L 265.307205 41.472 
L 265.391797 59.2128 
L 265.476082 76.9536 
L 265.560046 94.6944 
L 265.643631 112.4352 
L 265.72674 130.176 
L 265.809388 147.9168 
L 265.891426 165.6576 
L 265.972712 183.3984 
L 266.053099 201.1392 
L 266.132383 218.88 
L 266.210214 236.6208 
L 266.286246 254.3616 
L 266.359945 272.1024 
L 266.430641 289.8432 
L 266.497372 307.584 
z
" style="fill:#4ec36b;"/>
   </g>
   <g id="PathCollection_9">
    <path clip-path="url(#p51a944f43e)" d="M 200.448 307.584 
L 224.256 307.584 
L 248.064 307.584 
L 266.497372 307.584 
L 266.430641 289.8432 
L 266.359945 272.1024 
L 266.286246 254.3616 
L 266.210214 236.6208 
L 266.132383 218.88 
L 266.053099 201.1392 
L 265.972712 183.3984 
L 265.891426 165.6576 
L 265.809388 147.9168 
L 265.72674 130.176 
L 265.643631 112.4352 
L 265.560046 94.6944 
L 265.476082 76.9536 
L 265.391797 59.2128 
L 265.307205 41.472 
L 248.064 41.472 
L 224.256 41.472 
L 200.448 41.472 
L 178.217731 41.472 
L 178.424465 59.2128 
L 178.630693 76.9536 
L 178.836268 94.6944 
L 179.041074 112.4352 
L 179.244851 130.176 
L 179.447394 147.9168 
L 179.648298 165.6576 
L 179.847117 183.3984 
L 180.043173 201.1392 
L 180.235702 218.88 
L 180.423471 236.6208 
L 180.605122 254.3616 
L 180.778634 272.1024 
L 180.941414 289.8432 
L 181.090029 307.584 
z
" style="fill:#90d743;"/>
   </g>
   <g id="PathCollection_10">
    <path clip-path="url(#p51a944f43e)" d="M 81.408 307.584 
L 105.216 307.584 
L 129.024 307.584 
L 152.832 307.584 
L 176.64 307.584 
L 181.090029 307.584 
L 180.941414 289.8432 
L 180.778634 272.1024 
L 180.605122 254.3616 
L 180.423471 236.6208 
L 180.235702 218.88 
L 180.043173 201.1392 
L 179.847117 183.3984 
L 179.648298 165.6576 
L 179.447394 147.9168 
L 179.244851 130.176 
L 179.041074 112.4352 
L 178.836268 94.6944 
L 178.630693 76.9536 
L 178.424465 59.2128 
L 178.217731 41.472 
L 176.64 41.472 
L 152.832 41.472 
L 129.024 41.472 
L 105.216 41.472 
L 81.408 41.472 
L 57.6 41.472 
L 57.6 59.2128 
L 57.6 76.9536 
L 57.6 94.6944 
L 57.6 112.4352 
L 57.6 130.176 
L 57.6 147.9168 
L 57.6 165.6576 
L 57.6 183.3984 
L 57.6 201.1392 
L 57.6 218.88 
L 57.6 236.6208 
L 57.6 254.3616 
L 57.6 272.1024 
L 57.6 289.8432 
L 57.6 307.584 
z
" style="fill:#dae319;"/>
   </g>
   <g id="PathCollection_11"/>
   <g id="matplotlib.axis_1">
    <g id="xtick_1">
     <g id="line2d_1">
      <defs>
       <path d="M 0 0 
L 0 3.5 
" id="me6266cce84" style="stroke:#000000;stroke-width:0.8;"/>
      </defs>
      <g>
       <use style="stroke:#000000;stroke-width:0.8;" x="57.6" xlink:href="#me6266cce84" y="307.584"/>
      </g>
     </g>
     <g id="text_1">
      <!-- 0.0 -->
      <defs>
       <path d="M 31.78125 66.40625 
Q 24.171875 66.40625 20.328125 58.90625 
Q 16.5 51.421875 16.5 36.375 
Q 16.5 21.390625 20.328125 13.890625 
Q 24.171875 6.390625 31.78125 6.390625 
Q 39.453125 6.390625 43.28125 13.890625 
Q 47.125 21.390625 47.125 36.375 
Q 47.125 51.421875 43.28125 58.90625 
Q 39.453125 66.40625 31.78125 66.40625 
z
M 31.78125 74.21875 
Q 44.046875 74.21875 50.515625 64.515625 
Q 56.984375 54.828125 56.984375 36.375 
Q 56.984375 17.96875 50.515625 8.265625 
Q 44.046875 -1.421875 31.78125 -1.421875 
Q 19.53125 -1.421875 13.0625 8.265625 
Q 6.59375 17.96875 6.59375 36.375 
Q 6.59375 54.828125 13.0625 64.515625 
Q 19.53125 74.21875 31.78125 74.21875 
z
" id="DejaVuSans-48"/>
       <path d="M 10.6875 12.40625 
L 21 12.40625 
L 21 0 
L 10.6875 0 
z
" id="DejaVuSans-46"/>
      </defs>
      <g transform="translate(49.648438 322.182437)scale(0.1 -0.1)">
       <use xlink:href="#DejaVuSans-48"/>
       <use x="63.623047" xlink:href="#DejaVuSans-46"/>
       <use x="95.410156" xlink:href="#DejaVuSans-48"/>
      </g>
     </g>
    </g>
    <g id="xtick_2">
     <g id="line2d_2">
      <g>
       <use style="stroke:#000000;stroke-width:0.8;" x="129.024" xlink:href="#me6266cce84" y="307.584"/>
      </g>
     </g>
     <g id="text_2">
      <!-- 0.2 -->
      <defs>
       <path d="M 19.1875 8.296875 
L 53.609375 8.296875 
L 53.609375 0 
L 7.328125 0 
L 7.328125 8.296875 
Q 12.9375 14.109375 22.625 23.890625 
Q 32.328125 33.6875 34.8125 36.53125 
Q 39.546875 41.84375 41.421875 45.53125 
Q 43.3125 49.21875 43.3125 52.78125 
Q 43.3125 58.59375 39.234375 62.25 
Q 35.15625 65.921875 28.609375 65.921875 
Q 23.96875 65.921875 18.8125 64.3125 
Q 13.671875 62.703125 7.8125 59.421875 
L 7.8125 69.390625 
Q 13.765625 71.78125 18.9375 73 
Q 24.125 74.21875 28.421875 74.21875 
Q 39.75 74.21875 46.484375 68.546875 
Q 53.21875 62.890625 53.21875 53.421875 
Q 53.21875 48.921875 51.53125 44.890625 
Q 49.859375 40.875 45.40625 35.40625 
Q 44.1875 33.984375 37.640625 27.21875 
Q 31.109375 20.453125 19.1875 8.296875 
z
" id="DejaVuSans-50"/>
      </defs>
      <g transform="translate(121.072438 322.182437)scale(0.1 -0.1)">
       <use xlink:href="#DejaVuSans-48"/>
       <use x="63.623047" xlink:href="#DejaVuSans-46"/>
       <use x="95.410156" xlink:href="#DejaVuSans-50"/>
      </g>
     </g>
    </g>
    <g id="xtick_3">
     <g id="line2d_3">
      <g>
       <use style="stroke:#000000;stroke-width:0.8;" x="200.448" xlink:href="#me6266cce84" y="307.584"/>
      </g>
     </g>
     <g id="text_3">
      <!-- 0.4 -->
      <defs>
       <path d="M 37.796875 64.3125 
L 12.890625 25.390625 
L 37.796875 25.390625 
z
M 35.203125 72.90625 
L 47.609375 72.90625 
L 47.609375 25.390625 
L 58.015625 25.390625 
L 58.015625 17.1875 
L 47.609375 17.1875 
L 47.609375 0 
L 37.796875 0 
L 37.796875 17.1875 
L 4.890625 17.1875 
L 4.890625 26.703125 
z
" id="DejaVuSans-52"/>
      </defs>
      <g transform="translate(192.496438 322.182437)scale(0.1 -0.1)">
       <use xlink:href="#DejaVuSans-48"/>
       <use x="63.623047" xlink:href="#DejaVuSans-46"/>
       <use x="95.410156" xlink:href="#DejaVuSans-52"/>
      </g>
     </g>
    </g>
    <g id="xtick_4">
     <g id="line2d_4">
      <g>
       <use style="stroke:#000000;stroke-width:0.8;" x="271.872" xlink:href="#me6266cce84" y="307.584"/>
      </g>
     </g>
     <g id="text_4">
      <!-- 0.6 -->
      <defs>
       <path d="M 33.015625 40.375 
Q 26.375 40.375 22.484375 35.828125 
Q 18.609375 31.296875 18.609375 23.390625 
Q 18.609375 15.53125 22.484375 10.953125 
Q 26.375 6.390625 33.015625 6.390625 
Q 39.65625 6.390625 43.53125 10.953125 
Q 47.40625 15.53125 47.40625 23.390625 
Q 47.40625 31.296875 43.53125 35.828125 
Q 39.65625 40.375 33.015625 40.375 
z
M 52.59375 71.296875 
L 52.59375 62.3125 
Q 48.875 64.0625 45.09375 64.984375 
Q 41.3125 65.921875 37.59375 65.921875 
Q 27.828125 65.921875 22.671875 59.328125 
Q 17.53125 52.734375 16.796875 39.40625 
Q 19.671875 43.65625 24.015625 45.921875 
Q 28.375 48.1875 33.59375 48.1875 
Q 44.578125 48.1875 50.953125 41.515625 
Q 57.328125 34.859375 57.328125 23.390625 
Q 57.328125 12.15625 50.6875 5.359375 
Q 44.046875 -1.421875 33.015625 -1.421875 
Q 20.359375 -1.421875 13.671875 8.265625 
Q 6.984375 17.96875 6.984375 36.375 
Q 6.984375 53.65625 15.1875 63.9375 
Q 23.390625 74.21875 37.203125 74.21875 
Q 40.921875 74.21875 44.703125 73.484375 
Q 48.484375 72.75 52.59375 71.296875 
z
" id="DejaVuSans-54"/>
      </defs>
      <g transform="translate(263.920438 322.182437)scale(0.1 -0.1)">
       <use xlink:href="#DejaVuSans-48"/>
       <use x="63.623047" xlink:href="#DejaVuSans-46"/>
       <use x="95.410156" xlink:href="#DejaVuSans-54"/>
      </g>
     </g>
    </g>
    <g id="xtick_5">
     <g id="line2d_5">
      <g>
       <use style="stroke:#000000;stroke-width:0.8;" x="343.296" xlink:href="#me6266cce84" y="307.584"/>
      </g>
     </g>
     <g id="text_5">
      <!-- 0.8 -->
      <defs>
       <path d="M 31.78125 34.625 
Q 24.75 34.625 20.71875 30.859375 
Q 16.703125 27.09375 16.703125 20.515625 
Q 16.703125 13.921875 20.71875 10.15625 
Q 24.75 6.390625 31.78125 6.390625 
Q 38.8125 6.390625 42.859375 10.171875 
Q 46.921875 13.96875 46.921875 20.515625 
Q 46.921875 27.09375 42.890625 30.859375 
Q 38.875 34.625 31.78125 34.625 
z
M 21.921875 38.8125 
Q 15.578125 40.375 12.03125 44.71875 
Q 8.5 49.078125 8.5 55.328125 
Q 8.5 64.0625 14.71875 69.140625 
Q 20.953125 74.21875 31.78125 74.21875 
Q 42.671875 74.21875 48.875 69.140625 
Q 55.078125 64.0625 55.078125 55.328125 
Q 55.078125 49.078125 51.53125 44.71875 
Q 48 40.375 41.703125 38.8125 
Q 48.828125 37.15625 52.796875 32.3125 
Q 56.78125 27.484375 56.78125 20.515625 
Q 56.78125 9.90625 50.3125 4.234375 
Q 43.84375 -1.421875 31.78125 -1.421875 
Q 19.734375 -1.421875 13.25 4.234375 
Q 6.78125 9.90625 6.78125 20.515625 
Q 6.78125 27.484375 10.78125 32.3125 
Q 14.796875 37.15625 21.921875 38.8125 
z
M 18.3125 54.390625 
Q 18.3125 48.734375 21.84375 45.5625 
Q 25.390625 42.390625 31.78125 42.390625 
Q 38.140625 42.390625 41.71875 45.5625 
Q 45.3125 48.734375 45.3125 54.390625 
Q 45.3125 60.0625 41.71875 63.234375 
Q 38.140625 66.40625 31.78125 66.40625 
Q 25.390625 66.40625 21.84375 63.234375 
Q 18.3125 60.0625 18.3125 54.390625 
z
" id="DejaVuSans-56"/>
      </defs>
      <g transform="translate(335.344438 322.182437)scale(0.1 -0.1)">
       <use xlink:href="#DejaVuSans-48"/>
       <use x="63.623047" xlink:href="#DejaVuSans-46"/>
       <use x="95.410156" xlink:href="#DejaVuSans-56"/>
      </g>
     </g>
    </g>
    <g id="xtick_6">
     <g id="line2d_6">
      <g>
       <use style="stroke:#000000;stroke-width:0.8;" x="414.72" xlink:href="#me6266cce84" y="307.584"/>
      </g>
     </g>
     <g id="text_6">
      <!-- 1.0 -->
      <defs>
       <path d="M 12.40625 8.296875 
L 28.515625 8.296875 
L 28.515625 63.921875 
L 10.984375 60.40625 
L 10.984375 69.390625 
L 28.421875 72.90625 
L 38.28125 72.90625 
L 38.28125 8.296875 
L 54.390625 8.296875 
L 54.390625 0 
L 12.40625 0 
z
" id="DejaVuSans-49"/>
      </defs>
      <g transform="translate(406.768438 322.182437)scale(0.1 -0.1)">
       <use xlink:href="#DejaVuSans-49"/>
       <use x="63.623047" xlink:href="#DejaVuSans-46"/>
       <use x="95.410156" xlink:href="#DejaVuSans-48"/>
      </g>
     </g>
    </g>
   </g>
   <g id="matplotlib.axis_2">
    <g id="ytick_1">
     <g id="line2d_7">
      <defs>
       <path d="M 0 0 
L -3.5 0 
" id="mcef3a20f8a" style="stroke:#000000;stroke-width:0.8;"/>
      </defs>
      <g>
       <use style="stroke:#000000;stroke-width:0.8;" x="57.6" xlink:href="#mcef3a20f8a" y="307.584"/>
      </g>
     </g>
     <g id="text_7">
      <!-- 0.0 -->
      <g transform="translate(34.696875 311.383219)scale(0.1 -0.1)">
       <use xlink:href="#DejaVuSans-48"/>
       <use x="63.623047" xlink:href="#DejaVuSans-46"/>
       <use x="95.410156" xlink:href="#DejaVuSans-48"/>
      </g>
     </g>
    </g>
    <g id="ytick_2">
     <g id="line2d_8">
      <g>
       <use style="stroke:#000000;stroke-width:0.8;" x="57.6" xlink:href="#mcef3a20f8a" y="254.3616"/>
      </g>
     </g>
     <g id="text_8">
      <!-- 0.2 -->
      <g transform="translate(34.696875 258.160819)scale(0.1 -0.1)">
       <use xlink:href="#DejaVuSans-48"/>
       <use x="63.623047" xlink:href="#DejaVuSans-46"/>
       <use x="95.410156" xlink:href="#DejaVuSans-50"/>
      </g>
     </g>
    </g>
    <g id="ytick_3">
     <g id="line2d_9">
      <g>
       <use style="stroke:#000000;stroke-width:0.8;" x="57.6" xlink:href="#mcef3a20f8a" y="201.1392"/>
      </g>
     </g>
     <g id="text_9">
      <!-- 0.4 -->
      <g transform="translate(34.696875 204.938419)scale(0.1 -0.1)">
       <use xlink:href="#DejaVuSans-48"/>
       <use x="63.623047" xlink:href="#DejaVuSans-46"/>
       <use x="95.410156" xlink:href="#DejaVuSans-52"/>
      </g>
     </g>
    </g>
    <g id="ytick_4">
     <g id="line2d_10">
      <g>
       <use style="stroke:#000000;stroke-width:0.8;" x="57.6" xlink:href="#mcef3a20f8a" y="147.9168"/>
      </g>
     </g>
     <g id="text_10">
      <!-- 0.6 -->
      <g transform="translate(34.696875 151.716019)scale(0.1 -0.1)">
       <use xlink:href="#DejaVuSans-48"/>
       <use x="63.623047" xlink:href="#DejaVuSans-46"/>
       <use x="95.410156" xlink:href="#DejaVuSans-54"/>
      </g>
     </g>
    </g>
    <g id="ytick_5">
     <g id="line2d_11">
      <g>
       <use style="stroke:#000000;stroke-width:0.8;" x="57.6" xlink:href="#mcef3a20f8a" y="94.6944"/>
      </g>
     </g>
     <g id="text_11">
      <!-- 0.8 -->
      <g transform="translate(34.696875 98.493619)scale(0.1 -0.1)">
       <use xlink:href="#DejaVuSans-48"/>
       <use x="63.623047" xlink:href="#DejaVuSans-46"/>
       <use x="95.410156" xlink:href="#DejaVuSans-56"/>
      </g>
     </g>
    </g>
    <g id="ytick_6">
     <g id="line2d_12">
      <g>
       <use style="stroke:#000000;stroke-width:0.8;" x="57.6" xlink:href="#mcef3a20f8a" y="41.472"/>
      </g>
     </g>
     <g id="text_12">
      <!-- 1.0 -->
      <g transform="translate(34.696875 45.271219)scale(0.1 -0.1)">
       <use xlink:href="#DejaVuSans-49"/>
       <use x="63.623047" xlink:href="#DejaVuSans-46"/>
       <use x="95.410156" xlink:href="#DejaVuSans-48"/>
      </g>
     </g>
    </g>
   </g>
   <g id="patch_3">
    <path d="M 57.6 307.584 
L 57.6 41.472 
" style="fill:none;stroke:#000000;stroke-linecap:square;stroke-linejoin:miter;stroke-width:0.8;"/>
   </g>
   <g id="patch_4">
    <path d="M 414.72 307.584 
L 414.72 41.472 
" style="fill:none;stroke:#000000;stroke-linecap:square;stroke-linejoin:miter;stroke-width:0.8;"/>
   </g>
   <g id="patch_5">
    <path d="M 57.6 307.584 
L 414.72 307.584 
" style="fill:none;stroke:#000000;stroke-linecap:square;stroke-linejoin:miter;stroke-width:0.8;"/>
   </g>
   <g id="patch_6">
    <path d="M 57.6 41.472 
L 414.72 41.472 
" style="fill:none;stroke:#000000;stroke-linecap:square;stroke-linejoin:miter;stroke-width:0.8;"/>
   </g>
  </g>
 </g>
 <defs>
  <clipPath id="p51a944f43e">
   <rect height="266.112" width="357.12" x="57.6" y="41.472"/>
  </clipPath>
 </defs>
</svg>
