<?xml version="1.0" encoding="utf-8" standalone="no"?>
<!DOCTYPE svg PUBLIC "-//W3C//DTD SVG 1.1//EN"
  "http://www.w3.org/Graphics/SVG/1.1/DTD/svg11.dtd">
<!-- Created with matplotlib (https://matplotlib.org/) -->
<svg height="345.6pt" version="1.1" viewBox="0 0 460.8 345.6" width="460.8pt" xmlns="http://www.w3.org/2000/svg" xmlns:xlink="http://www.w3.org/1999/xlink">
 <defs>
  <style type="text/css">
*{stroke-linecap:butt;stroke-linejoin:round;}
  </style>
 </defs>
 <g id="figure_1">
  <g id="patch_1">
   <path d="M 0 345.6 
L 460.8 345.6 
L 460.8 0 
L 0 0 
z
" style="fill:#ffffff;"/>
  </g>
  <g id="axes_1">
   <g id="patch_2">
    <path d="M 57.6 307.584 
L 414.72 307.584 
L 414.72 41.472 
L 57.6 41.472 
z
" style="fill:#ffffff;"/>
   </g>
   <g id="matplotlib.axis_1">
    <g id="xtick_1">
     <g id="line2d_1">
      <defs>
       <path d="M 0 0 
L 0 3.5 
" id="m76bc89b9e0" style="stroke:#000000;stroke-width:0.8;"/>
      </defs>
      <g>
       <use style="stroke:#000000;stroke-width:0.8;" x="73.832727" xlink:href="#m76bc89b9e0" y="307.584"/>
      </g>
     </g>
     <g id="text_1">
      <!-- 0 -->
      <defs>
       <path d="M 31.78125 66.40625 
Q 24.171875 66.40625 20.328125 58.90625 
Q 16.5 51.421875 16.5 36.375 
Q 16.5 21.390625 20.328125 13.890625 
Q 24.171875 6.390625 31.78125 6.390625 
Q 39.453125 6.390625 43.28125 13.890625 
Q 47.125 21.390625 47.125 36.375 
Q 47.125 51.421875 43.28125 58.90625 
Q 39.453125 66.40625 31.78125 66.40625 
z
M 31.78125 74.21875 
Q 44.046875 74.21875 50.515625 64.515625 
Q 56.984375 54.828125 56.984375 36.375 
Q 56.984375 17.96875 50.515625 8.265625 
Q 44.046875 -1.421875 31.78125 -1.421875 
Q 19.53125 -1.421875 13.0625 8.265625 
Q 6.59375 17.96875 6.59375 36.375 
Q 6.59375 54.828125 13.0625 64.515625 
Q 19.53125 74.21875 31.78125 74.21875 
z
" id="DejaVuSans-48"/>
      </defs>
      <g transform="translate(70.651477 322.182437)scale(0.1 -0.1)">
       <use xlink:href="#DejaVuSans-48"/>
      </g>
     </g>
    </g>
    <g id="xtick_2">
     <g id="line2d_2">
      <g>
       <use style="stroke:#000000;stroke-width:0.8;" x="138.776625" xlink:href="#m76bc89b9e0" y="307.584"/>
      </g>
     </g>
     <g id="text_2">
      <!-- 1000 -->
      <defs>
       <path d="M 12.40625 8.296875 
L 28.515625 8.296875 
L 28.515625 63.921875 
L 10.984375 60.40625 
L 10.984375 69.390625 
L 28.421875 72.90625 
L 38.28125 72.90625 
L 38.28125 8.296875 
L 54.390625 8.296875 
L 54.390625 0 
L 12.40625 0 
z
" id="DejaVuSans-49"/>
      </defs>
      <g transform="translate(126.051625 322.182437)scale(0.1 -0.1)">
       <use xlink:href="#DejaVuSans-49"/>
       <use x="63.623047" xlink:href="#DejaVuSans-48"/>
       <use x="127.246094" xlink:href="#DejaVuSans-48"/>
       <use x="190.869141" xlink:href="#DejaVuSans-48"/>
      </g>
     </g>
    </g>
    <g id="xtick_3">
     <g id="line2d_3">
      <g>
       <use style="stroke:#000000;stroke-width:0.8;" x="203.720523" xlink:href="#m76bc89b9e0" y="307.584"/>
      </g>
     </g>
     <g id="text_3">
      <!-- 2000 -->
      <defs>
       <path d="M 19.1875 8.296875 
L 53.609375 8.296875 
L 53.609375 0 
L 7.328125 0 
L 7.328125 8.296875 
Q 12.9375 14.109375 22.625 23.890625 
Q 32.328125 33.6875 34.8125 36.53125 
Q 39.546875 41.84375 41.421875 45.53125 
Q 43.3125 49.21875 43.3125 52.78125 
Q 43.3125 58.59375 39.234375 62.25 
Q 35.15625 65.921875 28.609375 65.921875 
Q 23.96875 65.921875 18.8125 64.3125 
Q 13.671875 62.703125 7.8125 59.421875 
L 7.8125 69.390625 
Q 13.765625 71.78125 18.9375 73 
Q 24.125 74.21875 28.421875 74.21875 
Q 39.75 74.21875 46.484375 68.546875 
Q 53.21875 62.890625 53.21875 53.421875 
Q 53.21875 48.921875 51.53125 44.890625 
Q 49.859375 40.875 45.40625 35.40625 
Q 44.1875 33.984375 37.640625 27.21875 
Q 31.109375 20.453125 19.1875 8.296875 
z
" id="DejaVuSans-50"/>
      </defs>
      <g transform="translate(190.995523 322.182437)scale(0.1 -0.1)">
       <use xlink:href="#DejaVuSans-50"/>
       <use x="63.623047" xlink:href="#DejaVuSans-48"/>
       <use x="127.246094" xlink:href="#DejaVuSans-48"/>
       <use x="190.869141" xlink:href="#DejaVuSans-48"/>
      </g>
     </g>
    </g>
    <g id="xtick_4">
     <g id="line2d_4">
      <g>
       <use style="stroke:#000000;stroke-width:0.8;" x="268.664421" xlink:href="#m76bc89b9e0" y="307.584"/>
      </g>
     </g>
     <g id="text_4">
      <!-- 3000 -->
      <defs>
       <path d="M 40.578125 39.3125 
Q 47.65625 37.796875 51.625 33 
Q 55.609375 28.21875 55.609375 21.1875 
Q 55.609375 10.40625 48.1875 4.484375 
Q 40.765625 -1.421875 27.09375 -1.421875 
Q 22.515625 -1.421875 17.65625 -0.515625 
Q 12.796875 0.390625 7.625 2.203125 
L 7.625 11.71875 
Q 11.71875 9.328125 16.59375 8.109375 
Q 21.484375 6.890625 26.8125 6.890625 
Q 36.078125 6.890625 40.9375 10.546875 
Q 45.796875 14.203125 45.796875 21.1875 
Q 45.796875 27.640625 41.28125 31.265625 
Q 36.765625 34.90625 28.71875 34.90625 
L 20.21875 34.90625 
L 20.21875 43.015625 
L 29.109375 43.015625 
Q 36.375 43.015625 40.234375 45.921875 
Q 44.09375 48.828125 44.09375 54.296875 
Q 44.09375 59.90625 40.109375 62.90625 
Q 36.140625 65.921875 28.71875 65.921875 
Q 24.65625 65.921875 20.015625 65.03125 
Q 15.375 64.15625 9.8125 62.3125 
L 9.8125 71.09375 
Q 15.4375 72.65625 20.34375 73.4375 
Q 25.25 74.21875 29.59375 74.21875 
Q 40.828125 74.21875 47.359375 69.109375 
Q 53.90625 64.015625 53.90625 55.328125 
Q 53.90625 49.265625 50.4375 45.09375 
Q 46.96875 40.921875 40.578125 39.3125 
z
" id="DejaVuSans-51"/>
      </defs>
      <g transform="translate(255.939421 322.182437)scale(0.1 -0.1)">
       <use xlink:href="#DejaVuSans-51"/>
       <use x="63.623047" xlink:href="#DejaVuSans-48"/>
       <use x="127.246094" xlink:href="#DejaVuSans-48"/>
       <use x="190.869141" xlink:href="#DejaVuSans-48"/>
      </g>
     </g>
    </g>
    <g id="xtick_5">
     <g id="line2d_5">
      <g>
       <use style="stroke:#000000;stroke-width:0.8;" x="333.608319" xlink:href="#m76bc89b9e0" y="307.584"/>
      </g>
     </g>
     <g id="text_5">
      <!-- 4000 -->
      <defs>
       <path d="M 37.796875 64.3125 
L 12.890625 25.390625 
L 37.796875 25.390625 
z
M 35.203125 72.90625 
L 47.609375 72.90625 
L 47.609375 25.390625 
L 58.015625 25.390625 
L 58.015625 17.1875 
L 47.609375 17.1875 
L 47.609375 0 
L 37.796875 0 
L 37.796875 17.1875 
L 4.890625 17.1875 
L 4.890625 26.703125 
z
" id="DejaVuSans-52"/>
      </defs>
      <g transform="translate(320.883319 322.182437)scale(0.1 -0.1)">
       <use xlink:href="#DejaVuSans-52"/>
       <use x="63.623047" xlink:href="#DejaVuSans-48"/>
       <use x="127.246094" xlink:href="#DejaVuSans-48"/>
       <use x="190.869141" xlink:href="#DejaVuSans-48"/>
      </g>
     </g>
    </g>
    <g id="xtick_6">
     <g id="line2d_6">
      <g>
       <use style="stroke:#000000;stroke-width:0.8;" x="398.552217" xlink:href="#m76bc89b9e0" y="307.584"/>
      </g>
     </g>
     <g id="text_6">
      <!-- 5000 -->
      <defs>
       <path d="M 10.796875 72.90625 
L 49.515625 72.90625 
L 49.515625 64.59375 
L 19.828125 64.59375 
L 19.828125 46.734375 
Q 21.96875 47.46875 24.109375 47.828125 
Q 26.265625 48.1875 28.421875 48.1875 
Q 40.625 48.1875 47.75 41.5 
Q 54.890625 34.8125 54.890625 23.390625 
Q 54.890625 11.625 47.5625 5.09375 
Q 40.234375 -1.421875 26.90625 -1.421875 
Q 22.3125 -1.421875 17.546875 -0.640625 
Q 12.796875 0.140625 7.71875 1.703125 
L 7.71875 11.625 
Q 12.109375 9.234375 16.796875 8.0625 
Q 21.484375 6.890625 26.703125 6.890625 
Q 35.15625 6.890625 40.078125 11.328125 
Q 45.015625 15.765625 45.015625 23.390625 
Q 45.015625 31 40.078125 35.4375 
Q 35.15625 39.890625 26.703125 39.890625 
Q 22.75 39.890625 18.8125 39.015625 
Q 14.890625 38.140625 10.796875 36.28125 
z
" id="DejaVuSans-53"/>
      </defs>
      <g transform="translate(385.827217 322.182437)scale(0.1 -0.1)">
       <use xlink:href="#DejaVuSans-53"/>
       <use x="63.623047" xlink:href="#DejaVuSans-48"/>
       <use x="127.246094" xlink:href="#DejaVuSans-48"/>
       <use x="190.869141" xlink:href="#DejaVuSans-48"/>
      </g>
     </g>
    </g>
   </g>
   <g id="matplotlib.axis_2">
    <g id="ytick_1">
     <g id="line2d_7">
      <defs>
       <path d="M 0 0 
L -3.5 0 
" id="me63f8710a4" style="stroke:#000000;stroke-width:0.8;"/>
      </defs>
      <g>
       <use style="stroke:#000000;stroke-width:0.8;" x="57.6" xlink:href="#me63f8710a4" y="295.489979"/>
      </g>
     </g>
     <g id="text_7">
      <!-- 0 -->
      <g transform="translate(44.2375 299.289198)scale(0.1 -0.1)">
       <use xlink:href="#DejaVuSans-48"/>
      </g>
     </g>
    </g>
    <g id="ytick_2">
     <g id="line2d_8">
      <g>
       <use style="stroke:#000000;stroke-width:0.8;" x="57.6" xlink:href="#me63f8710a4" y="238.636307"/>
      </g>
     </g>
     <g id="text_8">
      <!-- 2000 -->
      <g transform="translate(25.15 242.435526)scale(0.1 -0.1)">
       <use xlink:href="#DejaVuSans-50"/>
       <use x="63.623047" xlink:href="#DejaVuSans-48"/>
       <use x="127.246094" xlink:href="#DejaVuSans-48"/>
       <use x="190.869141" xlink:href="#DejaVuSans-48"/>
      </g>
     </g>
    </g>
    <g id="ytick_3">
     <g id="line2d_9">
      <g>
       <use style="stroke:#000000;stroke-width:0.8;" x="57.6" xlink:href="#me63f8710a4" y="181.782635"/>
      </g>
     </g>
     <g id="text_9">
      <!-- 4000 -->
      <g transform="translate(25.15 185.581854)scale(0.1 -0.1)">
       <use xlink:href="#DejaVuSans-52"/>
       <use x="63.623047" xlink:href="#DejaVuSans-48"/>
       <use x="127.246094" xlink:href="#DejaVuSans-48"/>
       <use x="190.869141" xlink:href="#DejaVuSans-48"/>
      </g>
     </g>
    </g>
    <g id="ytick_4">
     <g id="line2d_10">
      <g>
       <use style="stroke:#000000;stroke-width:0.8;" x="57.6" xlink:href="#me63f8710a4" y="124.928963"/>
      </g>
     </g>
     <g id="text_10">
      <!-- 6000 -->
      <defs>
       <path d="M 33.015625 40.375 
Q 26.375 40.375 22.484375 35.828125 
Q 18.609375 31.296875 18.609375 23.390625 
Q 18.609375 15.53125 22.484375 10.953125 
Q 26.375 6.390625 33.015625 6.390625 
Q 39.65625 6.390625 43.53125 10.953125 
Q 47.40625 15.53125 47.40625 23.390625 
Q 47.40625 31.296875 43.53125 35.828125 
Q 39.65625 40.375 33.015625 40.375 
z
M 52.59375 71.296875 
L 52.59375 62.3125 
Q 48.875 64.0625 45.09375 64.984375 
Q 41.3125 65.921875 37.59375 65.921875 
Q 27.828125 65.921875 22.671875 59.328125 
Q 17.53125 52.734375 16.796875 39.40625 
Q 19.671875 43.65625 24.015625 45.921875 
Q 28.375 48.1875 33.59375 48.1875 
Q 44.578125 48.1875 50.953125 41.515625 
Q 57.328125 34.859375 57.328125 23.390625 
Q 57.328125 12.15625 50.6875 5.359375 
Q 44.046875 -1.421875 33.015625 -1.421875 
Q 20.359375 -1.421875 13.671875 8.265625 
Q 6.984375 17.96875 6.984375 36.375 
Q 6.984375 53.65625 15.1875 63.9375 
Q 23.390625 74.21875 37.203125 74.21875 
Q 40.921875 74.21875 44.703125 73.484375 
Q 48.484375 72.75 52.59375 71.296875 
z
" id="DejaVuSans-54"/>
      </defs>
      <g transform="translate(25.15 128.728182)scale(0.1 -0.1)">
       <use xlink:href="#DejaVuSans-54"/>
       <use x="63.623047" xlink:href="#DejaVuSans-48"/>
       <use x="127.246094" xlink:href="#DejaVuSans-48"/>
       <use x="190.869141" xlink:href="#DejaVuSans-48"/>
      </g>
     </g>
    </g>
    <g id="ytick_5">
     <g id="line2d_11">
      <g>
       <use style="stroke:#000000;stroke-width:0.8;" x="57.6" xlink:href="#me63f8710a4" y="68.075292"/>
      </g>
     </g>
     <g id="text_11">
      <!-- 8000 -->
      <defs>
       <path d="M 31.78125 34.625 
Q 24.75 34.625 20.71875 30.859375 
Q 16.703125 27.09375 16.703125 20.515625 
Q 16.703125 13.921875 20.71875 10.15625 
Q 24.75 6.390625 31.78125 6.390625 
Q 38.8125 6.390625 42.859375 10.171875 
Q 46.921875 13.96875 46.921875 20.515625 
Q 46.921875 27.09375 42.890625 30.859375 
Q 38.875 34.625 31.78125 34.625 
z
M 21.921875 38.8125 
Q 15.578125 40.375 12.03125 44.71875 
Q 8.5 49.078125 8.5 55.328125 
Q 8.5 64.0625 14.71875 69.140625 
Q 20.953125 74.21875 31.78125 74.21875 
Q 42.671875 74.21875 48.875 69.140625 
Q 55.078125 64.0625 55.078125 55.328125 
Q 55.078125 49.078125 51.53125 44.71875 
Q 48 40.375 41.703125 38.8125 
Q 48.828125 37.15625 52.796875 32.3125 
Q 56.78125 27.484375 56.78125 20.515625 
Q 56.78125 9.90625 50.3125 4.234375 
Q 43.84375 -1.421875 31.78125 -1.421875 
Q 19.734375 -1.421875 13.25 4.234375 
Q 6.78125 9.90625 6.78125 20.515625 
Q 6.78125 27.484375 10.78125 32.3125 
Q 14.796875 37.15625 21.921875 38.8125 
z
M 18.3125 54.390625 
Q 18.3125 48.734375 21.84375 45.5625 
Q 25.390625 42.390625 31.78125 42.390625 
Q 38.140625 42.390625 41.71875 45.5625 
Q 45.3125 48.734375 45.3125 54.390625 
Q 45.3125 60.0625 41.71875 63.234375 
Q 38.140625 66.40625 31.78125 66.40625 
Q 25.390625 66.40625 21.84375 63.234375 
Q 18.3125 60.0625 18.3125 54.390625 
z
" id="DejaVuSans-56"/>
      </defs>
      <g transform="translate(25.15 71.87451)scale(0.1 -0.1)">
       <use xlink:href="#DejaVuSans-56"/>
       <use x="63.623047" xlink:href="#DejaVuSans-48"/>
       <use x="127.246094" xlink:href="#DejaVuSans-48"/>
       <use x="190.869141" xlink:href="#DejaVuSans-48"/>
      </g>
     </g>
    </g>
   </g>
   <g id="line2d_12">
    <path clip-path="url(#pa35eed80ac)" d="M 73.832727 53.568 
L 74.287335 90.474694 
L 75.001717 139.08947 
L 76.300595 208.995203 
L 76.88509 229.563469 
L 77.469586 243.463054 
L 78.054081 252.354879 
L 78.573632 257.234183 
L 79.093183 260.254923 
L 79.612734 262.121552 
L 80.197229 263.477483 
L 80.911612 264.559736 
L 81.950715 265.743777 
L 84.028919 267.745677 
L 84.353639 267.909841 
L 84.483527 267.010893 
L 84.613414 267.103124 
L 84.678358 267.307247 
L 84.743302 268.373906 
L 84.808246 267.288589 
L 84.87319 267.851745 
L 84.938134 267.854716 
L 85.003078 267.656659 
L 85.132966 268.579794 
L 85.197909 267.828666 
L 85.262853 268.108614 
L 85.327797 268.773589 
L 85.392741 268.750003 
L 85.457685 268.294612 
L 85.652517 268.983575 
L 85.782404 268.903094 
L 85.977236 269.204664 
L 87.730721 270.476168 
L 90.588253 272.710659 
L 91.04286 273.075579 
L 91.107804 272.914125 
L 91.237692 271.444443 
L 91.302636 272.550978 
L 91.432524 269.258192 
L 91.497467 269.256422 
L 91.562411 269.522677 
L 91.627355 270.305258 
L 91.692299 273.1989 
L 91.757243 272.804184 
L 91.822187 272.467351 
L 91.887131 273.286028 
L 91.952075 273.257522 
L 92.017019 272.401286 
L 92.146906 273.327404 
L 92.276794 273.337719 
L 92.341738 273.200397 
L 92.406682 273.241858 
L 92.601514 273.492119 
L 95.523989 275.093999 
L 97.732082 276.462986 
L 99.160847 277.508477 
L 105.265574 280.087706 
L 109.227152 281.377034 
L 113.773224 282.616824 
L 119.163568 283.849508 
L 125.787846 285.126773 
L 134.230552 286.516942 
L 153.129227 289.298291 
L 167.871491 291.096091 
L 176.249254 291.939522 
L 185.796007 292.665796 
L 197.875572 293.350346 
L 212.877613 293.972917 
L 230.867072 294.492696 
L 252.103727 294.877279 
L 279.185332 295.133929 
L 325.879995 295.300864 
L 350.363844 295.343274 
L 368.483192 295.296112 
L 368.678024 263.774136 
L 368.742968 260.056931 
L 368.807911 260.288028 
L 369.197575 268.228002 
L 369.327463 267.546613 
L 369.587238 265.981862 
L 369.717126 266.700491 
L 370.106789 269.388221 
L 370.236677 269.404539 
L 370.496453 269.182607 
L 370.691284 269.636102 
L 370.95106 270.206703 
L 371.27578 270.286102 
L 371.535555 270.51123 
L 371.990162 270.882222 
L 373.483872 271.643032 
L 375.691965 272.779807 
L 376.471291 272.891766 
L 376.536235 272.537098 
L 376.601179 272.742303 
L 376.731067 270.135443 
L 376.990843 272.187537 
L 377.185674 272.803761 
L 377.250618 272.854613 
L 377.44545 272.487216 
L 377.640282 272.733905 
L 377.705225 271.756962 
L 377.770169 272.972492 
L 377.835113 272.961873 
L 378.224777 273.17293 
L 379.78343 273.963092 
L 380.173094 274.479943 
L 380.367925 275.183152 
L 380.627701 276.874729 
L 380.692645 274.170864 
L 380.822533 277.107122 
L 380.887476 276.120963 
L 380.95242 277.02905 
L 381.017364 276.571387 
L 381.212196 276.158716 
L 381.342084 276.238193 
L 381.601859 276.768198 
L 381.861635 277.923324 
L 382.056467 278.783267 
L 383.61512 281.096605 
L 386.082988 284.566429 
L 386.342764 285.433776 
L 386.667483 286.636191 
L 388.096249 288.53665 
L 389.395127 289.851477 
L 390.953781 291.114448 
L 392.512434 292.007631 
L 394.330863 292.789862 
L 396.474012 293.466547 
L 398.487273 293.935837 
L 398.487273 293.935837 
" style="fill:none;stroke:#1f77b4;stroke-linecap:square;stroke-width:1.5;"/>
   </g>
   <g id="line2d_13">
    <path clip-path="url(#pa35eed80ac)" d="M 73.832727 186.782712 
L 74.222391 194.061835 
L 74.54711 200.598793 
L 76.560371 256.643594 
L 77.274754 268.649749 
L 77.989137 277.013879 
L 78.638576 282.142098 
L 79.288015 285.529125 
L 79.87251 287.524923 
L 80.521949 288.963614 
L 81.171388 289.887023 
L 81.885771 290.533923 
L 82.794985 291.049124 
L 84.54847 291.715805 
L 85.327797 291.922281 
L 86.691619 292.18602 
L 90.133646 293.056079 
L 90.653197 293.362692 
L 91.107804 293.901106 
L 91.172748 293.803876 
L 92.276794 293.072954 
L 92.926233 293.163119 
L 95.848709 293.771456 
L 97.732082 294.175327 
L 98.251633 294.503688 
L 98.70624 294.94267 
L 99.355679 294.609983 
L 100.070062 294.785688 
L 100.459725 294.726211 
L 101.239052 294.819411 
L 101.823547 294.881733 
L 103.252313 294.946824 
L 119.228512 295.151508 
L 143.842249 295.136465 
L 146.375061 295.158713 
L 147.34922 295.161415 
L 153.389002 295.173307 
L 368.548136 295.457195 
L 368.678024 293.364141 
L 368.807911 294.177267 
L 368.872855 294.1011 
L 369.197575 291.359654 
L 369.522294 289.116282 
L 369.587238 289.135673 
L 369.717126 289.722433 
L 370.301621 293.380401 
L 370.691284 293.402903 
L 370.886116 293.348311 
L 371.340723 293.051163 
L 371.600499 293.315047 
L 372.12005 293.858604 
L 372.574657 293.989278 
L 373.224096 294.115209 
L 375.756908 295.210833 
L 376.666123 295.237995 
L 377.12073 295.160552 
L 377.315562 295.161689 
L 377.510394 295.220459 
L 377.770169 295.212281 
L 378.029945 295.204995 
L 378.809272 295.322914 
L 381.601859 295.398803 
L 382.511074 295.415775 
L 384.654222 295.422268 
L 398.487273 295.475588 
L 398.487273 295.475588 
" style="fill:none;stroke:#ff7f0e;stroke-linecap:square;stroke-width:1.5;"/>
   </g>
   <g id="line2d_14">
    <path clip-path="url(#pa35eed80ac)" d="M 73.832727 278.312642 
L 74.157447 283.98519 
L 74.612054 288.983811 
L 75.196549 292.763707 
L 75.651156 294.123382 
L 75.975876 294.480695 
L 76.235651 294.417383 
L 76.495427 294.005766 
L 76.88509 292.794417 
L 77.469586 290.092335 
L 79.612734 279.675225 
L 80.262173 277.99846 
L 80.846668 277.087078 
L 81.366219 276.673859 
L 81.820827 276.54409 
L 82.470266 276.612782 
L 83.37948 276.982728 
L 84.288695 277.478147 
L 84.353639 277.353301 
L 84.54847 277.616542 
L 84.743302 277.681229 
L 84.808246 276.522243 
L 84.87319 277.06922 
L 85.003078 277.784724 
L 85.132966 277.744931 
L 85.197909 276.972382 
L 85.262853 277.243922 
L 85.392741 277.944783 
L 85.717461 278.044407 
L 85.782404 277.95202 
L 85.977236 278.224161 
L 89.679038 279.976664 
L 90.912972 280.462231 
L 91.04286 280.433483 
L 91.107804 280.088049 
L 91.237692 280.811027 
L 91.302636 280.832116 
L 91.432524 276.636031 
L 91.497467 276.744424 
L 91.627355 278.029018 
L 91.757243 281.24281 
L 91.952075 281.336121 
L 92.017019 280.504534 
L 92.21185 281.512205 
L 92.861289 281.647312 
L 94.549831 281.848649 
L 95.848709 282.303418 
L 98.771184 283.56834 
L 99.160847 284.144924 
L 99.615455 284.404331 
L 99.940174 284.548772 
L 100.524669 284.957635 
L 102.083323 285.46911 
L 103.771864 285.999314 
L 109.162208 287.510857 
L 113.968056 288.583746 
L 119.3584 289.555857 
L 125.52807 290.438365 
L 132.606955 291.222566 
L 141.309437 291.942279 
L 143.972137 292.003515 
L 147.0245 291.937057 
L 150.85619 292.232576 
L 162.026541 292.852886 
L 172.222733 293.436277 
L 184.432185 294.078714 
L 197.226133 294.514004 
L 208.396484 294.762244 
L 212.877613 294.836606 
L 233.984379 295.092616 
L 234.244155 295.086354 
L 235.99764 295.096834 
L 238.595396 295.115359 
L 248.077205 295.177134 
L 254.052044 295.199444 
L 254.506651 295.217101 
L 255.221034 295.205524 
L 255.740585 295.218208 
L 257.883734 295.223741 
L 262.81947 295.243959 
L 308.215255 295.345196 
L 309.708964 295.343195 
L 311.917057 295.347544 
L 327.698424 295.365952 
L 342.115969 295.380294 
L 368.483192 295.416492 
L 368.548136 272.470213 
L 368.61308 295.268695 
L 368.678024 295.264193 
L 368.807911 295.322589 
L 368.937799 294.689466 
L 369.132631 291.192413 
L 369.522294 283.746267 
L 369.587238 283.694009 
L 369.717126 284.534163 
L 370.301621 290.318169 
L 370.431509 290.523626 
L 370.561397 290.331323 
L 370.821172 289.127207 
L 371.27578 286.999122 
L 371.470611 286.90552 
L 371.665443 287.253056 
L 372.12005 288.202314 
L 372.314882 288.218952 
L 372.574657 287.864563 
L 373.094209 287.091455 
L 373.418928 287.04585 
L 373.938479 287.07928 
L 374.263199 286.835498 
L 375.302301 285.843053 
L 376.471291 285.328598 
L 376.796011 290.698475 
L 376.990843 288.791645 
L 377.510394 283.107197 
L 377.640282 282.829521 
L 377.770169 286.146345 
L 377.965001 286.08504 
L 378.484552 285.388396 
L 378.744328 285.24424 
L 379.004103 285.37164 
L 380.238037 286.152107 
L 380.367925 286.538327 
L 380.562757 287.758571 
L 380.627701 287.701246 
L 380.887476 287.282439 
L 381.212196 285.697213 
L 381.27714 285.720752 
L 381.471971 286.166894 
L 381.796691 287.69351 
L 382.056467 288.775055 
L 382.316242 288.517713 
L 382.705906 288.119438 
L 382.900737 288.12681 
L 383.225457 288.464713 
L 383.809952 289.001942 
L 384.199615 289.077044 
L 384.654222 289.181183 
L 385.888157 290.112554 
L 386.212876 290.563526 
L 386.407708 291.168046 
L 386.537596 291.649794 
L 386.602539 291.629687 
L 387.122091 291.534337 
L 387.511754 291.74816 
L 388.356025 292.374086 
L 389.914678 293.041928 
L 390.564117 293.349626 
L 392.707266 293.862937 
L 397.44817 294.63242 
L 398.487273 294.7455 
L 398.487273 294.7455 
" style="fill:none;stroke:#2ca02c;stroke-linecap:square;stroke-width:1.5;"/>
   </g>
   <g id="line2d_15">
    <path clip-path="url(#pa35eed80ac)" d="M 73.832727 179.452607 
L 74.352278 203.799727 
L 76.105764 250.799738 
L 76.950034 266.13941 
L 77.599473 274.539202 
L 78.508688 282.02246 
L 79.158127 285.188171 
L 79.742622 287.031044 
L 80.392061 288.316548 
L 80.976556 289.021228 
L 81.561051 289.434636 
L 82.340378 289.718134 
L 83.37948 289.847236 
L 84.353639 289.882332 
L 84.483527 288.711236 
L 84.613414 288.698991 
L 84.678358 288.852053 
L 84.808246 289.914054 
L 84.87319 289.913345 
L 85.003078 288.986668 
L 85.197909 289.927361 
L 85.392741 289.855418 
L 85.457685 289.360067 
L 85.587573 289.914615 
L 86.237012 289.903327 
L 86.951395 289.932565 
L 90.783085 289.943654 
L 91.107804 289.904929 
L 91.237692 287.860457 
L 91.36758 289.931702 
L 91.432524 289.92274 
L 91.692299 289.827758 
L 91.822187 288.95635 
L 91.952075 289.758405 
L 92.276794 289.707463 
L 92.406682 289.570578 
L 92.601514 289.758597 
L 95.394101 290.17937 
L 97.732082 290.115373 
L 98.446465 289.967716 
L 98.901072 289.811407 
L 100.979277 289.437808 
L 108.058161 289.663947 
L 119.293456 290.16015 
L 134.425384 291.06955 
L 143.647417 291.775529 
L 147.998659 292.388927 
L 152.155068 292.663122 
L 169.560033 293.73041 
L 182.873532 294.119209 
L 214.371322 294.811196 
L 237.556294 295.143936 
L 283.666461 295.423973 
L 319.515493 295.473695 
L 368.548136 295.48798 
L 368.807911 261.768128 
L 369.002743 269.551054 
L 369.327463 281.910749 
L 369.522294 284.131746 
L 369.587238 284.132137 
L 369.717126 283.423855 
L 370.041845 279.314383 
L 370.366565 276.302799 
L 370.431509 276.214409 
L 370.496453 276.303066 
L 370.691284 277.384642 
L 371.27578 281.23144 
L 371.470611 281.357928 
L 371.665443 280.983129 
L 372.184994 279.812231 
L 372.314882 279.848909 
L 372.574657 280.317589 
L 373.029265 281.208513 
L 373.28904 281.347167 
L 374.068367 281.416964 
L 374.522974 281.963899 
L 375.172413 282.647841 
L 376.016684 283.028363 
L 376.471291 283.271172 
L 376.731067 275.367784 
L 376.796011 276.016096 
L 377.510394 285.325061 
L 377.640282 285.624153 
L 377.705225 281.426244 
L 377.770169 282.593824 
L 377.965001 282.723047 
L 378.809272 283.791498 
L 379.848374 283.807172 
L 379.978262 283.885889 
L 380.497813 284.418024 
L 380.627701 284.759916 
L 380.692645 282.123243 
L 380.822533 285.299178 
L 380.887476 284.408781 
L 381.017364 285.801369 
L 381.212196 286.023683 
L 381.407028 285.924488 
L 381.926579 285.453253 
L 382.12141 285.742961 
L 382.965681 287.546913 
L 383.355345 287.683784 
L 383.745008 287.881776 
L 384.394447 288.56031 
L 384.849054 288.91267 
L 385.758269 289.466998 
L 386.472652 290.242882 
L 387.44681 291.573769 
L 390.174454 292.867245 
L 390.888837 293.16147 
L 391.862995 293.541696 
L 396.668844 294.489493 
L 398.487273 294.694708 
L 398.487273 294.694708 
" style="fill:none;stroke:#d62728;stroke-linecap:square;stroke-width:1.5;"/>
   </g>
   <g id="patch_3">
    <path d="M 57.6 307.584 
L 57.6 41.472 
" style="fill:none;stroke:#000000;stroke-linecap:square;stroke-linejoin:miter;stroke-width:0.8;"/>
   </g>
   <g id="patch_4">
    <path d="M 414.72 307.584 
L 414.72 41.472 
" style="fill:none;stroke:#000000;stroke-linecap:square;stroke-linejoin:miter;stroke-width:0.8;"/>
   </g>
   <g id="patch_5">
    <path d="M 57.6 307.584 
L 414.72 307.584 
" style="fill:none;stroke:#000000;stroke-linecap:square;stroke-linejoin:miter;stroke-width:0.8;"/>
   </g>
   <g id="patch_6">
    <path d="M 57.6 41.472 
L 414.72 41.472 
" style="fill:none;stroke:#000000;stroke-linecap:square;stroke-linejoin:miter;stroke-width:0.8;"/>
   </g>
   <g id="legend_1">
    <g id="patch_7">
     <path d="M 302.034063 108.1845 
L 407.72 108.1845 
Q 409.72 108.1845 409.72 106.1845 
L 409.72 48.472 
Q 409.72 46.472 407.72 46.472 
L 302.034063 46.472 
Q 300.034063 46.472 300.034063 48.472 
L 300.034063 106.1845 
Q 300.034063 108.1845 302.034063 108.1845 
z
" style="fill:#ffffff;opacity:0.8;stroke:#cccccc;stroke-linejoin:miter;"/>
    </g>
    <g id="line2d_16">
     <path d="M 304.034063 54.570438 
L 324.034063 54.570438 
" style="fill:none;stroke:#1f77b4;stroke-linecap:square;stroke-width:1.5;"/>
    </g>
    <g id="line2d_17"/>
    <g id="text_12">
     <!-- total loss -->
     <defs>
      <path d="M 18.3125 70.21875 
L 18.3125 54.6875 
L 36.8125 54.6875 
L 36.8125 47.703125 
L 18.3125 47.703125 
L 18.3125 18.015625 
Q 18.3125 11.328125 20.140625 9.421875 
Q 21.96875 7.515625 27.59375 7.515625 
L 36.8125 7.515625 
L 36.8125 0 
L 27.59375 0 
Q 17.1875 0 13.234375 3.875 
Q 9.28125 7.765625 9.28125 18.015625 
L 9.28125 47.703125 
L 2.6875 47.703125 
L 2.6875 54.6875 
L 9.28125 54.6875 
L 9.28125 70.21875 
z
" id="DejaVuSans-116"/>
      <path d="M 30.609375 48.390625 
Q 23.390625 48.390625 19.1875 42.75 
Q 14.984375 37.109375 14.984375 27.296875 
Q 14.984375 17.484375 19.15625 11.84375 
Q 23.34375 6.203125 30.609375 6.203125 
Q 37.796875 6.203125 41.984375 11.859375 
Q 46.1875 17.53125 46.1875 27.296875 
Q 46.1875 37.015625 41.984375 42.703125 
Q 37.796875 48.390625 30.609375 48.390625 
z
M 30.609375 56 
Q 42.328125 56 49.015625 48.375 
Q 55.71875 40.765625 55.71875 27.296875 
Q 55.71875 13.875 49.015625 6.21875 
Q 42.328125 -1.421875 30.609375 -1.421875 
Q 18.84375 -1.421875 12.171875 6.21875 
Q 5.515625 13.875 5.515625 27.296875 
Q 5.515625 40.765625 12.171875 48.375 
Q 18.84375 56 30.609375 56 
z
" id="DejaVuSans-111"/>
      <path d="M 34.28125 27.484375 
Q 23.390625 27.484375 19.1875 25 
Q 14.984375 22.515625 14.984375 16.5 
Q 14.984375 11.71875 18.140625 8.90625 
Q 21.296875 6.109375 26.703125 6.109375 
Q 34.1875 6.109375 38.703125 11.40625 
Q 43.21875 16.703125 43.21875 25.484375 
L 43.21875 27.484375 
z
M 52.203125 31.203125 
L 52.203125 0 
L 43.21875 0 
L 43.21875 8.296875 
Q 40.140625 3.328125 35.546875 0.953125 
Q 30.953125 -1.421875 24.3125 -1.421875 
Q 15.921875 -1.421875 10.953125 3.296875 
Q 6 8.015625 6 15.921875 
Q 6 25.140625 12.171875 29.828125 
Q 18.359375 34.515625 30.609375 34.515625 
L 43.21875 34.515625 
L 43.21875 35.40625 
Q 43.21875 41.609375 39.140625 45 
Q 35.0625 48.390625 27.6875 48.390625 
Q 23 48.390625 18.546875 47.265625 
Q 14.109375 46.140625 10.015625 43.890625 
L 10.015625 52.203125 
Q 14.9375 54.109375 19.578125 55.046875 
Q 24.21875 56 28.609375 56 
Q 40.484375 56 46.34375 49.84375 
Q 52.203125 43.703125 52.203125 31.203125 
z
" id="DejaVuSans-97"/>
      <path d="M 9.421875 75.984375 
L 18.40625 75.984375 
L 18.40625 0 
L 9.421875 0 
z
" id="DejaVuSans-108"/>
      <path id="DejaVuSans-32"/>
      <path d="M 44.28125 53.078125 
L 44.28125 44.578125 
Q 40.484375 46.53125 36.375 47.5 
Q 32.28125 48.484375 27.875 48.484375 
Q 21.1875 48.484375 17.84375 46.4375 
Q 14.5 44.390625 14.5 40.28125 
Q 14.5 37.15625 16.890625 35.375 
Q 19.28125 33.59375 26.515625 31.984375 
L 29.59375 31.296875 
Q 39.15625 29.25 43.1875 25.515625 
Q 47.21875 21.78125 47.21875 15.09375 
Q 47.21875 7.46875 41.1875 3.015625 
Q 35.15625 -1.421875 24.609375 -1.421875 
Q 20.21875 -1.421875 15.453125 -0.5625 
Q 10.6875 0.296875 5.421875 2 
L 5.421875 11.28125 
Q 10.40625 8.6875 15.234375 7.390625 
Q 20.0625 6.109375 24.8125 6.109375 
Q 31.15625 6.109375 34.5625 8.28125 
Q 37.984375 10.453125 37.984375 14.40625 
Q 37.984375 18.0625 35.515625 20.015625 
Q 33.0625 21.96875 24.703125 23.78125 
L 21.578125 24.515625 
Q 13.234375 26.265625 9.515625 29.90625 
Q 5.8125 33.546875 5.8125 39.890625 
Q 5.8125 47.609375 11.28125 51.796875 
Q 16.75 56 26.8125 56 
Q 31.78125 56 36.171875 55.265625 
Q 40.578125 54.546875 44.28125 53.078125 
z
" id="DejaVuSans-115"/>
     </defs>
     <g transform="translate(332.034063 58.070438)scale(0.1 -0.1)">
      <use xlink:href="#DejaVuSans-116"/>
      <use x="39.208984" xlink:href="#DejaVuSans-111"/>
      <use x="100.390625" xlink:href="#DejaVuSans-116"/>
      <use x="139.599609" xlink:href="#DejaVuSans-97"/>
      <use x="200.878906" xlink:href="#DejaVuSans-108"/>
      <use x="228.662109" xlink:href="#DejaVuSans-32"/>
      <use x="260.449219" xlink:href="#DejaVuSans-108"/>
      <use x="288.232422" xlink:href="#DejaVuSans-111"/>
      <use x="349.414062" xlink:href="#DejaVuSans-115"/>
      <use x="401.513672" xlink:href="#DejaVuSans-115"/>
     </g>
    </g>
    <g id="line2d_18">
     <path d="M 304.034063 69.248563 
L 324.034063 69.248563 
" style="fill:none;stroke:#ff7f0e;stroke-linecap:square;stroke-width:1.5;"/>
    </g>
    <g id="line2d_19"/>
    <g id="text_13">
     <!-- bc initial loss -->
     <defs>
      <path d="M 48.6875 27.296875 
Q 48.6875 37.203125 44.609375 42.84375 
Q 40.53125 48.484375 33.40625 48.484375 
Q 26.265625 48.484375 22.1875 42.84375 
Q 18.109375 37.203125 18.109375 27.296875 
Q 18.109375 17.390625 22.1875 11.75 
Q 26.265625 6.109375 33.40625 6.109375 
Q 40.53125 6.109375 44.609375 11.75 
Q 48.6875 17.390625 48.6875 27.296875 
z
M 18.109375 46.390625 
Q 20.953125 51.265625 25.265625 53.625 
Q 29.59375 56 35.59375 56 
Q 45.5625 56 51.78125 48.09375 
Q 58.015625 40.1875 58.015625 27.296875 
Q 58.015625 14.40625 51.78125 6.484375 
Q 45.5625 -1.421875 35.59375 -1.421875 
Q 29.59375 -1.421875 25.265625 0.953125 
Q 20.953125 3.328125 18.109375 8.203125 
L 18.109375 0 
L 9.078125 0 
L 9.078125 75.984375 
L 18.109375 75.984375 
z
" id="DejaVuSans-98"/>
      <path d="M 48.78125 52.59375 
L 48.78125 44.1875 
Q 44.96875 46.296875 41.140625 47.34375 
Q 37.3125 48.390625 33.40625 48.390625 
Q 24.65625 48.390625 19.8125 42.84375 
Q 14.984375 37.3125 14.984375 27.296875 
Q 14.984375 17.28125 19.8125 11.734375 
Q 24.65625 6.203125 33.40625 6.203125 
Q 37.3125 6.203125 41.140625 7.25 
Q 44.96875 8.296875 48.78125 10.40625 
L 48.78125 2.09375 
Q 45.015625 0.34375 40.984375 -0.53125 
Q 36.96875 -1.421875 32.421875 -1.421875 
Q 20.0625 -1.421875 12.78125 6.34375 
Q 5.515625 14.109375 5.515625 27.296875 
Q 5.515625 40.671875 12.859375 48.328125 
Q 20.21875 56 33.015625 56 
Q 37.15625 56 41.109375 55.140625 
Q 45.0625 54.296875 48.78125 52.59375 
z
" id="DejaVuSans-99"/>
      <path d="M 9.421875 54.6875 
L 18.40625 54.6875 
L 18.40625 0 
L 9.421875 0 
z
M 9.421875 75.984375 
L 18.40625 75.984375 
L 18.40625 64.59375 
L 9.421875 64.59375 
z
" id="DejaVuSans-105"/>
      <path d="M 54.890625 33.015625 
L 54.890625 0 
L 45.90625 0 
L 45.90625 32.71875 
Q 45.90625 40.484375 42.875 44.328125 
Q 39.84375 48.1875 33.796875 48.1875 
Q 26.515625 48.1875 22.3125 43.546875 
Q 18.109375 38.921875 18.109375 30.90625 
L 18.109375 0 
L 9.078125 0 
L 9.078125 54.6875 
L 18.109375 54.6875 
L 18.109375 46.1875 
Q 21.34375 51.125 25.703125 53.5625 
Q 30.078125 56 35.796875 56 
Q 45.21875 56 50.046875 50.171875 
Q 54.890625 44.34375 54.890625 33.015625 
z
" id="DejaVuSans-110"/>
     </defs>
     <g transform="translate(332.034063 72.748563)scale(0.1 -0.1)">
      <use xlink:href="#DejaVuSans-98"/>
      <use x="63.476562" xlink:href="#DejaVuSans-99"/>
      <use x="118.457031" xlink:href="#DejaVuSans-32"/>
      <use x="150.244141" xlink:href="#DejaVuSans-105"/>
      <use x="178.027344" xlink:href="#DejaVuSans-110"/>
      <use x="241.40625" xlink:href="#DejaVuSans-105"/>
      <use x="269.189453" xlink:href="#DejaVuSans-116"/>
      <use x="308.398438" xlink:href="#DejaVuSans-105"/>
      <use x="336.181641" xlink:href="#DejaVuSans-97"/>
      <use x="397.460938" xlink:href="#DejaVuSans-108"/>
      <use x="425.244141" xlink:href="#DejaVuSans-32"/>
      <use x="457.03125" xlink:href="#DejaVuSans-108"/>
      <use x="484.814453" xlink:href="#DejaVuSans-111"/>
      <use x="545.996094" xlink:href="#DejaVuSans-115"/>
      <use x="598.095703" xlink:href="#DejaVuSans-115"/>
     </g>
    </g>
    <g id="line2d_20">
     <path d="M 304.034063 83.926688 
L 324.034063 83.926688 
" style="fill:none;stroke:#2ca02c;stroke-linecap:square;stroke-width:1.5;"/>
    </g>
    <g id="line2d_21"/>
    <g id="text_14">
     <!-- bc top loss -->
     <defs>
      <path d="M 18.109375 8.203125 
L 18.109375 -20.796875 
L 9.078125 -20.796875 
L 9.078125 54.6875 
L 18.109375 54.6875 
L 18.109375 46.390625 
Q 20.953125 51.265625 25.265625 53.625 
Q 29.59375 56 35.59375 56 
Q 45.5625 56 51.78125 48.09375 
Q 58.015625 40.1875 58.015625 27.296875 
Q 58.015625 14.40625 51.78125 6.484375 
Q 45.5625 -1.421875 35.59375 -1.421875 
Q 29.59375 -1.421875 25.265625 0.953125 
Q 20.953125 3.328125 18.109375 8.203125 
z
M 48.6875 27.296875 
Q 48.6875 37.203125 44.609375 42.84375 
Q 40.53125 48.484375 33.40625 48.484375 
Q 26.265625 48.484375 22.1875 42.84375 
Q 18.109375 37.203125 18.109375 27.296875 
Q 18.109375 17.390625 22.1875 11.75 
Q 26.265625 6.109375 33.40625 6.109375 
Q 40.53125 6.109375 44.609375 11.75 
Q 48.6875 17.390625 48.6875 27.296875 
z
" id="DejaVuSans-112"/>
     </defs>
     <g transform="translate(332.034063 87.426688)scale(0.1 -0.1)">
      <use xlink:href="#DejaVuSans-98"/>
      <use x="63.476562" xlink:href="#DejaVuSans-99"/>
      <use x="118.457031" xlink:href="#DejaVuSans-32"/>
      <use x="150.244141" xlink:href="#DejaVuSans-116"/>
      <use x="189.453125" xlink:href="#DejaVuSans-111"/>
      <use x="250.634766" xlink:href="#DejaVuSans-112"/>
      <use x="314.111328" xlink:href="#DejaVuSans-32"/>
      <use x="345.898438" xlink:href="#DejaVuSans-108"/>
      <use x="373.681641" xlink:href="#DejaVuSans-111"/>
      <use x="434.863281" xlink:href="#DejaVuSans-115"/>
      <use x="486.962891" xlink:href="#DejaVuSans-115"/>
     </g>
    </g>
    <g id="line2d_22">
     <path d="M 304.034063 98.604813 
L 324.034063 98.604813 
" style="fill:none;stroke:#d62728;stroke-linecap:square;stroke-width:1.5;"/>
    </g>
    <g id="line2d_23"/>
    <g id="text_15">
     <!-- bc bottom loss -->
     <defs>
      <path d="M 52 44.1875 
Q 55.375 50.25 60.0625 53.125 
Q 64.75 56 71.09375 56 
Q 79.640625 56 84.28125 50.015625 
Q 88.921875 44.046875 88.921875 33.015625 
L 88.921875 0 
L 79.890625 0 
L 79.890625 32.71875 
Q 79.890625 40.578125 77.09375 44.375 
Q 74.3125 48.1875 68.609375 48.1875 
Q 61.625 48.1875 57.5625 43.546875 
Q 53.515625 38.921875 53.515625 30.90625 
L 53.515625 0 
L 44.484375 0 
L 44.484375 32.71875 
Q 44.484375 40.625 41.703125 44.40625 
Q 38.921875 48.1875 33.109375 48.1875 
Q 26.21875 48.1875 22.15625 43.53125 
Q 18.109375 38.875 18.109375 30.90625 
L 18.109375 0 
L 9.078125 0 
L 9.078125 54.6875 
L 18.109375 54.6875 
L 18.109375 46.1875 
Q 21.1875 51.21875 25.484375 53.609375 
Q 29.78125 56 35.6875 56 
Q 41.65625 56 45.828125 52.96875 
Q 50 49.953125 52 44.1875 
z
" id="DejaVuSans-109"/>
     </defs>
     <g transform="translate(332.034063 102.104813)scale(0.1 -0.1)">
      <use xlink:href="#DejaVuSans-98"/>
      <use x="63.476562" xlink:href="#DejaVuSans-99"/>
      <use x="118.457031" xlink:href="#DejaVuSans-32"/>
      <use x="150.244141" xlink:href="#DejaVuSans-98"/>
      <use x="213.720703" xlink:href="#DejaVuSans-111"/>
      <use x="274.902344" xlink:href="#DejaVuSans-116"/>
      <use x="314.111328" xlink:href="#DejaVuSans-116"/>
      <use x="353.320312" xlink:href="#DejaVuSans-111"/>
      <use x="414.501953" xlink:href="#DejaVuSans-109"/>
      <use x="511.914062" xlink:href="#DejaVuSans-32"/>
      <use x="543.701172" xlink:href="#DejaVuSans-108"/>
      <use x="571.484375" xlink:href="#DejaVuSans-111"/>
      <use x="632.666016" xlink:href="#DejaVuSans-115"/>
      <use x="684.765625" xlink:href="#DejaVuSans-115"/>
     </g>
    </g>
   </g>
  </g>
 </g>
 <defs>
  <clipPath id="pa35eed80ac">
   <rect height="266.112" width="357.12" x="57.6" y="41.472"/>
  </clipPath>
 </defs>
</svg>
