<?xml version="1.0" encoding="utf-8" standalone="no"?>
<!DOCTYPE svg PUBLIC "-//W3C//DTD SVG 1.1//EN"
  "http://www.w3.org/Graphics/SVG/1.1/DTD/svg11.dtd">
<!-- Created with matplotlib (https://matplotlib.org/) -->
<svg height="345.6pt" version="1.1" viewBox="0 0 460.8 345.6" width="460.8pt" xmlns="http://www.w3.org/2000/svg" xmlns:xlink="http://www.w3.org/1999/xlink">
 <defs>
  <style type="text/css">
*{stroke-linecap:butt;stroke-linejoin:round;}
  </style>
 </defs>
 <g id="figure_1">
  <g id="patch_1">
   <path d="M 0 345.6 
L 460.8 345.6 
L 460.8 0 
L 0 0 
z
" style="fill:#ffffff;"/>
  </g>
  <g id="axes_1">
   <g id="patch_2">
    <path d="M 57.6 307.584 
L 414.72 307.584 
L 414.72 41.472 
L 57.6 41.472 
z
" style="fill:#ffffff;"/>
   </g>
   <g id="matplotlib.axis_1">
    <g id="xtick_1">
     <g id="line2d_1">
      <defs>
       <path d="M 0 0 
L 0 3.5 
" id="mb314e71f74" style="stroke:#000000;stroke-width:0.8;"/>
      </defs>
      <g>
       <use style="stroke:#000000;stroke-width:0.8;" x="73.832727" xlink:href="#mb314e71f74" y="307.584"/>
      </g>
     </g>
     <g id="text_1">
      <!-- 0 -->
      <defs>
       <path d="M 31.78125 66.40625 
Q 24.171875 66.40625 20.328125 58.90625 
Q 16.5 51.421875 16.5 36.375 
Q 16.5 21.390625 20.328125 13.890625 
Q 24.171875 6.390625 31.78125 6.390625 
Q 39.453125 6.390625 43.28125 13.890625 
Q 47.125 21.390625 47.125 36.375 
Q 47.125 51.421875 43.28125 58.90625 
Q 39.453125 66.40625 31.78125 66.40625 
z
M 31.78125 74.21875 
Q 44.046875 74.21875 50.515625 64.515625 
Q 56.984375 54.828125 56.984375 36.375 
Q 56.984375 17.96875 50.515625 8.265625 
Q 44.046875 -1.421875 31.78125 -1.421875 
Q 19.53125 -1.421875 13.0625 8.265625 
Q 6.59375 17.96875 6.59375 36.375 
Q 6.59375 54.828125 13.0625 64.515625 
Q 19.53125 74.21875 31.78125 74.21875 
z
" id="DejaVuSans-48"/>
      </defs>
      <g transform="translate(70.651477 322.182437)scale(0.1 -0.1)">
       <use xlink:href="#DejaVuSans-48"/>
      </g>
     </g>
    </g>
    <g id="xtick_2">
     <g id="line2d_2">
      <g>
       <use style="stroke:#000000;stroke-width:0.8;" x="127.943622" xlink:href="#mb314e71f74" y="307.584"/>
      </g>
     </g>
     <g id="text_2">
      <!-- 5000 -->
      <defs>
       <path d="M 10.796875 72.90625 
L 49.515625 72.90625 
L 49.515625 64.59375 
L 19.828125 64.59375 
L 19.828125 46.734375 
Q 21.96875 47.46875 24.109375 47.828125 
Q 26.265625 48.1875 28.421875 48.1875 
Q 40.625 48.1875 47.75 41.5 
Q 54.890625 34.8125 54.890625 23.390625 
Q 54.890625 11.625 47.5625 5.09375 
Q 40.234375 -1.421875 26.90625 -1.421875 
Q 22.3125 -1.421875 17.546875 -0.640625 
Q 12.796875 0.140625 7.71875 1.703125 
L 7.71875 11.625 
Q 12.109375 9.234375 16.796875 8.0625 
Q 21.484375 6.890625 26.703125 6.890625 
Q 35.15625 6.890625 40.078125 11.328125 
Q 45.015625 15.765625 45.015625 23.390625 
Q 45.015625 31 40.078125 35.4375 
Q 35.15625 39.890625 26.703125 39.890625 
Q 22.75 39.890625 18.8125 39.015625 
Q 14.890625 38.140625 10.796875 36.28125 
z
" id="DejaVuSans-53"/>
      </defs>
      <g transform="translate(115.218622 322.182437)scale(0.1 -0.1)">
       <use xlink:href="#DejaVuSans-53"/>
       <use x="63.623047" xlink:href="#DejaVuSans-48"/>
       <use x="127.246094" xlink:href="#DejaVuSans-48"/>
       <use x="190.869141" xlink:href="#DejaVuSans-48"/>
      </g>
     </g>
    </g>
    <g id="xtick_3">
     <g id="line2d_3">
      <g>
       <use style="stroke:#000000;stroke-width:0.8;" x="182.054516" xlink:href="#mb314e71f74" y="307.584"/>
      </g>
     </g>
     <g id="text_3">
      <!-- 10000 -->
      <defs>
       <path d="M 12.40625 8.296875 
L 28.515625 8.296875 
L 28.515625 63.921875 
L 10.984375 60.40625 
L 10.984375 69.390625 
L 28.421875 72.90625 
L 38.28125 72.90625 
L 38.28125 8.296875 
L 54.390625 8.296875 
L 54.390625 0 
L 12.40625 0 
z
" id="DejaVuSans-49"/>
      </defs>
      <g transform="translate(166.148266 322.182437)scale(0.1 -0.1)">
       <use xlink:href="#DejaVuSans-49"/>
       <use x="63.623047" xlink:href="#DejaVuSans-48"/>
       <use x="127.246094" xlink:href="#DejaVuSans-48"/>
       <use x="190.869141" xlink:href="#DejaVuSans-48"/>
       <use x="254.492188" xlink:href="#DejaVuSans-48"/>
      </g>
     </g>
    </g>
    <g id="xtick_4">
     <g id="line2d_4">
      <g>
       <use style="stroke:#000000;stroke-width:0.8;" x="236.165411" xlink:href="#mb314e71f74" y="307.584"/>
      </g>
     </g>
     <g id="text_4">
      <!-- 15000 -->
      <g transform="translate(220.259161 322.182437)scale(0.1 -0.1)">
       <use xlink:href="#DejaVuSans-49"/>
       <use x="63.623047" xlink:href="#DejaVuSans-53"/>
       <use x="127.246094" xlink:href="#DejaVuSans-48"/>
       <use x="190.869141" xlink:href="#DejaVuSans-48"/>
       <use x="254.492188" xlink:href="#DejaVuSans-48"/>
      </g>
     </g>
    </g>
    <g id="xtick_5">
     <g id="line2d_5">
      <g>
       <use style="stroke:#000000;stroke-width:0.8;" x="290.276306" xlink:href="#mb314e71f74" y="307.584"/>
      </g>
     </g>
     <g id="text_5">
      <!-- 20000 -->
      <defs>
       <path d="M 19.1875 8.296875 
L 53.609375 8.296875 
L 53.609375 0 
L 7.328125 0 
L 7.328125 8.296875 
Q 12.9375 14.109375 22.625 23.890625 
Q 32.328125 33.6875 34.8125 36.53125 
Q 39.546875 41.84375 41.421875 45.53125 
Q 43.3125 49.21875 43.3125 52.78125 
Q 43.3125 58.59375 39.234375 62.25 
Q 35.15625 65.921875 28.609375 65.921875 
Q 23.96875 65.921875 18.8125 64.3125 
Q 13.671875 62.703125 7.8125 59.421875 
L 7.8125 69.390625 
Q 13.765625 71.78125 18.9375 73 
Q 24.125 74.21875 28.421875 74.21875 
Q 39.75 74.21875 46.484375 68.546875 
Q 53.21875 62.890625 53.21875 53.421875 
Q 53.21875 48.921875 51.53125 44.890625 
Q 49.859375 40.875 45.40625 35.40625 
Q 44.1875 33.984375 37.640625 27.21875 
Q 31.109375 20.453125 19.1875 8.296875 
z
" id="DejaVuSans-50"/>
      </defs>
      <g transform="translate(274.370056 322.182437)scale(0.1 -0.1)">
       <use xlink:href="#DejaVuSans-50"/>
       <use x="63.623047" xlink:href="#DejaVuSans-48"/>
       <use x="127.246094" xlink:href="#DejaVuSans-48"/>
       <use x="190.869141" xlink:href="#DejaVuSans-48"/>
       <use x="254.492188" xlink:href="#DejaVuSans-48"/>
      </g>
     </g>
    </g>
    <g id="xtick_6">
     <g id="line2d_6">
      <g>
       <use style="stroke:#000000;stroke-width:0.8;" x="344.3872" xlink:href="#mb314e71f74" y="307.584"/>
      </g>
     </g>
     <g id="text_6">
      <!-- 25000 -->
      <g transform="translate(328.48095 322.182437)scale(0.1 -0.1)">
       <use xlink:href="#DejaVuSans-50"/>
       <use x="63.623047" xlink:href="#DejaVuSans-53"/>
       <use x="127.246094" xlink:href="#DejaVuSans-48"/>
       <use x="190.869141" xlink:href="#DejaVuSans-48"/>
       <use x="254.492188" xlink:href="#DejaVuSans-48"/>
      </g>
     </g>
    </g>
    <g id="xtick_7">
     <g id="line2d_7">
      <g>
       <use style="stroke:#000000;stroke-width:0.8;" x="398.498095" xlink:href="#mb314e71f74" y="307.584"/>
      </g>
     </g>
     <g id="text_7">
      <!-- 30000 -->
      <defs>
       <path d="M 40.578125 39.3125 
Q 47.65625 37.796875 51.625 33 
Q 55.609375 28.21875 55.609375 21.1875 
Q 55.609375 10.40625 48.1875 4.484375 
Q 40.765625 -1.421875 27.09375 -1.421875 
Q 22.515625 -1.421875 17.65625 -0.515625 
Q 12.796875 0.390625 7.625 2.203125 
L 7.625 11.71875 
Q 11.71875 9.328125 16.59375 8.109375 
Q 21.484375 6.890625 26.8125 6.890625 
Q 36.078125 6.890625 40.9375 10.546875 
Q 45.796875 14.203125 45.796875 21.1875 
Q 45.796875 27.640625 41.28125 31.265625 
Q 36.765625 34.90625 28.71875 34.90625 
L 20.21875 34.90625 
L 20.21875 43.015625 
L 29.109375 43.015625 
Q 36.375 43.015625 40.234375 45.921875 
Q 44.09375 48.828125 44.09375 54.296875 
Q 44.09375 59.90625 40.109375 62.90625 
Q 36.140625 65.921875 28.71875 65.921875 
Q 24.65625 65.921875 20.015625 65.03125 
Q 15.375 64.15625 9.8125 62.3125 
L 9.8125 71.09375 
Q 15.4375 72.65625 20.34375 73.4375 
Q 25.25 74.21875 29.59375 74.21875 
Q 40.828125 74.21875 47.359375 69.109375 
Q 53.90625 64.015625 53.90625 55.328125 
Q 53.90625 49.265625 50.4375 45.09375 
Q 46.96875 40.921875 40.578125 39.3125 
z
" id="DejaVuSans-51"/>
      </defs>
      <g transform="translate(382.591845 322.182437)scale(0.1 -0.1)">
       <use xlink:href="#DejaVuSans-51"/>
       <use x="63.623047" xlink:href="#DejaVuSans-48"/>
       <use x="127.246094" xlink:href="#DejaVuSans-48"/>
       <use x="190.869141" xlink:href="#DejaVuSans-48"/>
       <use x="254.492188" xlink:href="#DejaVuSans-48"/>
      </g>
     </g>
    </g>
   </g>
   <g id="matplotlib.axis_2">
    <g id="ytick_1">
     <g id="line2d_8">
      <defs>
       <path d="M 0 0 
L -3.5 0 
" id="ma630eb76dd" style="stroke:#000000;stroke-width:0.8;"/>
      </defs>
      <g>
       <use style="stroke:#000000;stroke-width:0.8;" x="57.6" xlink:href="#ma630eb76dd" y="302.223147"/>
      </g>
     </g>
     <g id="text_8">
      <!-- 0 -->
      <g transform="translate(44.2375 306.022366)scale(0.1 -0.1)">
       <use xlink:href="#DejaVuSans-48"/>
      </g>
     </g>
    </g>
    <g id="ytick_2">
     <g id="line2d_9">
      <g>
       <use style="stroke:#000000;stroke-width:0.8;" x="57.6" xlink:href="#ma630eb76dd" y="271.981967"/>
      </g>
     </g>
     <g id="text_9">
      <!-- 20 -->
      <g transform="translate(37.875 275.781186)scale(0.1 -0.1)">
       <use xlink:href="#DejaVuSans-50"/>
       <use x="63.623047" xlink:href="#DejaVuSans-48"/>
      </g>
     </g>
    </g>
    <g id="ytick_3">
     <g id="line2d_10">
      <g>
       <use style="stroke:#000000;stroke-width:0.8;" x="57.6" xlink:href="#ma630eb76dd" y="241.740786"/>
      </g>
     </g>
     <g id="text_10">
      <!-- 40 -->
      <defs>
       <path d="M 37.796875 64.3125 
L 12.890625 25.390625 
L 37.796875 25.390625 
z
M 35.203125 72.90625 
L 47.609375 72.90625 
L 47.609375 25.390625 
L 58.015625 25.390625 
L 58.015625 17.1875 
L 47.609375 17.1875 
L 47.609375 0 
L 37.796875 0 
L 37.796875 17.1875 
L 4.890625 17.1875 
L 4.890625 26.703125 
z
" id="DejaVuSans-52"/>
      </defs>
      <g transform="translate(37.875 245.540005)scale(0.1 -0.1)">
       <use xlink:href="#DejaVuSans-52"/>
       <use x="63.623047" xlink:href="#DejaVuSans-48"/>
      </g>
     </g>
    </g>
    <g id="ytick_4">
     <g id="line2d_11">
      <g>
       <use style="stroke:#000000;stroke-width:0.8;" x="57.6" xlink:href="#ma630eb76dd" y="211.499606"/>
      </g>
     </g>
     <g id="text_11">
      <!-- 60 -->
      <defs>
       <path d="M 33.015625 40.375 
Q 26.375 40.375 22.484375 35.828125 
Q 18.609375 31.296875 18.609375 23.390625 
Q 18.609375 15.53125 22.484375 10.953125 
Q 26.375 6.390625 33.015625 6.390625 
Q 39.65625 6.390625 43.53125 10.953125 
Q 47.40625 15.53125 47.40625 23.390625 
Q 47.40625 31.296875 43.53125 35.828125 
Q 39.65625 40.375 33.015625 40.375 
z
M 52.59375 71.296875 
L 52.59375 62.3125 
Q 48.875 64.0625 45.09375 64.984375 
Q 41.3125 65.921875 37.59375 65.921875 
Q 27.828125 65.921875 22.671875 59.328125 
Q 17.53125 52.734375 16.796875 39.40625 
Q 19.671875 43.65625 24.015625 45.921875 
Q 28.375 48.1875 33.59375 48.1875 
Q 44.578125 48.1875 50.953125 41.515625 
Q 57.328125 34.859375 57.328125 23.390625 
Q 57.328125 12.15625 50.6875 5.359375 
Q 44.046875 -1.421875 33.015625 -1.421875 
Q 20.359375 -1.421875 13.671875 8.265625 
Q 6.984375 17.96875 6.984375 36.375 
Q 6.984375 53.65625 15.1875 63.9375 
Q 23.390625 74.21875 37.203125 74.21875 
Q 40.921875 74.21875 44.703125 73.484375 
Q 48.484375 72.75 52.59375 71.296875 
z
" id="DejaVuSans-54"/>
      </defs>
      <g transform="translate(37.875 215.298825)scale(0.1 -0.1)">
       <use xlink:href="#DejaVuSans-54"/>
       <use x="63.623047" xlink:href="#DejaVuSans-48"/>
      </g>
     </g>
    </g>
    <g id="ytick_5">
     <g id="line2d_12">
      <g>
       <use style="stroke:#000000;stroke-width:0.8;" x="57.6" xlink:href="#ma630eb76dd" y="181.258426"/>
      </g>
     </g>
     <g id="text_12">
      <!-- 80 -->
      <defs>
       <path d="M 31.78125 34.625 
Q 24.75 34.625 20.71875 30.859375 
Q 16.703125 27.09375 16.703125 20.515625 
Q 16.703125 13.921875 20.71875 10.15625 
Q 24.75 6.390625 31.78125 6.390625 
Q 38.8125 6.390625 42.859375 10.171875 
Q 46.921875 13.96875 46.921875 20.515625 
Q 46.921875 27.09375 42.890625 30.859375 
Q 38.875 34.625 31.78125 34.625 
z
M 21.921875 38.8125 
Q 15.578125 40.375 12.03125 44.71875 
Q 8.5 49.078125 8.5 55.328125 
Q 8.5 64.0625 14.71875 69.140625 
Q 20.953125 74.21875 31.78125 74.21875 
Q 42.671875 74.21875 48.875 69.140625 
Q 55.078125 64.0625 55.078125 55.328125 
Q 55.078125 49.078125 51.53125 44.71875 
Q 48 40.375 41.703125 38.8125 
Q 48.828125 37.15625 52.796875 32.3125 
Q 56.78125 27.484375 56.78125 20.515625 
Q 56.78125 9.90625 50.3125 4.234375 
Q 43.84375 -1.421875 31.78125 -1.421875 
Q 19.734375 -1.421875 13.25 4.234375 
Q 6.78125 9.90625 6.78125 20.515625 
Q 6.78125 27.484375 10.78125 32.3125 
Q 14.796875 37.15625 21.921875 38.8125 
z
M 18.3125 54.390625 
Q 18.3125 48.734375 21.84375 45.5625 
Q 25.390625 42.390625 31.78125 42.390625 
Q 38.140625 42.390625 41.71875 45.5625 
Q 45.3125 48.734375 45.3125 54.390625 
Q 45.3125 60.0625 41.71875 63.234375 
Q 38.140625 66.40625 31.78125 66.40625 
Q 25.390625 66.40625 21.84375 63.234375 
Q 18.3125 60.0625 18.3125 54.390625 
z
" id="DejaVuSans-56"/>
      </defs>
      <g transform="translate(37.875 185.057645)scale(0.1 -0.1)">
       <use xlink:href="#DejaVuSans-56"/>
       <use x="63.623047" xlink:href="#DejaVuSans-48"/>
      </g>
     </g>
    </g>
    <g id="ytick_6">
     <g id="line2d_13">
      <g>
       <use style="stroke:#000000;stroke-width:0.8;" x="57.6" xlink:href="#ma630eb76dd" y="151.017246"/>
      </g>
     </g>
     <g id="text_13">
      <!-- 100 -->
      <g transform="translate(31.5125 154.816464)scale(0.1 -0.1)">
       <use xlink:href="#DejaVuSans-49"/>
       <use x="63.623047" xlink:href="#DejaVuSans-48"/>
       <use x="127.246094" xlink:href="#DejaVuSans-48"/>
      </g>
     </g>
    </g>
    <g id="ytick_7">
     <g id="line2d_14">
      <g>
       <use style="stroke:#000000;stroke-width:0.8;" x="57.6" xlink:href="#ma630eb76dd" y="120.776065"/>
      </g>
     </g>
     <g id="text_14">
      <!-- 120 -->
      <g transform="translate(31.5125 124.575284)scale(0.1 -0.1)">
       <use xlink:href="#DejaVuSans-49"/>
       <use x="63.623047" xlink:href="#DejaVuSans-50"/>
       <use x="127.246094" xlink:href="#DejaVuSans-48"/>
      </g>
     </g>
    </g>
    <g id="ytick_8">
     <g id="line2d_15">
      <g>
       <use style="stroke:#000000;stroke-width:0.8;" x="57.6" xlink:href="#ma630eb76dd" y="90.534885"/>
      </g>
     </g>
     <g id="text_15">
      <!-- 140 -->
      <g transform="translate(31.5125 94.334104)scale(0.1 -0.1)">
       <use xlink:href="#DejaVuSans-49"/>
       <use x="63.623047" xlink:href="#DejaVuSans-52"/>
       <use x="127.246094" xlink:href="#DejaVuSans-48"/>
      </g>
     </g>
    </g>
    <g id="ytick_9">
     <g id="line2d_16">
      <g>
       <use style="stroke:#000000;stroke-width:0.8;" x="57.6" xlink:href="#ma630eb76dd" y="60.293705"/>
      </g>
     </g>
     <g id="text_16">
      <!-- 160 -->
      <g transform="translate(31.5125 64.092924)scale(0.1 -0.1)">
       <use xlink:href="#DejaVuSans-49"/>
       <use x="63.623047" xlink:href="#DejaVuSans-54"/>
       <use x="127.246094" xlink:href="#DejaVuSans-48"/>
      </g>
     </g>
    </g>
   </g>
   <g id="line2d_17">
    <path clip-path="url(#p8089c52c71)" d="M 73.832727 267.993526 
L 73.843549 53.568 
L 73.951771 73.256838 
L 74.427947 168.922118 
L 74.914945 276.930138 
L 75.120567 283.763116 
L 75.315366 284.573228 
L 75.748253 285.075031 
L 76.321828 285.384929 
L 77.37158 285.666958 
L 80.261102 286.369346 
L 81.051121 286.825946 
L 81.678807 287.455031 
L 83.053224 288.988775 
L 83.77831 289.2484 
L 86.202478 290.009536 
L 87.674294 290.431265 
L 89.459954 290.67332 
L 93.46416 290.935273 
L 109.177964 291.677245 
L 119.166835 291.893641 
L 141.168325 292.058114 
L 167.357998 292.328529 
L 167.563619 292.348684 
L 168.418571 292.507948 
L 168.732414 292.600833 
L 168.743236 292.552143 
L 168.754059 292.511303 
L 168.797347 292.649289 
L 168.818992 292.630346 
L 168.948858 292.726513 
L 169.078724 292.789793 
L 169.219412 292.858921 
L 169.241057 292.823758 
L 169.262701 292.80031 
L 169.30599 292.898752 
L 169.327634 292.890863 
L 169.479145 293.011093 
L 169.533255 292.925451 
L 169.609011 293.063054 
L 169.760521 293.203101 
L 169.80381 293.218741 
L 169.825454 293.132828 
L 169.836276 293.068132 
L 169.90121 293.283439 
L 169.912032 293.235834 
L 170.05272 293.397425 
L 170.30163 293.549289 
L 170.344919 293.52525 
L 170.355741 293.47773 
L 170.377385 293.388035 
L 170.39903 293.602085 
L 170.453141 293.56564 
L 170.604651 293.694846 
L 170.79945 293.796198 
L 170.929317 293.83149 
L 170.940139 293.781976 
L 170.972605 293.342514 
L 171.037538 293.848835 
L 171.048361 293.745704 
L 171.199871 293.953366 
L 171.210693 293.919752 
L 172.076468 294.243106 
L 172.108934 294.069701 
L 172.130578 293.756913 
L 172.152223 294.216391 
L 172.206334 294.199703 
L 172.227978 294.180229 
L 172.379489 294.331964 
L 172.498532 294.362918 
L 172.660865 294.423399 
L 172.963886 294.461056 
L 172.974708 294.425043 
L 172.996353 294.318345 
L 173.028819 294.516494 
L 173.061286 294.458143 
L 173.169508 294.563674 
L 173.18033 294.552667 
L 173.266907 294.570946 
L 173.288552 294.593217 
L 173.624039 294.664537 
L 173.786372 294.704713 
L 174.02446 294.758656 
L 174.435703 294.827287 
L 174.760368 294.878699 
L 175.377232 294.921945 
L 175.528743 294.942335 
L 175.745186 294.906202 
L 175.777653 294.756129 
L 175.810119 294.948794 
L 175.842586 294.900695 
L 175.96163 294.982259 
L 176.080674 294.991283 
L 176.36205 295.005232 
L 176.892337 294.895079 
L 176.924804 294.648212 
L 176.978915 294.99004 
L 177.000559 294.899805 
L 177.097959 295.038828 
L 177.130425 295.022276 
L 177.238647 295.060291 
L 177.249469 295.052204 
L 177.422624 295.069225 
L 177.920444 295.057079 
L 177.974555 294.915104 
L 178.039488 295.035262 
L 178.201821 295.103792 
L 178.548131 295.036754 
L 178.580597 294.851461 
L 178.613064 295.102568 
L 178.64553 295.030701 
L 178.74293 295.116415 
L 178.764574 295.093601 
L 179.154173 295.133442 
L 179.413905 295.131792 
L 179.73857 295.149041 
L 180.041591 295.172853 
L 180.095702 295.073312 
L 180.128169 294.645398 
L 180.193102 295.134163 
L 180.214746 295.000932 
L 180.33379 295.170433 
L 180.496123 295.179562 
L 181.27532 295.198382 
L 181.318608 295.018464 
L 181.340253 294.784755 
L 181.372719 295.160479 
L 181.416008 295.142558 
L 181.42683 295.061554 
L 181.448474 295.206141 
L 181.513408 295.161241 
L 181.621629 295.214559 
L 181.632452 295.198461 
L 181.859717 295.223226 
L 182.281782 295.182531 
L 182.325071 295.074047 
L 182.36836 295.229716 
L 182.400826 295.184461 
L 182.638914 295.246105 
L 183.234134 295.234662 
L 183.374822 295.259308 
L 183.688666 295.07931 
L 183.71031 295.22026 
L 183.818532 295.257233 
L 183.742776 295.206387 
L 183.829354 295.247749 
L 183.980864 295.27372 
L 184.164841 295.218936 
L 184.20813 295.02885 
L 184.251419 295.265881 
L 184.273063 295.17653 
L 184.392107 295.272472 
L 184.402929 295.262167 
L 184.619373 295.283692 
L 184.824994 295.180185 
L 184.846639 295.118614 
L 184.889927 295.286037 
L 184.922394 295.22572 
L 185.063082 295.279077 
L 185.387748 295.219426 
L 185.431036 295.022576 
L 185.463503 295.285158 
L 185.495969 295.221643 
L 185.604191 295.299628 
L 185.615013 295.282979 
L 185.744879 295.291953 
L 186.047901 295.29719 
L 186.296811 295.291997 
L 186.556543 295.272144 
L 186.610654 295.148723 
L 186.686409 295.258925 
L 186.827097 295.30893 
L 187.151763 295.314804 
L 187.433139 295.324193 
L 187.519717 295.211394 
L 187.552183 295.111886 
L 187.58465 295.311247 
L 187.617116 295.252193 
L 187.746983 295.327431 
L 187.757805 295.321149 
L 187.920137 295.33212 
L 188.060826 295.259241 
L 188.104115 295.171428 
L 188.136581 295.31972 
L 188.169048 295.278057 
L 188.439602 295.330571 
L 189.013178 295.201873 
L 189.024 295.26619 
L 189.143044 295.326914 
L 189.435243 295.276104 
L 189.467709 295.22331 
L 189.52182 295.347066 
L 189.651686 295.334725 
L 189.857307 295.326303 
L 190.041285 295.32824 
L 190.257728 295.344849 
L 190.636504 295.351835 
L 190.744726 295.261652 
L 190.777193 295.137681 
L 190.820481 295.349643 
L 190.852948 295.285521 
L 190.982814 295.351981 
L 190.993636 295.345334 
L 191.307479 295.216001 
L 191.329124 295.16701 
L 191.372413 295.348536 
L 191.394057 295.292609 
L 191.599678 295.356517 
L 191.881055 295.239492 
L 191.913521 295.055927 
L 191.945988 295.349565 
L 191.978455 295.2562 
L 192.086676 295.365926 
L 192.097499 295.350637 
L 192.216542 295.357237 
L 192.595319 295.34128 
L 192.660252 295.122604 
L 192.725185 295.279441 
L 192.844229 295.367539 
L 192.855051 295.356098 
L 193.04985 295.376926 
L 193.233827 295.298719 
L 193.266294 295.218249 
L 193.309583 295.370315 
L 193.342049 295.32058 
L 194.121246 295.345554 
L 194.283579 295.363309 
L 194.803043 295.31384 
L 194.846332 295.163241 
L 194.889621 295.359177 
L 194.911265 295.319368 
L 195.311686 295.350077 
L 195.376619 295.179393 
L 195.441552 295.304971 
L 195.571418 295.384857 
L 195.766217 295.388971 
L 195.917728 295.289867 
L 195.950194 295.239622 
L 195.993483 295.388273 
L 196.015127 295.345223 
L 196.134171 295.390673 
L 196.361437 295.361664 
L 196.42637 295.19759 
L 196.502125 295.331463 
L 196.631991 295.389612 
L 196.859257 295.396633 
L 196.945835 295.30627 
L 196.989123 295.131295 
L 197.02159 295.376885 
L 197.054056 295.310286 
L 197.1731 295.39562 
L 197.183923 295.37932 
L 197.313789 295.392201 
L 197.595165 295.370061 
L 197.660098 295.179103 
L 197.735854 295.320117 
L 197.86572 295.391356 
L 198.071341 295.400023 
L 198.179563 295.329806 
L 198.222852 295.21959 
L 198.266141 295.395066 
L 198.287785 295.340821 
L 198.396007 295.393491 
L 198.601628 295.394599 
L 199.099448 295.242216 
L 199.11027 295.322615 
L 199.229314 295.390734 
L 199.662202 295.233306 
L 199.694668 294.96981 
L 199.727135 295.355414 
L 199.759601 295.339733 
L 200.214133 295.410074 
L 200.527976 295.343629 
L 200.571265 295.197202 
L 200.614553 295.401083 
L 200.64702 295.333303 
L 200.79853 295.394756 
L 201.025796 295.413578 
L 201.123196 295.322523 
L 201.166484 295.124138 
L 201.198951 295.398275 
L 201.231418 295.304774 
L 201.339639 295.405137 
L 201.361284 295.386302 
L 201.794171 295.342497 
L 201.83746 295.177122 
L 201.880748 295.40227 
L 201.913215 295.329042 
L 202.021437 295.403451 
L 202.043081 295.394847 
L 202.313635 295.403642 
L 202.540901 295.414573 
L 202.757345 295.394549 
L 202.8331 295.248039 
L 202.9305 295.382046 
L 203.071188 295.404967 
L 203.255165 295.379255 
L 203.320098 295.281614 
L 203.395853 295.370198 
L 203.644763 295.422044 
L 203.77463 295.352826 
L 203.817918 295.090098 
L 203.861207 295.386634 
L 203.882851 295.29058 
L 204.001895 295.415296 
L 204.012718 295.392201 
L 204.142584 295.411385 
L 204.326561 295.422083 
L 205.01918 295.340412 
L 205.062469 295.049448 
L 205.094935 295.377111 
L 205.127402 295.311274 
L 205.235624 295.416717 
L 205.246446 295.403867 
L 205.36549 295.405324 
L 205.603578 295.425776 
L 205.852488 295.345671 
L 205.895777 295.084966 
L 205.928243 295.375811 
L 205.96071 295.310998 
L 206.079754 295.422604 
L 206.090576 295.399583 
L 206.220442 295.415475 
L 206.426063 295.430379 
L 206.61004 295.315708 
L 206.642507 295.251464 
L 206.685796 295.423944 
L 206.70744 295.374302 
L 206.80484 295.402848 
L 206.750729 295.412276 
L 206.815662 295.41156 
L 206.977995 295.42357 
L 207.356771 295.424509 
L 207.508281 295.380587 
L 207.562392 295.165682 
L 207.638147 295.344435 
L 207.757191 295.429233 
L 207.768014 295.420133 
L 207.89788 295.42458 
L 208.14679 295.336321 
L 208.179256 295.253879 
L 208.222545 295.42078 
L 208.244189 295.384386 
L 208.2983 295.417868 
L 208.352411 295.409622 
L 208.514744 295.427322 
L 208.850231 295.421506 
L 209.034209 295.4296 
L 209.120786 295.347348 
L 209.164075 295.168263 
L 209.207363 295.406973 
L 209.229008 295.337636 
L 209.402163 295.430536 
L 209.716006 295.417049 
L 209.770117 295.22281 
L 209.791761 295.110871 
L 209.824228 295.41135 
L 209.856694 295.315211 
L 209.964916 295.424969 
L 209.98656 295.402936 
L 210.441092 295.302132 
L 210.462736 295.237301 
L 210.506025 295.43115 
L 210.538491 295.35144 
L 210.722468 295.436194 
L 211.025489 295.264689 
L 211.047134 295.390317 
L 211.133711 295.425294 
L 211.090423 295.3638 
L 211.166178 295.40719 
L 211.501665 295.419697 
L 211.588243 295.221493 
L 211.67482 295.40191 
L 211.826331 295.433276 
L 212.064419 295.417333 
L 212.140174 295.222759 
L 212.237573 295.403743 
L 212.410728 295.430242 
L 212.681283 295.264344 
L 212.702927 295.209945 
L 212.735394 295.419239 
L 212.76786 295.347588 
L 212.962659 295.428381 
L 213.438835 295.429809 
L 213.622812 295.436239 
L 213.70939 295.333133 
L 213.741856 295.238395 
L 213.785145 295.43256 
L 213.806789 295.373373 
L 213.915011 295.419569 
L 214.163921 295.440747 
L 214.326254 295.355405 
L 214.369543 294.975761 
L 214.402009 295.401399 
L 214.434476 295.334676 
L 214.531875 295.424394 
L 214.466942 295.312173 
L 214.55352 295.381024 
L 214.672564 295.43779 
L 214.683386 295.426055 
L 214.910652 295.442982 
L 215.267784 295.335227 
L 215.311072 295.103116 
L 215.343539 295.409839 
L 215.376005 295.35035 
L 215.484227 295.438788 
L 215.495049 295.427389 
L 215.614093 295.427552 
L 216.036158 295.36445 
L 216.068625 295.354462 
L 216.111914 295.438706 
L 216.350001 295.443239 
L 216.533979 295.365938 
L 216.577267 294.973765 
L 216.6422 295.323642 
L 216.696311 295.43302 
L 216.674667 295.285183 
L 216.761244 295.381551 
L 216.880288 295.438869 
L 216.89111 295.429493 
L 217.183309 295.443878 
L 217.475508 295.36133 
L 217.518797 295.128677 
L 217.562086 295.405601 
L 217.58373 295.334282 
L 217.702774 295.443054 
L 217.713596 295.43226 
L 217.83264 295.435442 
L 218.352105 295.408466 
L 218.471149 295.43839 
L 218.481971 295.431528 
L 219.694055 295.448588 
L 219.802277 295.385708 
L 219.856387 294.799639 
L 219.910498 295.316117 
L 219.942965 295.243567 
L 220.029542 295.432628 
L 220.051187 295.360351 
L 220.137764 295.428025 
L 220.278452 295.436783 
L 220.505718 295.448032 
L 220.916961 295.397792 
L 220.971072 295.021582 
L 221.036005 295.333953 
L 221.144227 295.428536 
L 221.068471 295.324626 
L 221.155049 295.399516 
L 221.782735 295.443389 
L 221.858491 295.335869 
L 221.890957 295.207085 
L 221.934246 295.431106 
L 221.95589 295.373793 
L 222.074934 295.432828 
L 222.226445 295.444682 
L 222.496999 295.335509 
L 222.529466 295.152008 
L 222.572754 295.428586 
L 222.594399 295.334565 
L 222.713443 295.444491 
L 222.745909 295.41902 
L 222.886598 295.44973 
L 223.243729 295.286362 
L 223.265374 295.415622 
L 223.351951 295.440008 
L 223.308663 295.375892 
L 223.384418 295.420792 
L 223.763194 295.401505 
L 223.817305 295.217639 
L 223.89306 295.365441 
L 224.022926 295.440685 
L 224.033749 295.431919 
L 224.39088 295.315672 
L 224.423347 295.200878 
L 224.455813 295.434103 
L 224.48828 295.35254 
L 224.661435 295.449531 
L 225.029389 295.303331 
L 225.061856 295.20062 
L 225.094322 295.435653 
L 225.126789 295.358849 
L 225.245833 295.442346 
L 225.256655 295.43429 
L 225.42981 295.448694 
L 225.711186 295.339869 
L 225.754475 295.090741 
L 225.786942 295.426206 
L 225.819408 295.353375 
L 225.916808 295.442351 
L 225.938452 295.410482 
L 226.241473 295.451868 
L 226.555316 295.32765 
L 226.587783 295.083252 
L 226.631071 295.416835 
L 226.652716 295.307819 
L 226.760938 295.446784 
L 226.782582 295.405105 
L 227.02067 295.452532 
L 227.929733 295.405712 
L 228.081243 295.454754 
L 228.373442 295.308302 
L 228.405909 295.050372 
L 228.438375 295.393016 
L 228.470842 295.332359 
L 228.579064 295.44381 
L 228.589886 295.422549 
L 228.622352 295.443591 
L 228.70893 295.438701 
L 228.871262 295.449245 
L 229.20675 295.42881 
L 229.282505 295.220324 
L 229.369083 295.396802 
L 229.520593 295.443748 
L 229.693748 295.45364 
L 229.845259 295.398561 
L 229.899369 295.144357 
L 229.931836 295.43214 
L 229.964303 295.339129 
L 230.083347 295.446425 
L 230.094169 295.428911 
L 230.256501 295.451535 
L 230.613633 295.275268 
L 230.635278 295.201893 
L 230.678566 295.435395 
L 230.700211 295.360906 
L 230.949121 295.451927 
L 231.414475 295.437096 
L 231.609274 295.456243 
L 231.782429 295.384069 
L 231.825717 295.210785 
L 231.869006 295.445309 
L 231.901473 295.361696 
L 232.020517 295.443898 
L 232.042161 295.433423 
L 232.269427 295.453689 
L 232.420937 295.363252 
L 232.453404 295.248555 
L 232.496692 295.443611 
L 232.529159 295.376623 
L 232.723958 295.449814 
L 233.026979 295.322267 
L 233.048624 295.409522 
L 233.146023 295.454741 
L 233.167668 295.436538 
L 233.33 295.45692 
L 233.990153 295.314009 
L 234.02262 295.046405 
L 234.055086 295.395116 
L 234.087553 295.336838 
L 234.195775 295.442263 
L 234.206597 295.420237 
L 234.325641 295.445533 
L 234.487973 295.456222 
L 234.845105 295.414723 
L 234.910038 295.226268 
L 234.974971 295.377417 
L 235.213059 295.455556 
L 235.494436 295.445929 
L 235.548547 295.277453 
L 235.581013 295.090646 
L 235.61348 295.417216 
L 235.645947 295.378894 
L 235.743346 295.447642 
L 235.678413 295.363804 
L 235.76499 295.41653 
L 236.132945 295.457935 
L 236.414321 295.34518 
L 236.446788 295.268939 
L 236.490076 295.448196 
L 236.511721 295.403622 
L 236.619943 295.433713 
L 236.782275 295.456142 
L 237.280096 295.450488 
L 237.604761 295.37799 
L 237.64805 294.833746 
L 237.712983 295.390698 
L 237.734627 295.22006 
L 237.756271 295.436803 
L 237.821204 295.416854 
L 237.842849 295.386955 
L 237.951071 295.451139 
L 238.070115 295.448069 
L 238.29738 295.460032 
L 238.74109 295.396638 
L 238.795201 295.134529 
L 238.827667 295.427319 
L 238.860134 295.364989 
L 238.968355 295.454853 
L 238.99 295.42956 
L 239.184799 295.45714 
L 239.574397 295.388821 
L 239.617686 295.25546 
L 239.660975 295.447316 
L 239.682619 295.406263 
L 239.73673 295.441265 
L 239.790841 295.435492 
L 239.953174 295.457111 
L 240.212906 295.360182 
L 240.256195 295.198638 
L 240.288661 295.446086 
L 240.321128 295.365638 
L 240.440172 295.455053 
L 240.450994 295.44587 
L 240.591682 295.458107 
L 240.873059 295.455775 
L 240.937992 295.351671 
L 240.970459 295.195198 
L 241.013747 295.448048 
L 241.046214 295.366649 
L 241.165258 295.452636 
L 241.17608 295.442373 
L 241.349235 295.45817 
L 241.695545 295.373064 
L 241.738833 295.074221 
L 241.7713 295.421155 
L 241.803766 295.340884 
L 241.911988 295.45412 
L 241.92281 295.424544 
L 241.955277 295.458744 
L 242.041854 295.451909 
L 242.215009 295.463144 
L 242.658718 295.386116 
L 242.702007 294.973154 
L 242.76694 295.328374 
L 242.86434 295.441591 
L 242.799407 295.316594 
L 242.885984 295.40235 
L 242.983384 295.459434 
L 243.005028 295.440695 
L 243.730114 295.345462 
L 243.762581 295.170458 
L 243.805869 295.440639 
L 243.827514 295.360381 
L 244.011491 295.456033 
L 244.022313 295.446083 
L 244.498489 295.420295 
L 244.563422 295.242818 
L 244.628355 295.380268 
L 244.823154 295.454824 
L 245.256041 295.456535 
L 245.450841 295.463224 
L 245.667284 295.401332 
L 247.388011 295.46505 
L 247.539521 295.396957 
L 247.58281 295.309297 
L 247.626099 295.45102 
L 247.83172 295.45727 
L 248.113097 295.293193 
L 248.134741 295.223415 
L 248.17803 295.438589 
L 248.199674 295.3881 
L 248.394473 295.464761 
L 248.57845 295.467682 
L 248.816538 295.346775 
L 248.849005 295.152614 
L 248.892294 295.439345 
L 248.913938 295.351966 
L 249.076271 295.459698 
L 249.292714 295.467407 
L 249.584913 295.406753 
L 249.639024 295.235699 
L 249.67149 295.447473 
L 249.703957 295.379511 
L 249.887934 295.464682 
L 250.071911 295.465536 
L 250.309999 295.385324 
L 250.353288 295.265687 
L 250.396576 295.458774 
L 250.418221 295.39469 
L 250.591376 295.461839 
L 250.796997 295.464065 
L 251.60866 295.447578 
L 251.770993 295.466807 
L 252.290458 295.461886 
L 252.420324 295.370744 
L 252.45279 295.322384 
L 252.496079 295.458701 
L 253.04801 295.336727 
L 253.080477 295.073841 
L 253.112943 295.395509 
L 253.14541 295.359729 
L 253.253632 295.456652 
L 253.177876 295.351876 
L 253.264454 295.434238 
L 253.372676 295.448578 
L 253.383498 295.460887 
L 253.556653 295.470545 
L 254.011184 295.332885 
L 254.043651 295.221174 
L 254.076117 295.442376 
L 254.108584 295.386784 
L 254.281739 295.469077 
L 254.801203 295.416966 
L 254.855314 295.103685 
L 254.920247 295.361418 
L 255.028469 295.464817 
L 255.039291 295.43858 
L 255.071758 295.467371 
L 255.158335 295.460707 
L 255.342312 295.472343 
L 255.786021 295.336147 
L 255.818488 295.165235 
L 255.850955 295.440127 
L 255.883421 295.364926 
L 255.991643 295.464551 
L 256.013287 295.442161 
L 256.27302 295.471808 
L 256.662618 295.349968 
L 256.695085 295.18519 
L 256.738373 295.447306 
L 256.760018 295.366542 
L 256.933172 295.468492 
L 257.073861 295.470993 
L 257.485104 295.448722 
L 257.560859 295.182374 
L 257.636614 295.412338 
L 257.788125 295.468296 
L 257.928813 295.472369 
L 258.383344 295.41779 
L 258.437455 295.175716 
L 258.469922 295.451666 
L 258.502388 295.363146 
L 258.61061 295.462384 
L 258.632255 295.438879 
L 258.805409 295.472371 
L 259.281585 295.452592 
L 259.335696 295.208212 
L 259.357341 295.114791 
L 259.389807 295.439762 
L 259.422274 295.381964 
L 259.562962 295.470721 
L 259.757761 295.47184 
L 260.29887 295.380259 
L 260.342159 295.201541 
L 260.374625 295.455757 
L 260.407092 295.37342 
L 260.54778 295.454454 
L 260.688469 295.468364 
L 261.153822 295.431615 
L 261.207933 295.220629 
L 261.283688 295.380897 
L 261.424377 295.456538 
L 261.565065 295.469558 
L 262.008774 295.37745 
L 262.041241 295.283357 
L 262.08453 295.465863 
L 262.116996 295.402326 
L 262.420017 295.473452 
L 262.798793 295.314282 
L 262.820438 295.251592 
L 262.863726 295.462612 
L 262.885371 295.401099 
L 262.993593 295.463175 
L 263.166747 295.476086 
L 263.556346 295.362032 
L 263.588812 295.292721 
L 263.632101 295.468209 
L 263.653746 295.416379 
L 263.751145 295.446249 
L 263.761967 295.46098 
L 263.913478 295.469869 
L 264.281432 295.40364 
L 264.313898 295.390539 
L 264.357187 295.471019 
L 264.606097 295.477558 
L 265.298717 295.300925 
L 265.320361 295.204826 
L 265.36365 295.441827 
L 265.385294 295.401872 
L 266.067091 295.387557 
L 266.099558 295.28663 
L 266.142847 295.462465 
L 266.175313 295.408876 
L 266.813822 295.419938 
L 266.867933 295.313086 
L 266.911221 295.468135 
L 266.932866 295.425335 
L 267.041088 295.457346 
L 267.181776 295.474186 
L 267.755351 295.474666 
L 268.069195 295.444072 
L 268.134128 295.325229 
L 268.220705 295.426269 
L 268.653592 295.459473 
L 269.108124 295.457954 
L 269.248812 295.478181 
L 269.692521 295.443156 
L 269.844032 295.475677 
L 270.298563 295.320105 
L 270.33103 295.173277 
L 270.363496 295.440546 
L 270.395963 295.396938 
L 270.547474 295.4725 
L 271.045294 295.480517 
L 271.218449 295.392641 
L 271.261737 295.207868 
L 271.294204 295.45172 
L 271.32667 295.38513 
L 271.489003 295.478965 
L 271.683802 295.477677 
L 272.105867 295.439477 
L 272.159978 295.221529 
L 272.235733 295.390901 
L 272.343955 295.472101 
L 272.376422 295.458971 
L 272.51711 295.473818 
L 273.058219 295.403154 
L 273.101508 295.158541 
L 273.133974 295.440745 
L 273.166441 295.370361 
L 273.274663 295.471373 
L 273.307129 295.459699 
L 273.436995 295.470561 
L 274.043037 295.454602 
L 274.10797 295.204616 
L 274.183726 295.396682 
L 274.324414 295.472299 
L 274.540858 295.479483 
L 275.017033 295.332177 
L 275.038678 295.274481 
L 275.081966 295.469903 
L 275.103611 295.408362 
L 275.255121 295.460675 
L 275.417454 295.476093 
L 275.839519 295.461918 
L 275.915274 295.227905 
L 276.001852 295.423182 
L 276.153362 295.476862 
L 276.315695 295.479839 
L 276.781049 295.326435 
L 276.802693 295.303686 
L 276.835159 295.466976 
L 277.48449 295.46864 
L 277.765867 295.460854 
L 278.036421 295.47408 
L 279.51906 295.48231 
L 279.703037 295.387794 
L 279.746326 295.145067 
L 279.778792 295.411118 
L 279.811259 295.404376 
L 280.590456 295.465707 
L 280.76361 295.431899 
L 280.774433 295.453211 
L 280.915121 295.473227 
L 281.164031 295.481659 
L 281.445408 295.386626 
L 281.477874 295.26111 
L 281.521163 295.463873 
L 281.553629 295.406085 
L 281.737607 295.475517 
L 281.997339 295.481781 
L 282.278715 295.383164 
L 282.311182 295.334867 
L 282.354471 295.475036 
L 282.365293 295.462347 
L 282.473515 295.451133 
L 282.484337 295.460148 
L 282.635847 295.476693 
L 283.663954 295.473865 
L 283.869576 295.478037 
L 284.746172 295.472847 
L 284.995082 295.482406 
L 285.135771 295.397977 
L 285.168237 295.304236 
L 285.222348 295.465717 
L 285.23317 295.44882 
L 285.352214 295.456824 
L 285.503725 295.480871 
L 286.0773 295.472989 
L 286.282922 295.479176 
L 287.711449 295.474742 
L 287.927893 295.429597 
L 287.982004 295.340508 
L 288.025292 295.468572 
L 288.382424 295.480471 
L 289.085866 295.373937 
L 289.10751 295.354308 
L 289.150799 295.467108 
L 289.507931 295.482551 
L 289.713552 295.413848 
L 289.756841 295.266137 
L 289.80013 295.458258 
L 289.821774 295.418122 
L 290.243839 295.482292 
L 290.622615 295.428182 
L 290.676726 295.115085 
L 290.730837 295.363893 
L 290.839059 295.468986 
L 290.849881 295.447358 
L 291.023036 295.480339 
L 292.13772 295.477173 
L 292.548963 295.483678 
L 292.668007 295.388565 
L 292.700474 295.252134 
L 292.743762 295.457217 
L 292.776229 295.413243 
L 292.960206 295.475798 
L 293.198294 295.482457 
L 293.57707 295.395817 
L 293.609537 295.266872 
L 293.652826 295.464383 
L 293.685292 295.409553 
L 293.858447 295.482819 
L 294.107357 295.482636 
L 294.453667 295.394488 
L 294.486133 295.313506 
L 294.529422 295.4732 
L 294.551066 295.437773 
L 294.648466 295.45132 
L 294.659288 295.460679 
L 294.810799 295.47902 
L 295.26533 295.367919 
L 295.286975 295.326186 
L 295.330263 295.470949 
L 295.351908 295.446978 
L 295.460129 295.4556 
L 295.470952 295.467302 
L 295.622462 295.479223 
L 296.553169 295.44253 
L 296.661391 295.478429 
L 296.683036 295.461916 
L 296.867013 295.481877 
L 297.45141 295.474834 
L 297.64621 295.48433 
L 298.728427 295.47571 
L 298.98816 295.484677 
L 299.128848 295.370862 
L 299.161315 295.23711 
L 299.204603 295.438233 
L 299.226248 295.417894 
L 299.410225 295.480141 
L 299.626668 295.484005 
L 300.016267 295.415698 
L 300.059555 295.306486 
L 300.102844 295.469132 
L 300.124489 295.429898 
L 300.286821 295.46605 
L 300.535731 295.48206 
L 300.806286 295.393118 
L 300.82793 295.388997 
L 300.860397 295.467275 
L 300.871219 295.480719 
L 301.466439 295.459207 
L 301.596305 295.478626 
L 301.801926 295.4826 
L 302.072481 295.390511 
L 302.104947 295.25255 
L 302.148236 295.44857 
L 302.16988 295.414855 
L 302.407968 295.482497 
L 303.674163 295.468685 
L 303.890607 295.485268 
L 304.052939 295.394707 
L 304.085406 295.318216 
L 304.128695 295.460158 
L 304.150339 295.449708 
L 304.291027 295.481845 
L 304.810492 295.456452 
L 304.875425 295.244237 
L 304.95118 295.431475 
L 305.243379 295.482409 
L 305.816955 295.289456 
L 305.838599 295.416355 
L 305.946821 295.470048 
L 305.957643 295.458862 
L 306.087509 295.474959 
L 306.574507 295.453842 
L 306.63944 295.348646 
L 306.726018 295.438108 
L 306.931639 295.48215 
L 307.33206 295.376489 
L 307.386171 295.474262 
L 307.82988 295.474774 
L 308.273589 295.478679 
L 308.977031 295.391418 
L 309.009497 295.319775 
L 309.052786 295.457746 
L 309.07443 295.448407 
L 309.323341 295.480003 
L 309.658828 295.469648 
L 309.853627 295.459936 
L 310.026782 295.482693 
L 311.390377 295.482709 
L 311.779975 295.45193 
L 311.985597 295.475896 
L 312.223685 295.430559 
L 312.266973 295.408328 
L 312.321084 295.481502 
L 312.786438 295.351984 
L 312.808082 295.337693 
L 312.851371 295.461341 
L 313.002881 295.472449 
L 313.176036 295.483119 
L 314.517986 295.475124 
L 314.756074 295.483588 
L 314.896763 295.358951 
L 314.918407 295.37046 
L 314.940051 295.440101 
L 315.069918 295.481611 
L 315.264717 295.482411 
L 315.567738 295.435519 
L 315.621849 295.24673 
L 315.686782 295.422419 
L 315.805826 295.479983 
L 315.816648 295.473709 
L 315.957336 295.477899 
L 316.227891 295.485544 
L 317.223531 295.372197 
L 317.245176 295.367825 
L 317.277642 295.463458 
L 317.504908 295.477815 
L 317.818751 295.442993 
L 317.872862 295.380695 
L 317.926973 295.479508 
L 318.100128 295.484637 
L 318.489726 295.41038 
L 318.522193 295.323838 
L 318.576304 295.463717 
L 318.587126 295.449996 
L 318.716992 295.467444 
L 318.868502 295.485252 
L 319.561122 295.477253 
L 319.788388 295.484064 
L 325.091255 295.483709 
L 325.459209 295.450571 
L 325.51332 295.276006 
L 325.589076 295.434637 
L 325.718942 295.481981 
L 325.729764 295.475449 
L 325.913741 295.485255 
L 327.688578 295.470581 
L 327.861733 295.476807 
L 328.164754 295.383687 
L 328.186398 295.337141 
L 328.229687 295.45771 
L 328.251332 295.451629 
L 328.511064 295.480176 
L 328.824907 295.457571 
L 328.98724 295.463052 
L 329.614926 295.471436 
L 329.798903 295.484752 
L 332.039094 295.485196 
L 332.255538 295.396478 
L 332.277182 295.38671 
L 332.320471 295.477724 
L 332.872402 295.416881 
L 332.904868 295.399684 
L 332.958979 295.480119 
L 333.186245 295.483233 
L 334.906972 295.407691 
L 334.95026 295.30328 
L 334.982727 295.44137 
L 335.004371 295.435461 
L 335.426436 295.485768 
L 336.324677 295.326562 
L 336.346321 295.292989 
L 336.378788 295.445556 
L 336.400432 295.429435 
L 336.73592 295.485013 
L 337.23374 295.36109 
L 337.255384 295.324712 
L 337.298673 295.465205 
L 337.320317 295.442329 
L 337.634161 295.483575 
L 337.98047 295.429582 
L 338.023759 295.400208 
L 338.07787 295.481508 
L 338.251025 295.483872 
L 338.976111 295.475078 
L 339.625442 295.33334 
L 339.647086 295.227227 
L 339.712019 295.420667 
L 339.841885 295.476628 
L 339.852707 295.461432 
L 340.242306 295.486267 
L 340.718482 295.360464 
L 340.750948 295.227643 
L 340.783415 295.449883 
L 340.815881 295.414634 
L 340.978214 295.480599 
L 341.162191 295.483556 
L 341.843988 295.424581 
L 341.887277 295.239412 
L 341.95221 295.409082 
L 342.157831 295.479253 
L 342.504141 295.486288 
L 342.915384 295.374764 
L 342.937028 295.303661 
L 342.980317 295.466756 
L 343.012784 295.422499 
L 343.802803 295.423579 
L 343.835269 295.401877 
L 343.900202 295.479013 
L 344.051713 295.478996 
L 344.398022 295.486944 
L 344.571177 295.382776 
L 344.603644 295.229995 
L 344.646933 295.440694 
L 344.668577 295.416901 
L 345.133931 295.48527 
L 345.599284 295.417809 
L 345.642573 295.297595 
L 345.67504 295.462897 
L 345.707506 295.420884 
L 352.893433 295.373403 
L 352.925899 295.224747 
L 352.990833 295.431243 
L 353.023299 295.397162 
L 353.142343 295.46681 
L 353.315498 295.481421 
L 353.910718 295.464164 
L 354.07305 295.444001 
L 354.321961 295.484595 
L 355.003758 295.468596 
L 355.144446 295.483868 
L 355.501578 295.48712 
L 355.739666 295.408609 
L 355.782955 295.263713 
L 355.815421 295.453017 
L 355.847888 295.421421 
L 356.140087 295.482199 
L 357.438748 295.487138 
L 357.720125 295.420831 
L 357.763413 295.21213 
L 357.828347 295.409997 
L 358.033968 295.482396 
L 358.261234 295.485836 
L 358.845631 295.367196 
L 358.867276 295.344461 
L 358.910564 295.477865 
L 358.921387 295.464471 
L 359.029608 295.457846 
L 359.040431 295.469994 
L 359.191941 295.479642 
L 359.765517 295.392596 
L 359.797983 295.287836 
L 359.841272 295.464579 
L 359.862916 295.430919 
L 359.960316 295.451012 
L 359.971138 295.472236 
L 360.111826 295.477921 
L 360.72869 295.411214 
L 360.761157 295.317262 
L 360.804446 295.46835 
L 360.836912 295.430321 
L 361.031711 295.481469 
L 363.001348 295.407454 
L 363.033815 295.363053 
L 363.087925 295.476163 
L 363.672323 295.454979 
L 364.10521 295.409149 
L 364.137677 295.395861 
L 364.180966 295.477109 
L 364.45152 295.483691 
L 365.338939 295.485704 
L 365.577027 295.404319 
L 365.663604 295.479502 
L 365.880048 295.485838 
L 366.507734 295.440298 
L 366.626778 295.48114 
L 366.864866 295.485447 
L 367.102954 295.414838 
L 367.13542 295.357206 
L 367.189531 295.4649 
L 367.200353 295.466341 
L 367.589952 295.485384 
L 373.185018 295.485287 
L 373.682839 295.432968 
L 373.726127 295.35218 
L 373.79106 295.457251 
L 373.931749 295.485508 
L 374.48368 295.416899 
L 374.516146 295.374806 
L 374.559435 295.474531 
L 374.581079 295.466855 
L 374.721768 295.480424 
L 374.970678 295.484837 
L 378.130754 295.483026 
L 378.368842 295.404864 
L 378.401309 295.335513 
L 378.466242 295.454034 
L 378.725974 295.481753 
L 379.061462 295.476923 
L 379.386127 295.482406 
L 379.829836 295.487314 
L 383.758287 295.480707 
L 384.007197 295.487539 
L 385.641346 295.379049 
L 385.673813 295.273819 
L 385.717102 295.440163 
L 385.738746 295.440837 
L 385.95519 295.481996 
L 386.236566 295.486618 
L 386.734386 295.433343 
L 386.777675 295.152165 
L 386.842608 295.402335 
L 386.983297 295.472977 
L 386.864253 295.385281 
L 386.994119 295.464231 
L 387.362073 295.486708 
L 388.152092 295.387135 
L 388.184558 295.276475 
L 388.227847 295.46063 
L 388.249491 295.424943 
L 388.336069 295.442519 
L 388.346891 295.465217 
L 388.476757 295.478603 
L 388.9854 295.48781 
L 389.245132 295.377289 
L 389.277598 295.276471 
L 389.310065 295.459196 
L 389.342532 295.416001 
L 391.106547 295.407805 
L 391.128191 295.390518 
L 391.182302 295.484131 
L 391.528612 295.487776 
L 392.686585 295.391909 
L 392.719051 295.363748 
L 392.76234 295.475358 
L 393.487426 295.460194 
L 393.552359 295.313771 
L 393.638937 295.427602 
L 393.920313 295.485012 
L 397.805475 295.329393 
L 397.82712 295.2221 
L 397.870409 295.425283 
L 397.892053 295.42466 
L 398.195074 295.482385 
L 398.487273 295.487505 
L 398.487273 295.487505 
" style="fill:none;stroke:#1f77b4;stroke-linecap:square;stroke-width:1.5;"/>
   </g>
   <g id="patch_3">
    <path d="M 57.6 307.584 
L 57.6 41.472 
" style="fill:none;stroke:#000000;stroke-linecap:square;stroke-linejoin:miter;stroke-width:0.8;"/>
   </g>
   <g id="patch_4">
    <path d="M 414.72 307.584 
L 414.72 41.472 
" style="fill:none;stroke:#000000;stroke-linecap:square;stroke-linejoin:miter;stroke-width:0.8;"/>
   </g>
   <g id="patch_5">
    <path d="M 57.6 307.584 
L 414.72 307.584 
" style="fill:none;stroke:#000000;stroke-linecap:square;stroke-linejoin:miter;stroke-width:0.8;"/>
   </g>
   <g id="patch_6">
    <path d="M 57.6 41.472 
L 414.72 41.472 
" style="fill:none;stroke:#000000;stroke-linecap:square;stroke-linejoin:miter;stroke-width:0.8;"/>
   </g>
  </g>
 </g>
 <defs>
  <clipPath id="p8089c52c71">
   <rect height="266.112" width="357.12" x="57.6" y="41.472"/>
  </clipPath>
 </defs>
</svg>
