<?xml version="1.0" encoding="utf-8" standalone="no"?>
<!DOCTYPE svg PUBLIC "-//W3C//DTD SVG 1.1//EN"
  "http://www.w3.org/Graphics/SVG/1.1/DTD/svg11.dtd">
<!-- Created with matplotlib (https://matplotlib.org/) -->
<svg height="345.6pt" version="1.1" viewBox="0 0 460.8 345.6" width="460.8pt" xmlns="http://www.w3.org/2000/svg" xmlns:xlink="http://www.w3.org/1999/xlink">
 <defs>
  <style type="text/css">
*{stroke-linecap:butt;stroke-linejoin:round;}
  </style>
 </defs>
 <g id="figure_1">
  <g id="patch_1">
   <path d="M 0 345.6 
L 460.8 345.6 
L 460.8 0 
L 0 0 
z
" style="fill:#ffffff;"/>
  </g>
  <g id="axes_1">
   <g id="patch_2">
    <path d="M 57.6 307.584 
L 414.72 307.584 
L 414.72 41.472 
L 57.6 41.472 
z
" style="fill:#ffffff;"/>
   </g>
   <g id="matplotlib.axis_1">
    <g id="xtick_1">
     <g id="line2d_1">
      <defs>
       <path d="M 0 0 
L 0 3.5 
" id="m2bb57cfb8b" style="stroke:#000000;stroke-width:0.8;"/>
      </defs>
      <g>
       <use style="stroke:#000000;stroke-width:0.8;" x="73.832727" xlink:href="#m2bb57cfb8b" y="307.584"/>
      </g>
     </g>
     <g id="text_1">
      <!-- 0 -->
      <defs>
       <path d="M 31.78125 66.40625 
Q 24.171875 66.40625 20.328125 58.90625 
Q 16.5 51.421875 16.5 36.375 
Q 16.5 21.390625 20.328125 13.890625 
Q 24.171875 6.390625 31.78125 6.390625 
Q 39.453125 6.390625 43.28125 13.890625 
Q 47.125 21.390625 47.125 36.375 
Q 47.125 51.421875 43.28125 58.90625 
Q 39.453125 66.40625 31.78125 66.40625 
z
M 31.78125 74.21875 
Q 44.046875 74.21875 50.515625 64.515625 
Q 56.984375 54.828125 56.984375 36.375 
Q 56.984375 17.96875 50.515625 8.265625 
Q 44.046875 -1.421875 31.78125 -1.421875 
Q 19.53125 -1.421875 13.0625 8.265625 
Q 6.59375 17.96875 6.59375 36.375 
Q 6.59375 54.828125 13.0625 64.515625 
Q 19.53125 74.21875 31.78125 74.21875 
z
" id="DejaVuSans-48"/>
      </defs>
      <g transform="translate(70.651477 322.182437)scale(0.1 -0.1)">
       <use xlink:href="#DejaVuSans-48"/>
      </g>
     </g>
    </g>
    <g id="xtick_2">
     <g id="line2d_2">
      <g>
       <use style="stroke:#000000;stroke-width:0.8;" x="143.801379" xlink:href="#m2bb57cfb8b" y="307.584"/>
      </g>
     </g>
     <g id="text_2">
      <!-- 10000 -->
      <defs>
       <path d="M 12.40625 8.296875 
L 28.515625 8.296875 
L 28.515625 63.921875 
L 10.984375 60.40625 
L 10.984375 69.390625 
L 28.421875 72.90625 
L 38.28125 72.90625 
L 38.28125 8.296875 
L 54.390625 8.296875 
L 54.390625 0 
L 12.40625 0 
z
" id="DejaVuSans-49"/>
      </defs>
      <g transform="translate(127.895129 322.182437)scale(0.1 -0.1)">
       <use xlink:href="#DejaVuSans-49"/>
       <use x="63.623047" xlink:href="#DejaVuSans-48"/>
       <use x="127.246094" xlink:href="#DejaVuSans-48"/>
       <use x="190.869141" xlink:href="#DejaVuSans-48"/>
       <use x="254.492188" xlink:href="#DejaVuSans-48"/>
      </g>
     </g>
    </g>
    <g id="xtick_3">
     <g id="line2d_3">
      <g>
       <use style="stroke:#000000;stroke-width:0.8;" x="213.770031" xlink:href="#m2bb57cfb8b" y="307.584"/>
      </g>
     </g>
     <g id="text_3">
      <!-- 20000 -->
      <defs>
       <path d="M 19.1875 8.296875 
L 53.609375 8.296875 
L 53.609375 0 
L 7.328125 0 
L 7.328125 8.296875 
Q 12.9375 14.109375 22.625 23.890625 
Q 32.328125 33.6875 34.8125 36.53125 
Q 39.546875 41.84375 41.421875 45.53125 
Q 43.3125 49.21875 43.3125 52.78125 
Q 43.3125 58.59375 39.234375 62.25 
Q 35.15625 65.921875 28.609375 65.921875 
Q 23.96875 65.921875 18.8125 64.3125 
Q 13.671875 62.703125 7.8125 59.421875 
L 7.8125 69.390625 
Q 13.765625 71.78125 18.9375 73 
Q 24.125 74.21875 28.421875 74.21875 
Q 39.75 74.21875 46.484375 68.546875 
Q 53.21875 62.890625 53.21875 53.421875 
Q 53.21875 48.921875 51.53125 44.890625 
Q 49.859375 40.875 45.40625 35.40625 
Q 44.1875 33.984375 37.640625 27.21875 
Q 31.109375 20.453125 19.1875 8.296875 
z
" id="DejaVuSans-50"/>
      </defs>
      <g transform="translate(197.863781 322.182437)scale(0.1 -0.1)">
       <use xlink:href="#DejaVuSans-50"/>
       <use x="63.623047" xlink:href="#DejaVuSans-48"/>
       <use x="127.246094" xlink:href="#DejaVuSans-48"/>
       <use x="190.869141" xlink:href="#DejaVuSans-48"/>
       <use x="254.492188" xlink:href="#DejaVuSans-48"/>
      </g>
     </g>
    </g>
    <g id="xtick_4">
     <g id="line2d_4">
      <g>
       <use style="stroke:#000000;stroke-width:0.8;" x="283.738683" xlink:href="#m2bb57cfb8b" y="307.584"/>
      </g>
     </g>
     <g id="text_4">
      <!-- 30000 -->
      <defs>
       <path d="M 40.578125 39.3125 
Q 47.65625 37.796875 51.625 33 
Q 55.609375 28.21875 55.609375 21.1875 
Q 55.609375 10.40625 48.1875 4.484375 
Q 40.765625 -1.421875 27.09375 -1.421875 
Q 22.515625 -1.421875 17.65625 -0.515625 
Q 12.796875 0.390625 7.625 2.203125 
L 7.625 11.71875 
Q 11.71875 9.328125 16.59375 8.109375 
Q 21.484375 6.890625 26.8125 6.890625 
Q 36.078125 6.890625 40.9375 10.546875 
Q 45.796875 14.203125 45.796875 21.1875 
Q 45.796875 27.640625 41.28125 31.265625 
Q 36.765625 34.90625 28.71875 34.90625 
L 20.21875 34.90625 
L 20.21875 43.015625 
L 29.109375 43.015625 
Q 36.375 43.015625 40.234375 45.921875 
Q 44.09375 48.828125 44.09375 54.296875 
Q 44.09375 59.90625 40.109375 62.90625 
Q 36.140625 65.921875 28.71875 65.921875 
Q 24.65625 65.921875 20.015625 65.03125 
Q 15.375 64.15625 9.8125 62.3125 
L 9.8125 71.09375 
Q 15.4375 72.65625 20.34375 73.4375 
Q 25.25 74.21875 29.59375 74.21875 
Q 40.828125 74.21875 47.359375 69.109375 
Q 53.90625 64.015625 53.90625 55.328125 
Q 53.90625 49.265625 50.4375 45.09375 
Q 46.96875 40.921875 40.578125 39.3125 
z
" id="DejaVuSans-51"/>
      </defs>
      <g transform="translate(267.832433 322.182437)scale(0.1 -0.1)">
       <use xlink:href="#DejaVuSans-51"/>
       <use x="63.623047" xlink:href="#DejaVuSans-48"/>
       <use x="127.246094" xlink:href="#DejaVuSans-48"/>
       <use x="190.869141" xlink:href="#DejaVuSans-48"/>
       <use x="254.492188" xlink:href="#DejaVuSans-48"/>
      </g>
     </g>
    </g>
    <g id="xtick_5">
     <g id="line2d_5">
      <g>
       <use style="stroke:#000000;stroke-width:0.8;" x="353.707335" xlink:href="#m2bb57cfb8b" y="307.584"/>
      </g>
     </g>
     <g id="text_5">
      <!-- 40000 -->
      <defs>
       <path d="M 37.796875 64.3125 
L 12.890625 25.390625 
L 37.796875 25.390625 
z
M 35.203125 72.90625 
L 47.609375 72.90625 
L 47.609375 25.390625 
L 58.015625 25.390625 
L 58.015625 17.1875 
L 47.609375 17.1875 
L 47.609375 0 
L 37.796875 0 
L 37.796875 17.1875 
L 4.890625 17.1875 
L 4.890625 26.703125 
z
" id="DejaVuSans-52"/>
      </defs>
      <g transform="translate(337.801085 322.182437)scale(0.1 -0.1)">
       <use xlink:href="#DejaVuSans-52"/>
       <use x="63.623047" xlink:href="#DejaVuSans-48"/>
       <use x="127.246094" xlink:href="#DejaVuSans-48"/>
       <use x="190.869141" xlink:href="#DejaVuSans-48"/>
       <use x="254.492188" xlink:href="#DejaVuSans-48"/>
      </g>
     </g>
    </g>
    <g id="text_6">
     <!-- z / cm -->
     <defs>
      <path d="M 5.515625 54.6875 
L 48.1875 54.6875 
L 48.1875 46.484375 
L 14.40625 7.171875 
L 48.1875 7.171875 
L 48.1875 0 
L 4.296875 0 
L 4.296875 8.203125 
L 38.09375 47.515625 
L 5.515625 47.515625 
z
" id="DejaVuSans-122"/>
      <path id="DejaVuSans-32"/>
      <path d="M 25.390625 72.90625 
L 33.6875 72.90625 
L 8.296875 -9.28125 
L 0 -9.28125 
z
" id="DejaVuSans-47"/>
      <path d="M 48.78125 52.59375 
L 48.78125 44.1875 
Q 44.96875 46.296875 41.140625 47.34375 
Q 37.3125 48.390625 33.40625 48.390625 
Q 24.65625 48.390625 19.8125 42.84375 
Q 14.984375 37.3125 14.984375 27.296875 
Q 14.984375 17.28125 19.8125 11.734375 
Q 24.65625 6.203125 33.40625 6.203125 
Q 37.3125 6.203125 41.140625 7.25 
Q 44.96875 8.296875 48.78125 10.40625 
L 48.78125 2.09375 
Q 45.015625 0.34375 40.984375 -0.53125 
Q 36.96875 -1.421875 32.421875 -1.421875 
Q 20.0625 -1.421875 12.78125 6.34375 
Q 5.515625 14.109375 5.515625 27.296875 
Q 5.515625 40.671875 12.859375 48.328125 
Q 20.21875 56 33.015625 56 
Q 37.15625 56 41.109375 55.140625 
Q 45.0625 54.296875 48.78125 52.59375 
z
" id="DejaVuSans-99"/>
      <path d="M 52 44.1875 
Q 55.375 50.25 60.0625 53.125 
Q 64.75 56 71.09375 56 
Q 79.640625 56 84.28125 50.015625 
Q 88.921875 44.046875 88.921875 33.015625 
L 88.921875 0 
L 79.890625 0 
L 79.890625 32.71875 
Q 79.890625 40.578125 77.09375 44.375 
Q 74.3125 48.1875 68.609375 48.1875 
Q 61.625 48.1875 57.5625 43.546875 
Q 53.515625 38.921875 53.515625 30.90625 
L 53.515625 0 
L 44.484375 0 
L 44.484375 32.71875 
Q 44.484375 40.625 41.703125 44.40625 
Q 38.921875 48.1875 33.109375 48.1875 
Q 26.21875 48.1875 22.15625 43.53125 
Q 18.109375 38.875 18.109375 30.90625 
L 18.109375 0 
L 9.078125 0 
L 9.078125 54.6875 
L 18.109375 54.6875 
L 18.109375 46.1875 
Q 21.1875 51.21875 25.484375 53.609375 
Q 29.78125 56 35.6875 56 
Q 41.65625 56 45.828125 52.96875 
Q 50 49.953125 52 44.1875 
z
" id="DejaVuSans-109"/>
     </defs>
     <g transform="translate(221.05375 335.860562)scale(0.1 -0.1)">
      <use xlink:href="#DejaVuSans-122"/>
      <use x="52.490234" xlink:href="#DejaVuSans-32"/>
      <use x="84.277344" xlink:href="#DejaVuSans-47"/>
      <use x="117.96875" xlink:href="#DejaVuSans-32"/>
      <use x="149.755859" xlink:href="#DejaVuSans-99"/>
      <use x="204.736328" xlink:href="#DejaVuSans-109"/>
     </g>
    </g>
   </g>
   <g id="matplotlib.axis_2">
    <g id="ytick_1">
     <g id="line2d_6">
      <defs>
       <path d="M 0 0 
L -3.5 0 
" id="m022340f723" style="stroke:#000000;stroke-width:0.8;"/>
      </defs>
      <g>
       <use style="stroke:#000000;stroke-width:0.8;" x="57.6" xlink:href="#m022340f723" y="295.143162"/>
      </g>
     </g>
     <g id="text_7">
      <!-- 0 -->
      <g transform="translate(44.2375 298.942381)scale(0.1 -0.1)">
       <use xlink:href="#DejaVuSans-48"/>
      </g>
     </g>
    </g>
    <g id="ytick_2">
     <g id="line2d_7">
      <g>
       <use style="stroke:#000000;stroke-width:0.8;" x="57.6" xlink:href="#m022340f723" y="263.770532"/>
      </g>
     </g>
     <g id="text_8">
      <!-- 1000 -->
      <g transform="translate(25.15 267.569751)scale(0.1 -0.1)">
       <use xlink:href="#DejaVuSans-49"/>
       <use x="63.623047" xlink:href="#DejaVuSans-48"/>
       <use x="127.246094" xlink:href="#DejaVuSans-48"/>
       <use x="190.869141" xlink:href="#DejaVuSans-48"/>
      </g>
     </g>
    </g>
    <g id="ytick_3">
     <g id="line2d_8">
      <g>
       <use style="stroke:#000000;stroke-width:0.8;" x="57.6" xlink:href="#m022340f723" y="232.397903"/>
      </g>
     </g>
     <g id="text_9">
      <!-- 2000 -->
      <g transform="translate(25.15 236.197121)scale(0.1 -0.1)">
       <use xlink:href="#DejaVuSans-50"/>
       <use x="63.623047" xlink:href="#DejaVuSans-48"/>
       <use x="127.246094" xlink:href="#DejaVuSans-48"/>
       <use x="190.869141" xlink:href="#DejaVuSans-48"/>
      </g>
     </g>
    </g>
    <g id="ytick_4">
     <g id="line2d_9">
      <g>
       <use style="stroke:#000000;stroke-width:0.8;" x="57.6" xlink:href="#m022340f723" y="201.025273"/>
      </g>
     </g>
     <g id="text_10">
      <!-- 3000 -->
      <g transform="translate(25.15 204.824492)scale(0.1 -0.1)">
       <use xlink:href="#DejaVuSans-51"/>
       <use x="63.623047" xlink:href="#DejaVuSans-48"/>
       <use x="127.246094" xlink:href="#DejaVuSans-48"/>
       <use x="190.869141" xlink:href="#DejaVuSans-48"/>
      </g>
     </g>
    </g>
    <g id="ytick_5">
     <g id="line2d_10">
      <g>
       <use style="stroke:#000000;stroke-width:0.8;" x="57.6" xlink:href="#m022340f723" y="169.652643"/>
      </g>
     </g>
     <g id="text_11">
      <!-- 4000 -->
      <g transform="translate(25.15 173.451862)scale(0.1 -0.1)">
       <use xlink:href="#DejaVuSans-52"/>
       <use x="63.623047" xlink:href="#DejaVuSans-48"/>
       <use x="127.246094" xlink:href="#DejaVuSans-48"/>
       <use x="190.869141" xlink:href="#DejaVuSans-48"/>
      </g>
     </g>
    </g>
    <g id="ytick_6">
     <g id="line2d_11">
      <g>
       <use style="stroke:#000000;stroke-width:0.8;" x="57.6" xlink:href="#m022340f723" y="138.280013"/>
      </g>
     </g>
     <g id="text_12">
      <!-- 5000 -->
      <defs>
       <path d="M 10.796875 72.90625 
L 49.515625 72.90625 
L 49.515625 64.59375 
L 19.828125 64.59375 
L 19.828125 46.734375 
Q 21.96875 47.46875 24.109375 47.828125 
Q 26.265625 48.1875 28.421875 48.1875 
Q 40.625 48.1875 47.75 41.5 
Q 54.890625 34.8125 54.890625 23.390625 
Q 54.890625 11.625 47.5625 5.09375 
Q 40.234375 -1.421875 26.90625 -1.421875 
Q 22.3125 -1.421875 17.546875 -0.640625 
Q 12.796875 0.140625 7.71875 1.703125 
L 7.71875 11.625 
Q 12.109375 9.234375 16.796875 8.0625 
Q 21.484375 6.890625 26.703125 6.890625 
Q 35.15625 6.890625 40.078125 11.328125 
Q 45.015625 15.765625 45.015625 23.390625 
Q 45.015625 31 40.078125 35.4375 
Q 35.15625 39.890625 26.703125 39.890625 
Q 22.75 39.890625 18.8125 39.015625 
Q 14.890625 38.140625 10.796875 36.28125 
z
" id="DejaVuSans-53"/>
      </defs>
      <g transform="translate(25.15 142.079232)scale(0.1 -0.1)">
       <use xlink:href="#DejaVuSans-53"/>
       <use x="63.623047" xlink:href="#DejaVuSans-48"/>
       <use x="127.246094" xlink:href="#DejaVuSans-48"/>
       <use x="190.869141" xlink:href="#DejaVuSans-48"/>
      </g>
     </g>
    </g>
    <g id="ytick_7">
     <g id="line2d_12">
      <g>
       <use style="stroke:#000000;stroke-width:0.8;" x="57.6" xlink:href="#m022340f723" y="106.907384"/>
      </g>
     </g>
     <g id="text_13">
      <!-- 6000 -->
      <defs>
       <path d="M 33.015625 40.375 
Q 26.375 40.375 22.484375 35.828125 
Q 18.609375 31.296875 18.609375 23.390625 
Q 18.609375 15.53125 22.484375 10.953125 
Q 26.375 6.390625 33.015625 6.390625 
Q 39.65625 6.390625 43.53125 10.953125 
Q 47.40625 15.53125 47.40625 23.390625 
Q 47.40625 31.296875 43.53125 35.828125 
Q 39.65625 40.375 33.015625 40.375 
z
M 52.59375 71.296875 
L 52.59375 62.3125 
Q 48.875 64.0625 45.09375 64.984375 
Q 41.3125 65.921875 37.59375 65.921875 
Q 27.828125 65.921875 22.671875 59.328125 
Q 17.53125 52.734375 16.796875 39.40625 
Q 19.671875 43.65625 24.015625 45.921875 
Q 28.375 48.1875 33.59375 48.1875 
Q 44.578125 48.1875 50.953125 41.515625 
Q 57.328125 34.859375 57.328125 23.390625 
Q 57.328125 12.15625 50.6875 5.359375 
Q 44.046875 -1.421875 33.015625 -1.421875 
Q 20.359375 -1.421875 13.671875 8.265625 
Q 6.984375 17.96875 6.984375 36.375 
Q 6.984375 53.65625 15.1875 63.9375 
Q 23.390625 74.21875 37.203125 74.21875 
Q 40.921875 74.21875 44.703125 73.484375 
Q 48.484375 72.75 52.59375 71.296875 
z
" id="DejaVuSans-54"/>
      </defs>
      <g transform="translate(25.15 110.706602)scale(0.1 -0.1)">
       <use xlink:href="#DejaVuSans-54"/>
       <use x="63.623047" xlink:href="#DejaVuSans-48"/>
       <use x="127.246094" xlink:href="#DejaVuSans-48"/>
       <use x="190.869141" xlink:href="#DejaVuSans-48"/>
      </g>
     </g>
    </g>
    <g id="ytick_8">
     <g id="line2d_13">
      <g>
       <use style="stroke:#000000;stroke-width:0.8;" x="57.6" xlink:href="#m022340f723" y="75.534754"/>
      </g>
     </g>
     <g id="text_14">
      <!-- 7000 -->
      <defs>
       <path d="M 8.203125 72.90625 
L 55.078125 72.90625 
L 55.078125 68.703125 
L 28.609375 0 
L 18.3125 0 
L 43.21875 64.59375 
L 8.203125 64.59375 
z
" id="DejaVuSans-55"/>
      </defs>
      <g transform="translate(25.15 79.333973)scale(0.1 -0.1)">
       <use xlink:href="#DejaVuSans-55"/>
       <use x="63.623047" xlink:href="#DejaVuSans-48"/>
       <use x="127.246094" xlink:href="#DejaVuSans-48"/>
       <use x="190.869141" xlink:href="#DejaVuSans-48"/>
      </g>
     </g>
    </g>
    <g id="ytick_9">
     <g id="line2d_14">
      <g>
       <use style="stroke:#000000;stroke-width:0.8;" x="57.6" xlink:href="#m022340f723" y="44.162124"/>
      </g>
     </g>
     <g id="text_15">
      <!-- 8000 -->
      <defs>
       <path d="M 31.78125 34.625 
Q 24.75 34.625 20.71875 30.859375 
Q 16.703125 27.09375 16.703125 20.515625 
Q 16.703125 13.921875 20.71875 10.15625 
Q 24.75 6.390625 31.78125 6.390625 
Q 38.8125 6.390625 42.859375 10.171875 
Q 46.921875 13.96875 46.921875 20.515625 
Q 46.921875 27.09375 42.890625 30.859375 
Q 38.875 34.625 31.78125 34.625 
z
M 21.921875 38.8125 
Q 15.578125 40.375 12.03125 44.71875 
Q 8.5 49.078125 8.5 55.328125 
Q 8.5 64.0625 14.71875 69.140625 
Q 20.953125 74.21875 31.78125 74.21875 
Q 42.671875 74.21875 48.875 69.140625 
Q 55.078125 64.0625 55.078125 55.328125 
Q 55.078125 49.078125 51.53125 44.71875 
Q 48 40.375 41.703125 38.8125 
Q 48.828125 37.15625 52.796875 32.3125 
Q 56.78125 27.484375 56.78125 20.515625 
Q 56.78125 9.90625 50.3125 4.234375 
Q 43.84375 -1.421875 31.78125 -1.421875 
Q 19.734375 -1.421875 13.25 4.234375 
Q 6.78125 9.90625 6.78125 20.515625 
Q 6.78125 27.484375 10.78125 32.3125 
Q 14.796875 37.15625 21.921875 38.8125 
z
M 18.3125 54.390625 
Q 18.3125 48.734375 21.84375 45.5625 
Q 25.390625 42.390625 31.78125 42.390625 
Q 38.140625 42.390625 41.71875 45.5625 
Q 45.3125 48.734375 45.3125 54.390625 
Q 45.3125 60.0625 41.71875 63.234375 
Q 38.140625 66.40625 31.78125 66.40625 
Q 25.390625 66.40625 21.84375 63.234375 
Q 18.3125 60.0625 18.3125 54.390625 
z
" id="DejaVuSans-56"/>
      </defs>
      <g transform="translate(25.15 47.961343)scale(0.1 -0.1)">
       <use xlink:href="#DejaVuSans-56"/>
       <use x="63.623047" xlink:href="#DejaVuSans-48"/>
       <use x="127.246094" xlink:href="#DejaVuSans-48"/>
       <use x="190.869141" xlink:href="#DejaVuSans-48"/>
      </g>
     </g>
    </g>
    <g id="text_16">
     <!-- h / cm -->
     <defs>
      <path d="M 54.890625 33.015625 
L 54.890625 0 
L 45.90625 0 
L 45.90625 32.71875 
Q 45.90625 40.484375 42.875 44.328125 
Q 39.84375 48.1875 33.796875 48.1875 
Q 26.515625 48.1875 22.3125 43.546875 
Q 18.109375 38.921875 18.109375 30.90625 
L 18.109375 0 
L 9.078125 0 
L 9.078125 75.984375 
L 18.109375 75.984375 
L 18.109375 46.1875 
Q 21.34375 51.125 25.703125 53.5625 
Q 30.078125 56 35.796875 56 
Q 45.21875 56 50.046875 50.171875 
Q 54.890625 44.34375 54.890625 33.015625 
z
" id="DejaVuSans-104"/>
     </defs>
     <g transform="translate(19.070312 190.178781)rotate(-90)scale(0.1 -0.1)">
      <use xlink:href="#DejaVuSans-104"/>
      <use x="63.378906" xlink:href="#DejaVuSans-32"/>
      <use x="95.166016" xlink:href="#DejaVuSans-47"/>
      <use x="128.857422" xlink:href="#DejaVuSans-32"/>
      <use x="160.644531" xlink:href="#DejaVuSans-99"/>
      <use x="215.625" xlink:href="#DejaVuSans-109"/>
     </g>
    </g>
   </g>
   <g id="line2d_15">
    <path clip-path="url(#pc2699fb3af)" d="M 73.832727 53.568 
L 74.231549 293.821526 
L 74.245542 293.048785 
L 74.40647 294.465229 
L 74.413467 294.462689 
L 75.169129 294.972125 
L 76.449555 295.109789 
L 80.178884 295.140811 
L 88.722056 295.065168 
L 88.743047 295.024679 
L 88.771034 295.141252 
L 88.813016 295.134419 
L 88.966947 295.142226 
L 89.736602 295.093975 
L 89.771586 294.915104 
L 89.813567 295.141959 
L 89.848552 295.074144 
L 89.974495 295.138658 
L 90.240376 295.142411 
L 90.702169 295.044451 
L 90.74415 294.721306 
L 90.772138 295.138415 
L 90.807122 295.058165 
L 90.919072 295.14196 
L 90.926069 295.134684 
L 91.059009 295.142051 
L 91.891636 295.112848 
L 91.940614 294.738501 
L 91.947611 294.611663 
L 91.982596 295.134469 
L 92.024577 295.127135 
L 92.12953 295.139298 
L 92.052564 295.057668 
L 92.143524 295.120677 
L 92.61931 295.142803 
L 93.186056 295.042924 
L 93.228038 294.553756 
L 93.256025 295.142305 
L 93.291009 295.023648 
L 93.395962 295.142764 
L 93.409956 295.120979 
L 93.577881 295.142586 
L 94.550445 295.093181 
L 94.599423 294.485539 
L 94.627411 295.137578 
L 94.662395 294.982639 
L 94.767348 295.142562 
L 94.781342 295.1218 
L 94.914282 295.141703 
L 95.355085 295.142906 
L 95.928828 295.045856 
L 95.963812 294.541655 
L 95.998796 295.139811 
L 96.033781 294.997105 
L 96.152727 295.142328 
L 96.299661 295.142535 
L 97.17427 295.076315 
L 97.216251 294.486473 
L 97.251235 295.140746 
L 97.286219 294.990533 
L 97.405166 295.141599 
L 97.538107 295.139223 
L 97.90894 295.142938 
L 98.405718 295.033348 
L 98.447699 294.633856 
L 98.482683 295.138851 
L 98.517668 295.029896 
L 98.643611 295.14093 
L 99.084414 295.142984 
L 99.441254 295.043832 
L 99.483235 294.720295 
L 99.518219 295.140257 
L 99.553204 295.024724 
L 99.721129 295.138394 
L 100.008 295.142846 
L 100.350846 295.048515 
L 100.392828 294.797535 
L 100.434809 295.142639 
L 100.462796 295.049483 
L 100.469793 295.040823 
L 100.497781 295.140145 
L 100.546759 295.117585 
L 100.686696 295.138415 
L 101.183473 295.12369 
L 101.239448 294.832067 
L 101.246445 294.703281 
L 101.288426 295.142419 
L 101.330408 295.056497 
L 101.456351 295.13498 
L 101.631273 295.141492 
L 102.177028 295.042386 
L 102.219009 294.743494 
L 102.253994 295.139363 
L 102.288978 295.03036 
L 102.498884 295.139713 
L 102.918696 295.142938 
L 103.079624 295.067784 
L 103.128602 294.782966 
L 103.163586 295.142671 
L 103.191574 295.026587 
L 103.366495 295.142626 
L 103.821292 295.142608 
L 103.954232 295.036287 
L 103.989216 294.8129 
L 104.031197 295.140951 
L 104.059185 295.059541 
L 104.066182 295.043406 
L 104.101166 295.142752 
L 104.150144 295.124501 
L 104.297078 295.139625 
L 104.737881 295.095049 
L 104.786859 294.861528 
L 104.835837 295.136055 
L 105.087724 295.141058 
L 105.514533 295.03152 
L 105.549517 294.877058 
L 105.598495 295.113786 
L 105.612489 295.106173 
L 105.717442 295.121498 
L 105.731436 295.135642 
L 105.920351 295.14237 
L 106.277191 295.067909 
L 106.326169 294.823809 
L 106.361154 295.135105 
L 106.389141 295.049637 
L 106.9279 295.14299 
L 107.130809 295.046185 
L 107.165793 294.835733 
L 107.228765 295.109592 
L 107.837492 295.142961 
L 107.984426 295.071883 
L 108.033404 294.745901 
L 108.068389 295.141747 
L 108.096376 295.011268 
L 108.236313 295.131734 
L 108.425229 295.141945 
L 108.936 295.067384 
L 108.984978 294.787158 
L 109.019962 295.135397 
L 109.04795 295.026626 
L 109.208878 295.14286 
L 109.866583 294.999518 
L 109.894571 294.831113 
L 109.950545 295.098938 
L 109.98553 295.054751 
L 110.104476 295.130744 
L 110.391348 295.142982 
L 110.741191 295.047569 
L 110.783172 294.796965 
L 110.825154 295.140744 
L 110.853141 295.045774 
L 111.608803 295.003859 
L 111.629793 294.866339 
L 111.678771 295.13313 
L 111.706759 295.071186 
L 112.070596 295.142532 
L 112.378458 295.058887 
L 112.413442 294.89297 
L 112.476414 295.112002 
L 113.246069 294.93254 
L 113.26706 294.63613 
L 113.309041 295.131363 
L 113.344025 295.035118 
L 113.462972 295.139988 
L 113.749843 295.142739 
L 114.379561 295.04741 
L 114.400552 294.912122 
L 114.435536 295.119455 
L 114.484514 295.08911 
L 114.498508 295.037708 
L 114.568476 295.135285 
L 114.58247 295.128671 
L 114.967298 295.132102 
L 115.016276 294.995901 
L 115.05126 294.774443 
L 115.086245 295.136246 
L 115.121229 295.055625 
L 115.247172 295.135766 
L 115.436088 295.142078 
L 115.98884 295.071539 
L 116.037818 294.800607 
L 116.072803 295.142816 
L 116.10079 295.029038 
L 116.254721 295.141062 
L 116.688527 295.143042 
L 116.898433 295.06962 
L 116.947411 294.837221 
L 116.982395 295.142865 
L 117.010382 295.044795 
L 117.199298 295.140537 
L 117.787034 294.910515 
L 117.794031 294.863195 
L 117.836013 295.141911 
L 117.870997 295.060758 
L 118.010934 295.132368 
L 118.507712 295.11591 
L 118.57768 294.911428 
L 118.668639 295.095997 
L 118.808577 295.136883 
L 119.277367 295.007707 
L 119.298357 294.910276 
L 119.347335 295.138686 
L 119.375323 295.084247 
L 119.697179 295.143048 
L 119.98405 295.057627 
L 120.019034 294.929924 
L 120.068013 295.127721 
L 120.082006 295.112134 
L 120.179962 295.127238 
L 120.193956 295.13693 
L 120.466834 295.142096 
L 120.592777 295.053203 
L 120.613768 294.982189 
L 120.662746 295.125423 
L 120.690734 295.099908 
L 120.900639 295.140389 
L 121.208502 295.064239 
L 121.243486 294.826358 
L 121.292464 295.123971 
L 121.320451 295.056656 
L 121.572339 295.142798 
L 122.1041 295.008325 
L 122.132088 294.821969 
L 122.174069 295.138979 
L 122.209053 295.043436 
L 122.348991 295.133542 
L 122.558897 295.142558 
L 122.999699 295.051489 
L 123.034683 294.819167 
L 123.083661 295.114316 
L 123.104652 295.069241 
L 123.188614 295.120315 
L 123.139636 295.122463 
L 123.195611 295.127593 
L 123.384527 295.141154 
L 123.930282 295.080241 
L 123.972263 294.745553 
L 124.014245 295.133625 
L 124.049229 295.048741 
L 124.168176 295.14116 
L 124.175172 295.138486 
L 124.350094 295.142054 
L 124.853868 295.029899 
L 124.874859 294.97834 
L 124.944828 295.133087 
L 125.077768 295.136495 
L 125.434608 295.00247 
L 125.455599 294.950559 
L 125.49758 295.139269 
L 125.525567 295.102945 
L 125.574545 295.14127 
L 125.637517 295.135698 
L 125.882408 295.14295 
L 126.141292 295.060305 
L 126.176276 294.840104 
L 126.218257 295.140176 
L 126.253241 295.04859 
L 126.393179 295.134149 
L 126.624075 295.142629 
L 127.12785 295.056629 
L 127.162834 294.618975 
L 127.197818 295.126312 
L 127.232803 295.032288 
L 127.358746 295.133579 
L 127.50568 295.14116 
L 128.240351 294.98359 
L 128.247348 294.952542 
L 128.282332 295.095699 
L 128.324313 295.098303 
L 128.44326 295.143051 
L 128.982019 295.128077 
L 129.121956 295.138857 
L 129.646721 295.142641 
L 129.723687 295.06222 
L 129.758671 294.601468 
L 129.793655 295.136186 
L 129.828639 295.022632 
L 129.926596 295.133112 
L 129.947586 295.117072 
L 130.087524 295.142586 
L 130.843185 295.0613 
L 130.913154 294.9146 
L 130.941141 295.107029 
L 131.081078 295.131428 
L 131.318972 295.142839 
L 131.619837 295.055352 
L 131.661818 294.904363 
L 131.696803 295.140516 
L 131.72479 295.073608 
L 132.466458 295.094255 
L 132.508439 294.910086 
L 132.55042 295.139488 
L 132.592401 295.079003 
L 132.767323 295.141482 
L 133.439022 295.021768 
L 133.467009 294.819467 
L 133.508991 295.109038 
L 133.536978 295.075322 
L 133.543975 295.064562 
L 133.578959 295.139323 
L 133.62094 295.133549 
L 133.767875 295.142469 
L 134.432577 295.007463 
L 134.453567 294.838131 
L 134.495549 295.141274 
L 134.530533 295.047148 
L 134.656476 295.137171 
L 134.873379 295.142848 
L 135.433129 295.06903 
L 135.566069 294.894544 
L 135.4961 295.132329 
L 135.573066 294.91923 
L 135.580063 294.898791 
L 135.60805 295.142584 
L 135.636038 295.053687 
L 135.796966 295.136936 
L 136.118821 295.143055 
L 136.629592 295.041581 
L 136.664577 294.918546 
L 136.706558 295.13834 
L 136.748539 294.992611 
L 136.755536 294.962439 
L 136.79052 295.142619 
L 136.825505 295.11771 
L 136.958445 295.142618 
L 137.266307 295.140976 
L 138.497755 295.142159 
L 138.66568 295.056669 
L 138.700665 294.980121 
L 138.742646 295.141648 
L 138.763636 295.119885 
L 138.882583 295.133678 
L 139.274408 295.138823 
L 139.351373 295.04304 
L 139.386357 294.949379 
L 139.428339 295.140795 
L 139.456326 295.079842 
L 139.540288 295.118129 
L 139.498307 295.135252 
L 139.554282 295.132072 
L 139.722207 295.141801 
L 140.163009 295.05777 
L 140.190997 294.881949 
L 140.260966 295.11046 
L 140.386909 295.140626 
L 140.87669 295.143061 
L 141.051611 295.042748 
L 141.079599 294.861686 
L 141.12158 295.138865 
L 141.156564 295.051802 
L 141.289505 295.139188 
L 141.562382 295.143065 
L 142.129129 295.055718 
L 142.17111 294.703714 
L 142.199097 295.127689 
L 142.234082 295.025649 
L 142.339034 295.130407 
L 142.353028 295.126801 
L 142.674884 295.143083 
L 143.374571 295.055529 
L 143.437542 294.789533 
L 143.458533 295.127475 
L 143.48652 294.995899 
L 143.57748 295.142838 
L 143.605467 295.126599 
L 143.738408 295.141422 
L 144.4241 295.113931 
L 144.564038 295.141197 
L 145.074809 295.143032 
L 145.22874 295.066309 
L 145.263724 294.920779 
L 145.305705 295.142033 
L 145.333693 295.087073 
L 145.417655 295.123749 
L 145.375674 295.143006 
L 145.431649 295.137407 
L 145.641555 295.142106 
L 146.180313 295.065491 
L 146.215298 294.612348 
L 146.250282 295.136113 
L 146.292263 295.056322 
L 146.404213 295.138757 
L 146.41121 295.132392 
L 146.586132 295.142953 
L 147.586683 295.073389 
L 147.621668 294.736785 
L 147.663649 295.131106 
L 147.698633 295.065911 
L 147.81758 295.13916 
L 148.034483 295.142361 
L 148.783147 295.067489 
L 148.811135 294.832794 
L 148.846119 295.122664 
L 148.881103 295.072299 
L 148.97906 295.14229 
L 149.00005 295.125842 
L 149.279925 295.142957 
L 149.573793 295.066381 
L 149.608777 294.8445 
L 149.643762 295.119204 
L 149.678746 295.066211 
L 149.82568 295.14065 
L 150.084564 295.143076 
L 150.637317 295.061749 
L 150.672301 294.82083 
L 150.707285 295.139284 
L 150.74227 295.055977 
L 150.87521 295.143084 
L 151.267034 295.143123 
L 151.749818 295.044853 
L 151.784803 294.847037 
L 151.819787 295.143022 
L 151.854771 295.067667 
L 151.980715 295.139297 
L 151.987712 295.135856 
L 152.260589 295.143117 
L 152.708389 295.04463 
L 152.743373 294.970067 
L 152.785354 295.138784 
L 152.813342 295.075682 
L 153.072226 295.142193 
L 155.157292 294.967233 
L 155.178282 294.490426 
L 155.20627 295.120923 
L 155.262245 295.052796 
L 155.360201 295.137556 
L 155.283235 294.994035 
L 155.374194 295.110723 
L 155.500138 295.142234 
L 155.808 295.143111 
L 156.528677 295.055922 
L 156.556665 294.901002 
L 156.598646 295.140498 
L 156.63363 295.083898 
L 156.759574 295.140245 
L 157.249354 295.143141 
L 157.788113 295.033531 
L 157.8161 294.895545 
L 157.865078 295.115395 
L 157.886069 295.088225 
L 157.893066 295.075123 
L 157.921053 295.14249 
L 157.984025 295.134865 
L 158.445818 295.14309 
L 158.669718 295.046201 
L 158.690708 294.950023 
L 158.739687 295.140875 
L 158.774671 295.08845 
L 159.348414 295.142006 
L 159.460364 295.032625 
L 159.488351 294.981505 
L 159.523335 295.131967 
L 159.698257 295.139411 
L 160.083085 295.130291 
L 160.265003 295.126173 
L 160.418934 295.140271 
L 160.838746 295.074975 
L 160.880727 294.974323 
L 160.922708 295.141686 
L 160.950696 295.097844 
L 161.083636 295.139789 
L 161.664376 294.997848 
L 161.685367 294.869382 
L 161.727348 295.138815 
L 161.762332 295.053324 
L 161.888276 295.141631 
L 162.105179 295.1422 
L 162.692915 295.030941 
L 162.706909 294.956977 
L 162.741893 295.125202 
L 162.776878 295.099158 
L 162.888828 295.143016 
L 162.895824 295.140049 
L 163.10573 295.142513 
L 163.308639 295.04248 
L 163.315636 295.022025 
L 163.371611 295.142399 
L 163.399599 295.117052 
L 163.539536 295.142497 
L 163.924364 295.067921 
L 163.959348 295.010691 
L 164.001329 295.142327 
L 164.02232 295.124 
L 164.148263 295.1385 
L 164.519097 295.140238 
L 164.610056 295.0422 
L 164.631047 294.970809 
L 164.680025 295.143099 
L 164.708013 295.095977 
L 165.330734 295.138025 
L 165.393705 295.048033 
L 165.42869 294.935497 
L 165.463674 295.14073 
L 165.498658 295.086245 
L 165.67358 295.139856 
L 166.205342 295.036894 
L 166.212339 295.015094 
L 166.25432 295.139387 
L 166.296301 295.113203 
L 166.436238 295.142058 
L 168.542295 295.019361 
L 168.549292 294.994199 
L 168.612263 295.135185 
L 168.640251 295.065686 
L 168.836163 295.132616 
L 170.732313 295.143101 
L 171.040176 295.053162 
L 171.131135 294.977307 
L 171.09615 295.116939 
L 171.145129 295.025129 
L 171.243085 295.13935 
L 171.271072 295.12371 
L 171.459987 295.14208 
L 172.152677 295.036463 
L 172.187661 294.788292 
L 172.215649 295.140321 
L 172.25763 295.001402 
L 172.278621 295.139657 
L 172.362583 294.948415 
L 172.586483 295.140074 
L 172.810382 295.142815 
L 173.629016 295.058815 
L 173.650006 294.965581 
L 173.691987 295.14035 
L 173.726972 295.125885 
L 173.852915 295.140567 
L 174.26573 295.143135 
L 174.909442 295.053985 
L 174.937429 294.859009 
L 174.979411 295.139751 
L 175.014395 295.087801 
L 175.119348 295.14305 
L 175.133342 295.13327 
L 175.497179 295.14308 
L 175.805041 295.054296 
L 175.833028 294.632964 
L 175.854019 295.107638 
L 175.909994 295.03972 
L 176.021944 295.141825 
L 176.02894 295.132932 
L 176.182871 295.142924 
L 177.127448 295.128216 
L 177.260389 295.143056 
L 178.030044 294.976876 
L 178.037041 294.921061 
L 178.079022 295.132283 
L 178.128 295.086546 
L 178.232953 295.13984 
L 178.246947 295.133335 
L 179.163536 295.141609 
L 179.653317 295.101307 
L 179.695298 294.976897 
L 179.77926 295.100612 
L 179.954182 295.143036 
L 180.569906 295.03215 
L 180.597893 294.866105 
L 180.632878 295.140658 
L 180.667862 295.071888 
L 180.821793 295.140342 
L 181.136652 295.137129 
L 181.65442 295.143126 
L 181.843335 295.068417 
L 181.87832 294.92956 
L 181.913304 295.140767 
L 181.948288 295.09644 
L 182.088226 295.142503 
L 182.529028 295.14315 
L 182.92785 295.055629 
L 182.955837 294.896773 
L 182.997818 295.141934 
L 183.032803 295.080408 
L 183.151749 295.141705 
L 183.158746 295.140025 
L 183.403636 295.142889 
L 184.844991 295.054787 
L 184.872978 294.965276 
L 184.914959 295.139403 
L 184.942947 295.102822 
L 184.977931 295.135519 
L 185.0479 295.141163 
L 185.586658 295.142732 
L 185.712602 295.02939 
L 185.733592 294.94531 
L 185.775574 295.143041 
L 185.810558 295.066545 
L 185.971486 295.142583 
L 186.853091 295.132973 
L 187.007022 295.140998 
L 187.510796 295.023313 
L 187.517793 294.993716 
L 187.566771 295.141459 
L 187.601755 295.102223 
L 187.923611 295.142628 
L 188.308439 295.067416 
L 188.343423 294.96288 
L 188.378408 295.140591 
L 188.413392 295.093653 
L 188.833204 295.14312 
L 189.183047 295.060146 
L 189.218031 294.967718 
L 189.253016 295.138364 
L 189.294997 295.04959 
L 189.448928 295.140124 
L 189.819762 295.143114 
L 190.204589 295.046597 
L 190.267561 294.997772 
L 190.246571 295.088151 
L 190.309542 295.085059 
L 190.44948 295.138607 
L 190.69437 295.126648 
L 190.848301 295.006363 
L 190.862295 295.099898 
L 190.876288 295.13721 
L 190.91827 294.885764 
L 190.925266 294.652198 
L 191.002232 295.141154 
L 191.023223 295.060654 
L 191.135172 295.142077 
L 191.142169 295.129096 
L 192.051762 295.143151 
L 192.261668 295.040573 
L 192.282658 294.997847 
L 192.310646 295.142821 
L 192.359624 295.126291 
L 192.485567 295.139782 
L 192.905379 295.143144 
L 193.570082 295.062202 
L 193.605066 294.830314 
L 193.633053 295.141681 
L 193.675034 295.11098 
L 193.779987 295.142896 
L 193.703022 295.092798 
L 193.793981 295.131984 
L 194.080853 295.143129 
L 194.983448 295.059568 
L 195.011436 294.787833 
L 195.04642 295.138672 
L 195.081404 295.0574 
L 195.186357 295.137417 
L 195.200351 295.131522 
L 195.781091 295.143152 
L 196.501768 295.059709 
L 196.536752 294.802523 
L 196.571737 295.102528 
L 196.606721 295.062594 
L 196.711674 295.140185 
L 196.725668 295.125055 
L 197.481329 295.143153 
L 197.929129 295.052773 
L 197.978107 295.138051 
L 198.048075 295.013184 
L 198.055072 295.009393 
L 198.069066 295.092484 
L 198.160025 295.142095 
L 198.188013 295.135449 
L 198.614821 295.14309 
L 202.253191 295.031124 
L 202.365141 295.019213 
L 202.295172 295.140189 
L 202.372138 295.03005 
L 202.498082 295.135282 
L 202.659009 295.142392 
L 203.946433 295.14311 
L 204.072376 295.056499 
L 204.100364 294.850761 
L 204.149342 295.137961 
L 204.205317 294.908515 
L 204.324263 295.142538 
L 204.485191 295.142246 
L 205.933542 294.984969 
L 205.96153 294.768207 
L 205.989517 295.13908 
L 206.024502 295.020777 
L 206.087473 295.140286 
L 206.059486 295.00382 
L 206.143448 295.119785 
L 206.262395 295.139668 
L 206.745179 295.143149 
L 207.598796 295.055243 
L 207.661768 294.450751 
L 207.689755 295.137767 
L 207.731737 294.888028 
L 207.829693 295.136224 
L 207.850683 295.121489 
L 207.962633 295.139506 
L 207.871674 295.113624 
L 207.96963 295.136967 
L 208.270495 295.143069 
L 209.851787 295.037547 
L 209.879774 294.908449 
L 209.907762 295.138497 
L 209.942746 295.107886 
L 210.040702 295.142687 
L 210.061693 295.132454 
L 210.257605 295.142979 
L 211.503047 295.008934 
L 211.531034 294.793508 
L 211.559022 295.142866 
L 211.594006 295.075165 
L 211.698959 295.141595 
L 211.705956 295.134336 
L 211.85289 295.141124 
L 212.944401 295.111146 
L 213.028364 294.914534 
L 213.070345 295.080705 
L 213.301241 295.143133 
L 214.070897 294.978969 
L 214.077893 294.94588 
L 214.112878 295.14012 
L 214.154859 295.105874 
L 214.280803 295.142764 
L 215.183398 294.953167 
L 215.190395 294.868985 
L 215.232376 295.139331 
L 215.274357 295.130149 
L 215.302345 295.094006 
L 215.400301 295.131793 
L 215.701166 295.143096 
L 216.498809 295.032758 
L 216.526796 294.853474 
L 216.561781 295.134231 
L 216.596765 295.09644 
L 216.708715 295.138455 
L 216.715712 295.135696 
L 217.12153 295.143131 
L 217.72326 295.036035 
L 217.737254 294.968913 
L 217.772238 295.135065 
L 217.814219 295.116013 
L 217.919172 295.142501 
L 217.933166 295.135474 
L 218.716815 295.143122 
L 218.947712 295.047337 
L 218.968702 295.010185 
L 219.010683 295.141371 
L 219.045668 295.105614 
L 219.199599 295.141778 
L 219.773342 295.107754 
L 219.815323 294.976097 
L 219.899285 295.108331 
L 220.032226 295.142366 
L 220.815875 295.109244 
L 220.857856 294.900714 
L 220.934821 295.112577 
L 221.060765 295.141959 
L 222.768 295.140921 
L 224.17437 295.108055 
L 224.335298 294.937152 
L 224.41926 292.929245 
L 224.391273 295.097614 
L 224.468238 293.706819 
L 224.53121 295.137799 
L 224.580188 294.953341 
L 224.636163 295.139685 
L 224.699135 295.12962 
L 224.811085 295.135295 
L 224.965016 295.142715 
L 229.317066 295.118568 
L 229.366044 294.901752 
L 229.422019 295.111193 
L 229.450006 295.09266 
L 229.540966 295.143077 
L 229.841831 295.143083 
L 231.479097 295.06144 
L 231.507085 294.756649 
L 231.535072 295.136903 
L 231.591047 295.04898 
L 231.716991 295.141707 
L 231.877918 295.142406 
L 233.081379 295.143156 
L 233.585154 295.058368 
L 233.613141 294.84062 
L 233.641129 295.1369 
L 233.68311 295.128693 
L 233.711097 295.086312 
L 233.809053 295.143076 
L 234.032953 295.14278 
L 235.390345 295.095692 
L 235.425329 294.79904 
L 235.460313 295.136502 
L 235.495298 295.118789 
L 235.586257 295.142554 
L 235.523285 295.072265 
L 235.614245 295.134287 
L 235.768176 295.141396 
L 237.055599 295.112092 
L 237.104577 294.840784 
L 237.132564 295.140244 
L 237.167549 295.08028 
L 237.272502 295.142171 
L 237.202533 295.07508 
L 237.279498 295.135644 
L 237.419436 295.141337 
L 238.650884 294.951175 
L 238.671875 294.833376 
L 238.741843 295.138292 
L 238.74884 295.131529 
L 238.769831 295.074598 
L 238.86079 295.129509 
L 239.021718 295.14229 
L 240.407097 295.055761 
L 240.442082 294.78852 
L 240.470069 295.140787 
L 240.51205 295.100697 
L 240.610006 295.138005 
L 240.540038 295.055324 
L 240.624 295.117985 
L 240.791925 295.142465 
L 241.946408 295.098821 
L 241.967398 294.998336 
L 242.016376 295.125684 
L 242.058357 295.101004 
L 242.184301 295.141406 
L 242.534144 295.143135 
L 246.473379 295.044528 
L 246.501367 294.980183 
L 246.529354 295.139426 
L 246.564339 295.113875 
L 246.676288 295.141478 
L 246.683285 295.137782 
L 247.138082 295.143145 
L 247.837768 295.053626 
L 247.858759 294.975532 
L 247.893743 295.137964 
L 247.935724 295.113979 
L 248.075661 295.141775 
L 249.349091 295.136948 
L 250.062771 295.096326 
L 250.174721 295.127785 
L 250.398621 294.99175 
L 250.405618 294.958886 
L 250.433605 295.137665 
L 250.48958 295.077353 
L 250.643511 295.139518 
L 251.105304 295.143147 
L 251.490132 295.045933 
L 251.497129 295.0212 
L 251.53911 295.137558 
L 251.581091 295.109672 
L 251.735022 295.142252 
L 252.637618 295.128519 
L 252.679599 294.84097 
L 252.714583 293.744654 
L 252.735574 295.060459 
L 252.784552 294.894258 
L 252.931486 295.131597 
L 253.050433 295.131214 
L 253.183373 295.142934 
L 253.54721 295.143144 
L 255.828188 295.061035 
L 255.849179 294.899547 
L 255.884163 295.135806 
L 255.933141 295.113127 
L 256.017103 295.128312 
L 255.961129 295.143082 
L 256.038094 295.142667 
L 256.241003 295.142643 
L 257.76632 295.076274 
L 257.794307 294.83639 
L 257.829292 295.137241 
L 257.864276 295.115477 
L 257.892263 295.076658 
L 257.983223 295.136099 
L 258.151147 295.142747 
L 259.536527 295.074144 
L 259.571511 294.791275 
L 259.599498 295.134808 
L 259.634483 295.119883 
L 259.655473 295.078342 
L 259.753429 295.141729 
L 260.075285 295.143042 
L 260.802959 295.037063 
L 260.809956 295.016531 
L 260.84494 295.143075 
L 260.886922 295.125354 
L 261.019862 295.1408 
L 261.642583 295.143151 
L 261.950445 295.053484 
L 261.971436 294.983222 
L 262.00642 295.136357 
L 262.048401 295.119679 
L 262.188339 295.139716 
L 262.860038 295.143151 
L 263.090934 295.045864 
L 263.111925 294.954673 
L 263.181893 295.135748 
L 263.18889 295.124117 
L 263.286846 295.133796 
L 263.223875 295.138485 
L 263.30084 295.142474 
L 264.147461 295.068568 
L 264.175448 295.007181 
L 264.203436 295.143108 
L 264.245417 295.122853 
L 264.420339 295.141242 
L 265.742746 295.142976 
L 268.072702 295.067473 
L 268.093693 294.988298 
L 268.135674 295.141515 
L 268.170658 295.106115 
L 268.296602 295.142776 
L 269.723962 295.143104 
L 270.269718 295.041584 
L 270.290708 294.987315 
L 270.339687 295.135187 
L 270.367674 295.077547 
L 270.493618 295.141724 
L 270.857455 295.143143 
L 271.445191 295.039826 
L 271.452188 295.022309 
L 271.487172 295.139852 
L 271.529154 295.113999 
L 271.669091 295.142717 
L 272.431749 295.049986 
L 272.45274 294.980435 
L 272.487724 295.142883 
L 272.529705 295.108418 
L 272.662646 295.141625 
L 272.977505 295.143131 
L 273.572238 295.058282 
L 273.593229 295.000583 
L 273.63521 295.140986 
L 273.677191 295.086005 
L 273.782144 295.000429 
L 273.726169 295.141052 
L 273.789141 295.046873 
L 273.838119 295.141477 
L 273.887097 295.003741 
L 273.964063 294.95179 
L 273.929078 295.134332 
L 273.978056 295.027468 
L 274.076013 295.14087 
L 274.097003 295.132764 
L 274.243937 295.140847 
L 275.370433 295.143154 
L 276.811787 295.058515 
L 276.832777 295.021371 
L 276.860765 295.140512 
L 276.902746 295.117211 
L 277.035687 295.142236 
L 277.511473 295.143149 
L 277.861317 295.03569 
L 277.903298 295.140945 
L 277.980263 295.017326 
L 278.134194 295.142402 
L 278.141191 295.134079 
L 278.288125 295.141771 
L 279.14874 295.137764 
L 279.414621 295.141464 
L 279.848426 295.074021 
L 279.855423 295.06051 
L 279.904401 295.14278 
L 279.946382 295.12189 
L 280.135298 295.142917 
L 282.780113 295.140073 
L 283.304878 295.143119 
L 284.949141 295.049335 
L 284.956138 295.023396 
L 285.005116 295.14247 
L 285.0401 295.10628 
L 285.208025 295.14289 
L 285.690809 295.143117 
L 286.222571 295.034379 
L 286.257555 295.068862 
L 286.299536 294.357543 
L 286.31353 293.066126 
L 286.355511 295.078066 
L 286.404489 294.571647 
L 286.411486 294.57279 
L 286.42548 294.479391 
L 286.530433 295.140714 
L 286.537429 294.990119 
L 286.635386 295.130586 
L 286.943248 295.142861 
L 290.756539 295.143153 
L 292.939561 295.041283 
L 292.946558 295.01553 
L 292.981542 295.142912 
L 293.023524 295.131953 
L 293.156464 295.138492 
L 293.541292 295.143146 
L 294.289956 295.040857 
L 294.317944 294.9603 
L 294.345931 295.138807 
L 294.380915 295.108851 
L 294.492865 295.140084 
L 294.499862 295.137591 
L 295.101592 295.143153 
L 295.661342 295.042164 
L 295.689329 294.955202 
L 295.717317 295.142804 
L 295.752301 295.100137 
L 295.864251 295.141957 
L 295.871248 295.139294 
L 296.144125 295.14296 
L 297.067712 295.076163 
L 297.102696 294.851831 
L 297.123687 295.135593 
L 297.165668 295.130388 
L 297.186658 295.082043 
L 297.298608 295.140684 
L 297.466533 295.14242 
L 300.216301 295.143006 
L 300.300263 295.075814 
L 300.335248 294.90497 
L 300.356238 295.133777 
L 300.398219 295.123168 
L 300.426207 295.094675 
L 300.517166 295.132906 
L 300.699085 295.142875 
L 301.902545 295.091297 
L 301.93753 294.868257 
L 301.965517 295.142127 
L 302.000502 295.09537 
L 302.098458 295.142345 
L 302.112451 295.129226 
L 303.567799 295.051684 
L 303.58879 294.852591 
L 303.623774 295.13301 
L 303.665755 295.134654 
L 303.770708 295.130301 
L 303.784702 295.139582 
L 305.338006 294.974191 
L 305.345003 294.897626 
L 305.414972 295.130603 
L 305.435962 295.087392 
L 305.554909 295.142403 
L 305.778809 295.142835 
L 306.744376 295.048781 
L 306.75837 294.997089 
L 306.800351 295.124284 
L 306.835335 295.103044 
L 306.98227 295.140854 
L 307.737931 295.143101 
L 307.870871 295.052201 
L 307.898859 294.965969 
L 307.926846 295.139922 
L 307.975824 295.087839 
L 308.094771 295.143048 
L 308.332665 295.143036 
L 309.319223 295.069249 
L 309.340213 295.003977 
L 309.382194 295.123816 
L 309.417179 295.104488 
L 309.564113 295.139127 
L 310.228815 295.143004 
L 313.741241 295.038805 
L 313.853191 293.421636 
L 313.81121 295.095013 
L 313.867185 294.117417 
L 313.972138 295.126363 
L 313.986132 295.09918 
L 313.993129 294.992139 
L 314.063097 295.139813 
L 314.091085 295.125005 
L 314.252013 295.139661 
L 314.622846 295.143106 
L 320.199348 295.047361 
L 320.220339 294.927589 
L 320.241329 295.139497 
L 320.304301 295.103204 
L 320.416251 295.143118 
L 320.423248 295.140731 
L 320.654144 295.143124 
L 322.501317 295.051004 
L 322.522307 294.936797 
L 322.550295 295.141322 
L 322.60627 295.099528 
L 322.830169 295.142007 
L 324.397467 294.973529 
L 324.411461 294.921605 
L 324.439448 295.137986 
L 324.467436 295.096765 
L 324.586382 295.139034 
L 324.810282 295.14304 
L 326.314608 295.080918 
L 326.335599 294.990547 
L 326.370583 295.139306 
L 326.412564 295.1161 
L 326.524514 295.141628 
L 326.531511 295.138487 
L 326.881354 295.143112 
L 327.78395 295.039065 
L 327.80494 294.964933 
L 327.832928 295.141457 
L 327.881906 295.139549 
L 328.000853 295.137373 
L 328.00785 295.14142 
L 328.525618 295.143154 
L 329.19032 295.054374 
L 329.197317 295.021118 
L 329.232301 295.140224 
L 329.281279 295.142435 
L 329.498182 295.143136 
L 331.576251 295.143149 
L 332.317918 295.064532 
L 332.338909 294.966557 
L 332.408878 295.134701 
L 332.422871 295.105582 
L 332.541818 295.132064 
L 332.702746 295.143055 
L 334.465956 295.142794 
L 335.690408 295.09068 
L 335.725392 294.915153 
L 335.788364 295.12938 
L 335.809354 295.038621 
L 335.921304 295.133301 
L 336.068238 295.140625 
L 337.831448 295.118907 
L 337.929404 295.076192 
L 337.957392 295.110423 
L 339.027912 295.041904 
L 339.041906 295.006748 
L 339.07689 295.142825 
L 339.104878 295.096304 
L 339.223824 295.142709 
L 339.230821 295.140157 
L 339.538683 295.143088 
L 340.280351 295.058593 
L 340.301342 294.995884 
L 340.37131 295.142729 
L 340.378307 295.136104 
L 340.476263 295.134475 
L 340.490257 295.141879 
L 340.980038 295.110391 
L 341.315887 295.142403 
L 344.597417 295.07067 
L 344.709367 294.901421 
L 344.632401 295.090469 
L 344.716364 295.0206 
L 344.856301 295.140235 
L 344.758345 294.925867 
L 344.863298 295.119111 
L 348.872502 295.098899 
L 348.900489 295.02431 
L 348.956464 295.142513 
L 348.977455 295.104844 
L 349.117392 295.139433 
L 350.152928 295.143153 
L 351.769204 295.049031 
L 351.776201 295.021671 
L 351.811185 295.139772 
L 351.860163 295.135291 
L 352.084063 295.143138 
L 355.330608 295.143126 
L 357.324715 295.06342 
L 357.366696 294.362682 
L 357.422671 291.510919 
L 357.394683 294.902146 
L 357.471649 293.726531 
L 357.590596 295.109118 
L 357.597592 294.967163 
L 357.695549 295.138073 
L 357.702545 295.102496 
L 357.709542 295.141146 
L 357.807498 295.134931 
L 357.961429 295.142753 
L 364.594458 295.143151 
L 368.547687 295.045401 
L 368.56168 295.009209 
L 368.582671 295.136388 
L 368.638646 295.119356 
L 368.764589 295.141848 
L 369.555235 295.133619 
L 369.72316 295.132676 
L 369.877091 295.143123 
L 371.640301 295.143136 
L 382.338508 295.055512 
L 382.359498 295.012652 
L 382.387486 295.142998 
L 382.429467 295.129149 
L 382.555411 295.138118 
L 389.244414 295.14259 
L 389.867135 295.070819 
L 389.951097 295.123444 
L 389.902119 295.135962 
L 389.958094 295.132461 
L 390.119022 295.141814 
L 392.295047 295.142921 
L 394.576025 295.083157 
L 394.597016 295.011042 
L 394.632 295.142933 
L 394.673981 295.119062 
L 394.799925 295.138898 
L 396.947962 294.98667 
L 396.961956 294.947553 
L 397.031925 295.103797 
L 397.038922 295.084421 
L 397.570683 295.143126 
L 398.487273 295.143158 
L 398.487273 295.143158 
" style="fill:none;stroke:#1f77b4;stroke-linecap:square;stroke-width:1.5;"/>
   </g>
   <g id="line2d_16">
    <path clip-path="url(#pc2699fb3af)" d="M 73.832727 295.488 
L 73.835554 295.345564 
L 73.838381 295.264455 
L 73.841208 295.218708 
L 73.844035 295.191893 
L 73.846862 295.175646 
L 73.849689 295.165644 
L 73.852516 295.159462 
L 73.855343 295.155615 
L 73.85817 295.153167 
L 73.860997 295.151544 
L 73.863824 295.150407 
L 73.866651 295.149564 
L 73.869478 295.148905 
L 73.872306 295.148368 
L 73.875133 295.147916 
L 73.87796 295.147528 
L 73.880787 295.14719 
L 73.883614 295.146893 
L 73.886441 295.146629 
L 73.889268 295.146394 
L 73.892095 295.146184 
L 73.894922 295.145996 
L 73.897749 295.145826 
L 73.900576 295.145673 
L 73.903403 295.145535 
L 73.90623 295.145409 
L 73.909057 295.145295 
L 73.911884 295.145191 
L 73.914711 295.145095 
L 73.917538 295.145008 
L 73.920365 295.144929 
L 73.923192 295.144856 
L 73.926019 295.144788 
L 73.928846 295.144727 
L 73.931673 295.14467 
L 73.9345 295.144617 
L 73.937327 295.144569 
L 73.940154 295.144524 
L 73.942981 295.144483 
L 73.945808 295.144445 
L 73.948635 295.144409 
L 73.951462 295.144376 
L 73.954289 295.144346 
L 73.957116 295.144317 
L 73.959943 295.144291 
L 73.96277 295.144266 
L 73.965597 295.144243 
L 73.968424 295.144221 
L 73.971251 295.144201 
L 73.974078 295.144182 
L 73.976905 295.144165 
L 73.979732 295.144148 
L 73.982559 295.144133 
L 73.985386 295.144118 
L 73.988213 295.144105 
L 73.99104 295.144092 
L 73.993867 295.14408 
L 73.996694 295.144069 
L 73.999521 295.144058 
L 74.002348 295.144048 
L 74.005175 295.144038 
L 74.008002 295.144029 
L 74.010829 295.144021 
L 74.013656 295.144013 
L 74.016483 295.144005 
L 74.01931 295.143998 
L 74.022137 295.143991 
L 74.024964 295.143985 
L 74.027791 295.143979 
L 74.030618 295.143973 
L 74.033445 295.143967 
L 74.036272 295.143962 
L 74.039099 295.143957 
L 74.041926 295.143952 
L 74.044753 295.143948 
L 74.047581 295.143944 
L 74.050408 295.14394 
L 74.053235 295.143936 
L 74.056062 295.143932 
L 74.058889 295.143929 
L 74.061716 295.143925 
L 74.064543 295.143922 
L 74.06737 295.143919 
L 74.070197 295.143916 
L 74.073024 295.143914 
L 74.075851 295.143911 
L 74.078678 295.143909 
L 74.081505 295.143906 
L 74.084332 295.143904 
L 74.087159 295.143902 
L 74.089986 295.1439 
L 74.092813 295.143898 
L 74.09564 295.143896 
L 74.098467 295.143894 
L 74.101294 295.143892 
L 74.104121 295.143891 
L 74.106948 295.143889 
L 74.109775 295.143888 
L 74.112602 295.143886 
" style="fill:none;stroke:#ff7f0e;stroke-linecap:square;stroke-width:1.5;"/>
   </g>
   <g id="patch_3">
    <path d="M 57.6 307.584 
L 57.6 41.472 
" style="fill:none;stroke:#000000;stroke-linecap:square;stroke-linejoin:miter;stroke-width:0.8;"/>
   </g>
   <g id="patch_4">
    <path d="M 414.72 307.584 
L 414.72 41.472 
" style="fill:none;stroke:#000000;stroke-linecap:square;stroke-linejoin:miter;stroke-width:0.8;"/>
   </g>
   <g id="patch_5">
    <path d="M 57.6 307.584 
L 414.72 307.584 
" style="fill:none;stroke:#000000;stroke-linecap:square;stroke-linejoin:miter;stroke-width:0.8;"/>
   </g>
   <g id="patch_6">
    <path d="M 57.6 41.472 
L 414.72 41.472 
" style="fill:none;stroke:#000000;stroke-linecap:square;stroke-linejoin:miter;stroke-width:0.8;"/>
   </g>
   <g id="text_17">
    <!-- h network, t = 0.0 s -->
    <defs>
     <path d="M 54.890625 33.015625 
L 54.890625 0 
L 45.90625 0 
L 45.90625 32.71875 
Q 45.90625 40.484375 42.875 44.328125 
Q 39.84375 48.1875 33.796875 48.1875 
Q 26.515625 48.1875 22.3125 43.546875 
Q 18.109375 38.921875 18.109375 30.90625 
L 18.109375 0 
L 9.078125 0 
L 9.078125 54.6875 
L 18.109375 54.6875 
L 18.109375 46.1875 
Q 21.34375 51.125 25.703125 53.5625 
Q 30.078125 56 35.796875 56 
Q 45.21875 56 50.046875 50.171875 
Q 54.890625 44.34375 54.890625 33.015625 
z
" id="DejaVuSans-110"/>
     <path d="M 56.203125 29.59375 
L 56.203125 25.203125 
L 14.890625 25.203125 
Q 15.484375 15.921875 20.484375 11.0625 
Q 25.484375 6.203125 34.421875 6.203125 
Q 39.59375 6.203125 44.453125 7.46875 
Q 49.3125 8.734375 54.109375 11.28125 
L 54.109375 2.78125 
Q 49.265625 0.734375 44.1875 -0.34375 
Q 39.109375 -1.421875 33.890625 -1.421875 
Q 20.796875 -1.421875 13.15625 6.1875 
Q 5.515625 13.8125 5.515625 26.8125 
Q 5.515625 40.234375 12.765625 48.109375 
Q 20.015625 56 32.328125 56 
Q 43.359375 56 49.78125 48.890625 
Q 56.203125 41.796875 56.203125 29.59375 
z
M 47.21875 32.234375 
Q 47.125 39.59375 43.09375 43.984375 
Q 39.0625 48.390625 32.421875 48.390625 
Q 24.90625 48.390625 20.390625 44.140625 
Q 15.875 39.890625 15.1875 32.171875 
z
" id="DejaVuSans-101"/>
     <path d="M 18.3125 70.21875 
L 18.3125 54.6875 
L 36.8125 54.6875 
L 36.8125 47.703125 
L 18.3125 47.703125 
L 18.3125 18.015625 
Q 18.3125 11.328125 20.140625 9.421875 
Q 21.96875 7.515625 27.59375 7.515625 
L 36.8125 7.515625 
L 36.8125 0 
L 27.59375 0 
Q 17.1875 0 13.234375 3.875 
Q 9.28125 7.765625 9.28125 18.015625 
L 9.28125 47.703125 
L 2.6875 47.703125 
L 2.6875 54.6875 
L 9.28125 54.6875 
L 9.28125 70.21875 
z
" id="DejaVuSans-116"/>
     <path d="M 4.203125 54.6875 
L 13.1875 54.6875 
L 24.421875 12.015625 
L 35.59375 54.6875 
L 46.1875 54.6875 
L 57.421875 12.015625 
L 68.609375 54.6875 
L 77.59375 54.6875 
L 63.28125 0 
L 52.6875 0 
L 40.921875 44.828125 
L 29.109375 0 
L 18.5 0 
z
" id="DejaVuSans-119"/>
     <path d="M 30.609375 48.390625 
Q 23.390625 48.390625 19.1875 42.75 
Q 14.984375 37.109375 14.984375 27.296875 
Q 14.984375 17.484375 19.15625 11.84375 
Q 23.34375 6.203125 30.609375 6.203125 
Q 37.796875 6.203125 41.984375 11.859375 
Q 46.1875 17.53125 46.1875 27.296875 
Q 46.1875 37.015625 41.984375 42.703125 
Q 37.796875 48.390625 30.609375 48.390625 
z
M 30.609375 56 
Q 42.328125 56 49.015625 48.375 
Q 55.71875 40.765625 55.71875 27.296875 
Q 55.71875 13.875 49.015625 6.21875 
Q 42.328125 -1.421875 30.609375 -1.421875 
Q 18.84375 -1.421875 12.171875 6.21875 
Q 5.515625 13.875 5.515625 27.296875 
Q 5.515625 40.765625 12.171875 48.375 
Q 18.84375 56 30.609375 56 
z
" id="DejaVuSans-111"/>
     <path d="M 41.109375 46.296875 
Q 39.59375 47.171875 37.8125 47.578125 
Q 36.03125 48 33.890625 48 
Q 26.265625 48 22.1875 43.046875 
Q 18.109375 38.09375 18.109375 28.8125 
L 18.109375 0 
L 9.078125 0 
L 9.078125 54.6875 
L 18.109375 54.6875 
L 18.109375 46.1875 
Q 20.953125 51.171875 25.484375 53.578125 
Q 30.03125 56 36.53125 56 
Q 37.453125 56 38.578125 55.875 
Q 39.703125 55.765625 41.0625 55.515625 
z
" id="DejaVuSans-114"/>
     <path d="M 9.078125 75.984375 
L 18.109375 75.984375 
L 18.109375 31.109375 
L 44.921875 54.6875 
L 56.390625 54.6875 
L 27.390625 29.109375 
L 57.625 0 
L 45.90625 0 
L 18.109375 26.703125 
L 18.109375 0 
L 9.078125 0 
z
" id="DejaVuSans-107"/>
     <path d="M 11.71875 12.40625 
L 22.015625 12.40625 
L 22.015625 4 
L 14.015625 -11.625 
L 7.71875 -11.625 
L 11.71875 4 
z
" id="DejaVuSans-44"/>
     <path d="M 10.59375 45.40625 
L 73.1875 45.40625 
L 73.1875 37.203125 
L 10.59375 37.203125 
z
M 10.59375 25.484375 
L 73.1875 25.484375 
L 73.1875 17.1875 
L 10.59375 17.1875 
z
" id="DejaVuSans-61"/>
     <path d="M 10.6875 12.40625 
L 21 12.40625 
L 21 0 
L 10.6875 0 
z
" id="DejaVuSans-46"/>
     <path d="M 44.28125 53.078125 
L 44.28125 44.578125 
Q 40.484375 46.53125 36.375 47.5 
Q 32.28125 48.484375 27.875 48.484375 
Q 21.1875 48.484375 17.84375 46.4375 
Q 14.5 44.390625 14.5 40.28125 
Q 14.5 37.15625 16.890625 35.375 
Q 19.28125 33.59375 26.515625 31.984375 
L 29.59375 31.296875 
Q 39.15625 29.25 43.1875 25.515625 
Q 47.21875 21.78125 47.21875 15.09375 
Q 47.21875 7.46875 41.1875 3.015625 
Q 35.15625 -1.421875 24.609375 -1.421875 
Q 20.21875 -1.421875 15.453125 -0.5625 
Q 10.6875 0.296875 5.421875 2 
L 5.421875 11.28125 
Q 10.40625 8.6875 15.234375 7.390625 
Q 20.0625 6.109375 24.8125 6.109375 
Q 31.15625 6.109375 34.5625 8.28125 
Q 37.984375 10.453125 37.984375 14.40625 
Q 37.984375 18.0625 35.515625 20.015625 
Q 33.0625 21.96875 24.703125 23.78125 
L 21.578125 24.515625 
Q 13.234375 26.265625 9.515625 29.90625 
Q 5.8125 33.546875 5.8125 39.890625 
Q 5.8125 47.609375 11.28125 51.796875 
Q 16.75 56 26.8125 56 
Q 31.78125 56 36.171875 55.265625 
Q 40.578125 54.546875 44.28125 53.078125 
z
" id="DejaVuSans-115"/>
    </defs>
    <g transform="translate(176.503125 35.472)scale(0.12 -0.12)">
     <use xlink:href="#DejaVuSans-104"/>
     <use x="63.378906" xlink:href="#DejaVuSans-32"/>
     <use x="95.166016" xlink:href="#DejaVuSans-110"/>
     <use x="158.544922" xlink:href="#DejaVuSans-101"/>
     <use x="220.068359" xlink:href="#DejaVuSans-116"/>
     <use x="259.277344" xlink:href="#DejaVuSans-119"/>
     <use x="341.064453" xlink:href="#DejaVuSans-111"/>
     <use x="402.246094" xlink:href="#DejaVuSans-114"/>
     <use x="443.359375" xlink:href="#DejaVuSans-107"/>
     <use x="501.269531" xlink:href="#DejaVuSans-44"/>
     <use x="533.056641" xlink:href="#DejaVuSans-32"/>
     <use x="564.84375" xlink:href="#DejaVuSans-116"/>
     <use x="604.052734" xlink:href="#DejaVuSans-32"/>
     <use x="635.839844" xlink:href="#DejaVuSans-61"/>
     <use x="719.628906" xlink:href="#DejaVuSans-32"/>
     <use x="751.416016" xlink:href="#DejaVuSans-48"/>
     <use x="815.039062" xlink:href="#DejaVuSans-46"/>
     <use x="846.826172" xlink:href="#DejaVuSans-48"/>
     <use x="910.449219" xlink:href="#DejaVuSans-32"/>
     <use x="942.236328" xlink:href="#DejaVuSans-115"/>
    </g>
   </g>
  </g>
 </g>
 <defs>
  <clipPath id="pc2699fb3af">
   <rect height="266.112" width="357.12" x="57.6" y="41.472"/>
  </clipPath>
 </defs>
</svg>
