<?xml version="1.0" encoding="utf-8" standalone="no"?>
<!DOCTYPE svg PUBLIC "-//W3C//DTD SVG 1.1//EN"
  "http://www.w3.org/Graphics/SVG/1.1/DTD/svg11.dtd">
<!-- Created with matplotlib (https://matplotlib.org/) -->
<svg height="345.6pt" version="1.1" viewBox="0 0 460.8 345.6" width="460.8pt" xmlns="http://www.w3.org/2000/svg" xmlns:xlink="http://www.w3.org/1999/xlink">
 <defs>
  <style type="text/css">
*{stroke-linecap:butt;stroke-linejoin:round;}
  </style>
 </defs>
 <g id="figure_1">
  <g id="patch_1">
   <path d="M 0 345.6 
L 460.8 345.6 
L 460.8 0 
L 0 0 
z
" style="fill:#ffffff;"/>
  </g>
  <g id="axes_1">
   <g id="patch_2">
    <path d="M 57.6 307.584 
L 414.72 307.584 
L 414.72 41.472 
L 57.6 41.472 
z
" style="fill:#ffffff;"/>
   </g>
   <g id="matplotlib.axis_1">
    <g id="xtick_1">
     <g id="line2d_1">
      <defs>
       <path d="M 0 0 
L 0 3.5 
" id="m9f7fbaa7a4" style="stroke:#000000;stroke-width:0.8;"/>
      </defs>
      <g>
       <use style="stroke:#000000;stroke-width:0.8;" x="73.832727" xlink:href="#m9f7fbaa7a4" y="307.584"/>
      </g>
     </g>
     <g id="text_1">
      <!-- 0 -->
      <defs>
       <path d="M 31.78125 66.40625 
Q 24.171875 66.40625 20.328125 58.90625 
Q 16.5 51.421875 16.5 36.375 
Q 16.5 21.390625 20.328125 13.890625 
Q 24.171875 6.390625 31.78125 6.390625 
Q 39.453125 6.390625 43.28125 13.890625 
Q 47.125 21.390625 47.125 36.375 
Q 47.125 51.421875 43.28125 58.90625 
Q 39.453125 66.40625 31.78125 66.40625 
z
M 31.78125 74.21875 
Q 44.046875 74.21875 50.515625 64.515625 
Q 56.984375 54.828125 56.984375 36.375 
Q 56.984375 17.96875 50.515625 8.265625 
Q 44.046875 -1.421875 31.78125 -1.421875 
Q 19.53125 -1.421875 13.0625 8.265625 
Q 6.59375 17.96875 6.59375 36.375 
Q 6.59375 54.828125 13.0625 64.515625 
Q 19.53125 74.21875 31.78125 74.21875 
z
" id="DejaVuSans-48"/>
      </defs>
      <g transform="translate(70.651477 322.182437)scale(0.1 -0.1)">
       <use xlink:href="#DejaVuSans-48"/>
      </g>
     </g>
    </g>
    <g id="xtick_2">
     <g id="line2d_2">
      <g>
       <use style="stroke:#000000;stroke-width:0.8;" x="143.801379" xlink:href="#m9f7fbaa7a4" y="307.584"/>
      </g>
     </g>
     <g id="text_2">
      <!-- 10000 -->
      <defs>
       <path d="M 12.40625 8.296875 
L 28.515625 8.296875 
L 28.515625 63.921875 
L 10.984375 60.40625 
L 10.984375 69.390625 
L 28.421875 72.90625 
L 38.28125 72.90625 
L 38.28125 8.296875 
L 54.390625 8.296875 
L 54.390625 0 
L 12.40625 0 
z
" id="DejaVuSans-49"/>
      </defs>
      <g transform="translate(127.895129 322.182437)scale(0.1 -0.1)">
       <use xlink:href="#DejaVuSans-49"/>
       <use x="63.623047" xlink:href="#DejaVuSans-48"/>
       <use x="127.246094" xlink:href="#DejaVuSans-48"/>
       <use x="190.869141" xlink:href="#DejaVuSans-48"/>
       <use x="254.492188" xlink:href="#DejaVuSans-48"/>
      </g>
     </g>
    </g>
    <g id="xtick_3">
     <g id="line2d_3">
      <g>
       <use style="stroke:#000000;stroke-width:0.8;" x="213.770031" xlink:href="#m9f7fbaa7a4" y="307.584"/>
      </g>
     </g>
     <g id="text_3">
      <!-- 20000 -->
      <defs>
       <path d="M 19.1875 8.296875 
L 53.609375 8.296875 
L 53.609375 0 
L 7.328125 0 
L 7.328125 8.296875 
Q 12.9375 14.109375 22.625 23.890625 
Q 32.328125 33.6875 34.8125 36.53125 
Q 39.546875 41.84375 41.421875 45.53125 
Q 43.3125 49.21875 43.3125 52.78125 
Q 43.3125 58.59375 39.234375 62.25 
Q 35.15625 65.921875 28.609375 65.921875 
Q 23.96875 65.921875 18.8125 64.3125 
Q 13.671875 62.703125 7.8125 59.421875 
L 7.8125 69.390625 
Q 13.765625 71.78125 18.9375 73 
Q 24.125 74.21875 28.421875 74.21875 
Q 39.75 74.21875 46.484375 68.546875 
Q 53.21875 62.890625 53.21875 53.421875 
Q 53.21875 48.921875 51.53125 44.890625 
Q 49.859375 40.875 45.40625 35.40625 
Q 44.1875 33.984375 37.640625 27.21875 
Q 31.109375 20.453125 19.1875 8.296875 
z
" id="DejaVuSans-50"/>
      </defs>
      <g transform="translate(197.863781 322.182437)scale(0.1 -0.1)">
       <use xlink:href="#DejaVuSans-50"/>
       <use x="63.623047" xlink:href="#DejaVuSans-48"/>
       <use x="127.246094" xlink:href="#DejaVuSans-48"/>
       <use x="190.869141" xlink:href="#DejaVuSans-48"/>
       <use x="254.492188" xlink:href="#DejaVuSans-48"/>
      </g>
     </g>
    </g>
    <g id="xtick_4">
     <g id="line2d_4">
      <g>
       <use style="stroke:#000000;stroke-width:0.8;" x="283.738683" xlink:href="#m9f7fbaa7a4" y="307.584"/>
      </g>
     </g>
     <g id="text_4">
      <!-- 30000 -->
      <defs>
       <path d="M 40.578125 39.3125 
Q 47.65625 37.796875 51.625 33 
Q 55.609375 28.21875 55.609375 21.1875 
Q 55.609375 10.40625 48.1875 4.484375 
Q 40.765625 -1.421875 27.09375 -1.421875 
Q 22.515625 -1.421875 17.65625 -0.515625 
Q 12.796875 0.390625 7.625 2.203125 
L 7.625 11.71875 
Q 11.71875 9.328125 16.59375 8.109375 
Q 21.484375 6.890625 26.8125 6.890625 
Q 36.078125 6.890625 40.9375 10.546875 
Q 45.796875 14.203125 45.796875 21.1875 
Q 45.796875 27.640625 41.28125 31.265625 
Q 36.765625 34.90625 28.71875 34.90625 
L 20.21875 34.90625 
L 20.21875 43.015625 
L 29.109375 43.015625 
Q 36.375 43.015625 40.234375 45.921875 
Q 44.09375 48.828125 44.09375 54.296875 
Q 44.09375 59.90625 40.109375 62.90625 
Q 36.140625 65.921875 28.71875 65.921875 
Q 24.65625 65.921875 20.015625 65.03125 
Q 15.375 64.15625 9.8125 62.3125 
L 9.8125 71.09375 
Q 15.4375 72.65625 20.34375 73.4375 
Q 25.25 74.21875 29.59375 74.21875 
Q 40.828125 74.21875 47.359375 69.109375 
Q 53.90625 64.015625 53.90625 55.328125 
Q 53.90625 49.265625 50.4375 45.09375 
Q 46.96875 40.921875 40.578125 39.3125 
z
" id="DejaVuSans-51"/>
      </defs>
      <g transform="translate(267.832433 322.182437)scale(0.1 -0.1)">
       <use xlink:href="#DejaVuSans-51"/>
       <use x="63.623047" xlink:href="#DejaVuSans-48"/>
       <use x="127.246094" xlink:href="#DejaVuSans-48"/>
       <use x="190.869141" xlink:href="#DejaVuSans-48"/>
       <use x="254.492188" xlink:href="#DejaVuSans-48"/>
      </g>
     </g>
    </g>
    <g id="xtick_5">
     <g id="line2d_5">
      <g>
       <use style="stroke:#000000;stroke-width:0.8;" x="353.707335" xlink:href="#m9f7fbaa7a4" y="307.584"/>
      </g>
     </g>
     <g id="text_5">
      <!-- 40000 -->
      <defs>
       <path d="M 37.796875 64.3125 
L 12.890625 25.390625 
L 37.796875 25.390625 
z
M 35.203125 72.90625 
L 47.609375 72.90625 
L 47.609375 25.390625 
L 58.015625 25.390625 
L 58.015625 17.1875 
L 47.609375 17.1875 
L 47.609375 0 
L 37.796875 0 
L 37.796875 17.1875 
L 4.890625 17.1875 
L 4.890625 26.703125 
z
" id="DejaVuSans-52"/>
      </defs>
      <g transform="translate(337.801085 322.182437)scale(0.1 -0.1)">
       <use xlink:href="#DejaVuSans-52"/>
       <use x="63.623047" xlink:href="#DejaVuSans-48"/>
       <use x="127.246094" xlink:href="#DejaVuSans-48"/>
       <use x="190.869141" xlink:href="#DejaVuSans-48"/>
       <use x="254.492188" xlink:href="#DejaVuSans-48"/>
      </g>
     </g>
    </g>
   </g>
   <g id="matplotlib.axis_2">
    <g id="ytick_1">
     <g id="line2d_6">
      <defs>
       <path d="M 0 0 
L -3.5 0 
" id="me2f6972e1c" style="stroke:#000000;stroke-width:0.8;"/>
      </defs>
      <g>
       <use style="stroke:#000000;stroke-width:0.8;" x="57.6" xlink:href="#me2f6972e1c" y="295.488004"/>
      </g>
     </g>
     <g id="text_6">
      <!-- 0 -->
      <g transform="translate(44.2375 299.287223)scale(0.1 -0.1)">
       <use xlink:href="#DejaVuSans-48"/>
      </g>
     </g>
    </g>
    <g id="ytick_2">
     <g id="line2d_7">
      <g>
       <use style="stroke:#000000;stroke-width:0.8;" x="57.6" xlink:href="#me2f6972e1c" y="264.070591"/>
      </g>
     </g>
     <g id="text_7">
      <!-- 1000 -->
      <g transform="translate(25.15 267.869809)scale(0.1 -0.1)">
       <use xlink:href="#DejaVuSans-49"/>
       <use x="63.623047" xlink:href="#DejaVuSans-48"/>
       <use x="127.246094" xlink:href="#DejaVuSans-48"/>
       <use x="190.869141" xlink:href="#DejaVuSans-48"/>
      </g>
     </g>
    </g>
    <g id="ytick_3">
     <g id="line2d_8">
      <g>
       <use style="stroke:#000000;stroke-width:0.8;" x="57.6" xlink:href="#me2f6972e1c" y="232.653177"/>
      </g>
     </g>
     <g id="text_8">
      <!-- 2000 -->
      <g transform="translate(25.15 236.452396)scale(0.1 -0.1)">
       <use xlink:href="#DejaVuSans-50"/>
       <use x="63.623047" xlink:href="#DejaVuSans-48"/>
       <use x="127.246094" xlink:href="#DejaVuSans-48"/>
       <use x="190.869141" xlink:href="#DejaVuSans-48"/>
      </g>
     </g>
    </g>
    <g id="ytick_4">
     <g id="line2d_9">
      <g>
       <use style="stroke:#000000;stroke-width:0.8;" x="57.6" xlink:href="#me2f6972e1c" y="201.235764"/>
      </g>
     </g>
     <g id="text_9">
      <!-- 3000 -->
      <g transform="translate(25.15 205.034983)scale(0.1 -0.1)">
       <use xlink:href="#DejaVuSans-51"/>
       <use x="63.623047" xlink:href="#DejaVuSans-48"/>
       <use x="127.246094" xlink:href="#DejaVuSans-48"/>
       <use x="190.869141" xlink:href="#DejaVuSans-48"/>
      </g>
     </g>
    </g>
    <g id="ytick_5">
     <g id="line2d_10">
      <g>
       <use style="stroke:#000000;stroke-width:0.8;" x="57.6" xlink:href="#me2f6972e1c" y="169.818351"/>
      </g>
     </g>
     <g id="text_10">
      <!-- 4000 -->
      <g transform="translate(25.15 173.617569)scale(0.1 -0.1)">
       <use xlink:href="#DejaVuSans-52"/>
       <use x="63.623047" xlink:href="#DejaVuSans-48"/>
       <use x="127.246094" xlink:href="#DejaVuSans-48"/>
       <use x="190.869141" xlink:href="#DejaVuSans-48"/>
      </g>
     </g>
    </g>
    <g id="ytick_6">
     <g id="line2d_11">
      <g>
       <use style="stroke:#000000;stroke-width:0.8;" x="57.6" xlink:href="#me2f6972e1c" y="138.400937"/>
      </g>
     </g>
     <g id="text_11">
      <!-- 5000 -->
      <defs>
       <path d="M 10.796875 72.90625 
L 49.515625 72.90625 
L 49.515625 64.59375 
L 19.828125 64.59375 
L 19.828125 46.734375 
Q 21.96875 47.46875 24.109375 47.828125 
Q 26.265625 48.1875 28.421875 48.1875 
Q 40.625 48.1875 47.75 41.5 
Q 54.890625 34.8125 54.890625 23.390625 
Q 54.890625 11.625 47.5625 5.09375 
Q 40.234375 -1.421875 26.90625 -1.421875 
Q 22.3125 -1.421875 17.546875 -0.640625 
Q 12.796875 0.140625 7.71875 1.703125 
L 7.71875 11.625 
Q 12.109375 9.234375 16.796875 8.0625 
Q 21.484375 6.890625 26.703125 6.890625 
Q 35.15625 6.890625 40.078125 11.328125 
Q 45.015625 15.765625 45.015625 23.390625 
Q 45.015625 31 40.078125 35.4375 
Q 35.15625 39.890625 26.703125 39.890625 
Q 22.75 39.890625 18.8125 39.015625 
Q 14.890625 38.140625 10.796875 36.28125 
z
" id="DejaVuSans-53"/>
      </defs>
      <g transform="translate(25.15 142.200156)scale(0.1 -0.1)">
       <use xlink:href="#DejaVuSans-53"/>
       <use x="63.623047" xlink:href="#DejaVuSans-48"/>
       <use x="127.246094" xlink:href="#DejaVuSans-48"/>
       <use x="190.869141" xlink:href="#DejaVuSans-48"/>
      </g>
     </g>
    </g>
    <g id="ytick_7">
     <g id="line2d_12">
      <g>
       <use style="stroke:#000000;stroke-width:0.8;" x="57.6" xlink:href="#me2f6972e1c" y="106.983524"/>
      </g>
     </g>
     <g id="text_12">
      <!-- 6000 -->
      <defs>
       <path d="M 33.015625 40.375 
Q 26.375 40.375 22.484375 35.828125 
Q 18.609375 31.296875 18.609375 23.390625 
Q 18.609375 15.53125 22.484375 10.953125 
Q 26.375 6.390625 33.015625 6.390625 
Q 39.65625 6.390625 43.53125 10.953125 
Q 47.40625 15.53125 47.40625 23.390625 
Q 47.40625 31.296875 43.53125 35.828125 
Q 39.65625 40.375 33.015625 40.375 
z
M 52.59375 71.296875 
L 52.59375 62.3125 
Q 48.875 64.0625 45.09375 64.984375 
Q 41.3125 65.921875 37.59375 65.921875 
Q 27.828125 65.921875 22.671875 59.328125 
Q 17.53125 52.734375 16.796875 39.40625 
Q 19.671875 43.65625 24.015625 45.921875 
Q 28.375 48.1875 33.59375 48.1875 
Q 44.578125 48.1875 50.953125 41.515625 
Q 57.328125 34.859375 57.328125 23.390625 
Q 57.328125 12.15625 50.6875 5.359375 
Q 44.046875 -1.421875 33.015625 -1.421875 
Q 20.359375 -1.421875 13.671875 8.265625 
Q 6.984375 17.96875 6.984375 36.375 
Q 6.984375 53.65625 15.1875 63.9375 
Q 23.390625 74.21875 37.203125 74.21875 
Q 40.921875 74.21875 44.703125 73.484375 
Q 48.484375 72.75 52.59375 71.296875 
z
" id="DejaVuSans-54"/>
      </defs>
      <g transform="translate(25.15 110.782743)scale(0.1 -0.1)">
       <use xlink:href="#DejaVuSans-54"/>
       <use x="63.623047" xlink:href="#DejaVuSans-48"/>
       <use x="127.246094" xlink:href="#DejaVuSans-48"/>
       <use x="190.869141" xlink:href="#DejaVuSans-48"/>
      </g>
     </g>
    </g>
    <g id="ytick_8">
     <g id="line2d_13">
      <g>
       <use style="stroke:#000000;stroke-width:0.8;" x="57.6" xlink:href="#me2f6972e1c" y="75.566111"/>
      </g>
     </g>
     <g id="text_13">
      <!-- 7000 -->
      <defs>
       <path d="M 8.203125 72.90625 
L 55.078125 72.90625 
L 55.078125 68.703125 
L 28.609375 0 
L 18.3125 0 
L 43.21875 64.59375 
L 8.203125 64.59375 
z
" id="DejaVuSans-55"/>
      </defs>
      <g transform="translate(25.15 79.36533)scale(0.1 -0.1)">
       <use xlink:href="#DejaVuSans-55"/>
       <use x="63.623047" xlink:href="#DejaVuSans-48"/>
       <use x="127.246094" xlink:href="#DejaVuSans-48"/>
       <use x="190.869141" xlink:href="#DejaVuSans-48"/>
      </g>
     </g>
    </g>
    <g id="ytick_9">
     <g id="line2d_14">
      <g>
       <use style="stroke:#000000;stroke-width:0.8;" x="57.6" xlink:href="#me2f6972e1c" y="44.148697"/>
      </g>
     </g>
     <g id="text_14">
      <!-- 8000 -->
      <defs>
       <path d="M 31.78125 34.625 
Q 24.75 34.625 20.71875 30.859375 
Q 16.703125 27.09375 16.703125 20.515625 
Q 16.703125 13.921875 20.71875 10.15625 
Q 24.75 6.390625 31.78125 6.390625 
Q 38.8125 6.390625 42.859375 10.171875 
Q 46.921875 13.96875 46.921875 20.515625 
Q 46.921875 27.09375 42.890625 30.859375 
Q 38.875 34.625 31.78125 34.625 
z
M 21.921875 38.8125 
Q 15.578125 40.375 12.03125 44.71875 
Q 8.5 49.078125 8.5 55.328125 
Q 8.5 64.0625 14.71875 69.140625 
Q 20.953125 74.21875 31.78125 74.21875 
Q 42.671875 74.21875 48.875 69.140625 
Q 55.078125 64.0625 55.078125 55.328125 
Q 55.078125 49.078125 51.53125 44.71875 
Q 48 40.375 41.703125 38.8125 
Q 48.828125 37.15625 52.796875 32.3125 
Q 56.78125 27.484375 56.78125 20.515625 
Q 56.78125 9.90625 50.3125 4.234375 
Q 43.84375 -1.421875 31.78125 -1.421875 
Q 19.734375 -1.421875 13.25 4.234375 
Q 6.78125 9.90625 6.78125 20.515625 
Q 6.78125 27.484375 10.78125 32.3125 
Q 14.796875 37.15625 21.921875 38.8125 
z
M 18.3125 54.390625 
Q 18.3125 48.734375 21.84375 45.5625 
Q 25.390625 42.390625 31.78125 42.390625 
Q 38.140625 42.390625 41.71875 45.5625 
Q 45.3125 48.734375 45.3125 54.390625 
Q 45.3125 60.0625 41.71875 63.234375 
Q 38.140625 66.40625 31.78125 66.40625 
Q 25.390625 66.40625 21.84375 63.234375 
Q 18.3125 60.0625 18.3125 54.390625 
z
" id="DejaVuSans-56"/>
      </defs>
      <g transform="translate(25.15 47.947916)scale(0.1 -0.1)">
       <use xlink:href="#DejaVuSans-56"/>
       <use x="63.623047" xlink:href="#DejaVuSans-48"/>
       <use x="127.246094" xlink:href="#DejaVuSans-48"/>
       <use x="190.869141" xlink:href="#DejaVuSans-48"/>
      </g>
     </g>
    </g>
   </g>
   <g id="line2d_15">
    <path clip-path="url(#pe4f4fc61c8)" d="M 73.832727 53.568 
L 74.231549 294.164481 
L 74.245542 293.390637 
L 74.40647 294.809103 
L 74.413467 294.80656 
L 75.169129 295.316723 
L 76.442558 295.454314 
L 80.150897 295.485647 
L 88.722056 295.409898 
L 88.743047 295.369352 
L 88.771034 295.486091 
L 88.813016 295.479248 
L 88.966947 295.487066 
L 89.736602 295.438747 
L 89.771586 295.259621 
L 89.813567 295.4868 
L 89.848552 295.418888 
L 89.974495 295.483494 
L 90.233379 295.487196 
L 90.702169 295.389152 
L 90.74415 295.065546 
L 90.772138 295.48325 
L 90.807122 295.402885 
L 90.919072 295.4868 
L 90.926069 295.479513 
L 91.059009 295.486892 
L 91.891636 295.457647 
L 91.940614 295.082765 
L 91.947611 294.955746 
L 91.982596 295.479299 
L 92.024577 295.471954 
L 92.12953 295.484134 
L 92.052564 295.402388 
L 92.143524 295.465487 
L 92.61931 295.487644 
L 93.186056 295.387623 
L 93.228038 294.897756 
L 93.256025 295.487146 
L 93.291009 295.368319 
L 93.395962 295.487605 
L 93.409956 295.465789 
L 93.577881 295.487427 
L 94.550445 295.437952 
L 94.599423 294.829443 
L 94.627411 295.482412 
L 94.662395 295.327252 
L 94.767348 295.487403 
L 94.781342 295.466611 
L 94.914282 295.486543 
L 95.355085 295.487747 
L 95.928828 295.390559 
L 95.963812 294.885638 
L 95.998796 295.484648 
L 96.033781 295.341738 
L 96.152727 295.487168 
L 96.299661 295.487376 
L 97.17427 295.421061 
L 97.216251 294.830377 
L 97.251235 295.485584 
L 97.286219 295.335157 
L 97.405166 295.486438 
L 97.538107 295.48406 
L 97.90894 295.487779 
L 98.405718 295.378034 
L 98.447699 294.977971 
L 98.482683 295.483686 
L 98.517668 295.374576 
L 98.643611 295.485769 
L 99.084414 295.487826 
L 99.441254 295.388532 
L 99.483235 295.064533 
L 99.518219 295.485095 
L 99.553204 295.369397 
L 99.721129 295.483229 
L 100.008 295.487688 
L 100.350846 295.393222 
L 100.392828 295.141884 
L 100.434809 295.48748 
L 100.462796 295.394191 
L 100.469793 295.385519 
L 100.497781 295.484983 
L 100.546759 295.46239 
L 100.686696 295.48325 
L 101.183473 295.468504 
L 101.239448 295.176464 
L 101.246445 295.047494 
L 101.288426 295.48726 
L 101.330408 295.401215 
L 101.456351 295.47981 
L 101.631273 295.486332 
L 102.177028 295.387084 
L 102.219009 295.087765 
L 102.253994 295.4842 
L 102.288978 295.375041 
L 102.498884 295.48455 
L 102.918696 295.48778 
L 103.079624 295.412519 
L 103.128602 295.127293 
L 103.163586 295.487512 
L 103.191574 295.371262 
L 103.366495 295.487467 
L 103.814295 295.487522 
L 103.954232 295.380977 
L 103.989216 295.15727 
L 104.031197 295.48579 
L 104.059185 295.404263 
L 104.066182 295.388105 
L 104.101166 295.487593 
L 104.150144 295.469316 
L 104.297078 295.484462 
L 104.737881 295.439822 
L 104.786859 295.205968 
L 104.835837 295.480887 
L 105.087724 295.485897 
L 105.514533 295.376202 
L 105.549517 295.22152 
L 105.598495 295.458586 
L 105.612489 295.450962 
L 105.717442 295.466309 
L 105.731436 295.480473 
L 105.920351 295.48721 
L 106.277191 295.412643 
L 106.326169 295.168195 
L 106.361154 295.479936 
L 106.389141 295.394345 
L 106.9279 295.487831 
L 107.130809 295.390888 
L 107.165793 295.180136 
L 107.228765 295.454386 
L 107.837492 295.487803 
L 107.984426 295.416623 
L 108.033404 295.090176 
L 108.068389 295.486587 
L 108.096376 295.355921 
L 108.236313 295.476559 
L 108.425229 295.486785 
L 108.936 295.412118 
L 108.984978 295.131492 
L 109.019962 295.480228 
L 109.04795 295.371302 
L 109.208878 295.487702 
L 109.866583 295.344155 
L 109.894571 295.175509 
L 109.950545 295.443717 
L 109.98553 295.399466 
L 110.104476 295.475568 
L 110.391348 295.487824 
L 110.741191 295.392274 
L 110.783172 295.141312 
L 110.825154 295.485583 
L 110.853141 295.390477 
L 111.608803 295.348502 
L 111.629793 295.210786 
L 111.678771 295.477958 
L 111.706759 295.415925 
L 112.070596 295.487373 
L 112.378458 295.403608 
L 112.413442 295.237455 
L 112.476414 295.456799 
L 113.246069 295.277081 
L 113.26706 294.980248 
L 113.309041 295.476188 
L 113.344025 295.379806 
L 113.462972 295.484825 
L 113.749843 295.487581 
L 114.379561 295.392116 
L 114.400552 295.256634 
L 114.435536 295.464263 
L 114.484514 295.433875 
L 114.498508 295.382399 
L 114.568476 295.480115 
L 114.58247 295.473492 
L 114.967298 295.476928 
L 115.016276 295.340533 
L 115.05126 295.118758 
L 115.086245 295.481078 
L 115.121229 295.400342 
L 115.247172 295.480597 
L 115.436088 295.486918 
L 115.98884 295.416279 
L 116.037818 295.14496 
L 116.072803 295.487657 
L 116.10079 295.373717 
L 116.254721 295.4859 
L 116.688527 295.487884 
L 116.898433 295.414357 
L 116.947411 295.181626 
L 116.982395 295.487707 
L 117.010382 295.389497 
L 117.199298 295.485375 
L 117.787034 295.255024 
L 117.794031 295.207637 
L 117.836013 295.486751 
L 117.870997 295.405482 
L 118.010934 295.477195 
L 118.507712 295.460713 
L 118.57768 295.255939 
L 118.668639 295.440771 
L 118.808577 295.481716 
L 119.277367 295.352355 
L 119.298357 295.254786 
L 119.347335 295.483522 
L 119.375323 295.429005 
L 119.697179 295.48789 
L 119.98405 295.402347 
L 120.019034 295.274462 
L 120.068013 295.472541 
L 120.082006 295.456932 
L 120.179962 295.472058 
L 120.193956 295.481763 
L 120.459837 295.487116 
L 120.592777 295.397917 
L 120.613768 295.326801 
L 120.662746 295.470239 
L 120.690734 295.444688 
L 120.900639 295.485227 
L 121.208502 295.408969 
L 121.243486 295.170748 
L 121.292464 295.468786 
L 121.320451 295.401375 
L 121.572339 295.487639 
L 122.1041 295.352974 
L 122.132088 295.166352 
L 122.174069 295.483815 
L 122.209053 295.388136 
L 122.348991 295.47837 
L 122.558897 295.487399 
L 122.999699 295.3962 
L 123.034683 295.163547 
L 123.083661 295.459117 
L 123.104652 295.413978 
L 123.188614 295.465125 
L 123.139636 295.467275 
L 123.195611 295.472412 
L 123.384527 295.485993 
L 123.930282 295.424993 
L 123.972263 295.089827 
L 124.014245 295.478454 
L 124.049229 295.393448 
L 124.168176 295.485999 
L 124.175172 295.483321 
L 124.350094 295.486894 
L 124.853868 295.374579 
L 124.874859 295.322947 
L 124.944828 295.477914 
L 125.077768 295.481327 
L 125.434608 295.347111 
L 125.455599 295.295126 
L 125.49758 295.484105 
L 125.525567 295.447729 
L 125.574545 295.48611 
L 125.63052 295.476614 
L 125.875411 295.487701 
L 126.141292 295.405029 
L 126.176276 295.184513 
L 126.218257 295.485013 
L 126.253241 295.393297 
L 126.393179 295.478978 
L 126.624075 295.48747 
L 127.12785 295.401348 
L 127.162834 294.963068 
L 127.197818 295.47113 
L 127.232803 295.376971 
L 127.358746 295.478407 
L 127.50568 295.485999 
L 128.240351 295.328204 
L 128.247348 295.297112 
L 128.282332 295.440473 
L 128.324313 295.443081 
L 128.44326 295.487892 
L 128.982019 295.472897 
L 129.121956 295.483693 
L 129.646721 295.487482 
L 129.723687 295.406946 
L 129.758671 294.945537 
L 129.793655 295.481017 
L 129.828639 295.367302 
L 129.926596 295.477939 
L 129.947586 295.461876 
L 130.087524 295.487427 
L 130.843185 295.406025 
L 130.913154 295.259115 
L 130.941141 295.451819 
L 131.081078 295.476254 
L 131.318972 295.48768 
L 131.619837 295.400069 
L 131.661818 295.248864 
L 131.696803 295.485354 
L 131.72479 295.418351 
L 132.466458 295.439027 
L 132.508439 295.254596 
L 132.55042 295.484324 
L 132.592401 295.423754 
L 132.767323 295.486321 
L 133.439022 295.366437 
L 133.467009 295.163847 
L 133.508991 295.453831 
L 133.536978 295.420067 
L 133.543975 295.409292 
L 133.578959 295.48416 
L 133.62094 295.478377 
L 133.767875 295.48731 
L 134.432577 295.352111 
L 134.453567 295.182538 
L 134.495549 295.486113 
L 134.530533 295.391853 
L 134.656476 295.482004 
L 134.873379 295.48769 
L 135.433129 295.413766 
L 135.566069 295.239031 
L 135.4961 295.477156 
L 135.573066 295.263752 
L 135.580063 295.243284 
L 135.60805 295.487425 
L 135.636038 295.398401 
L 135.796966 295.481769 
L 136.118821 295.487897 
L 136.629592 295.386278 
L 136.664577 295.263067 
L 136.706558 295.483175 
L 136.748539 295.337238 
L 136.755536 295.307022 
L 136.79052 295.48746 
L 136.825505 295.462515 
L 136.958445 295.487459 
L 137.266307 295.485815 
L 138.497755 295.486999 
L 138.66568 295.401387 
L 138.700665 295.32473 
L 138.742646 295.486488 
L 138.763636 295.464694 
L 138.882583 295.478506 
L 139.274408 295.483658 
L 139.351373 295.387739 
L 139.386357 295.293944 
L 139.428339 295.485633 
L 139.456326 295.424594 
L 139.540288 295.462935 
L 139.498307 295.480083 
L 139.554282 295.476898 
L 139.722207 295.486641 
L 140.163009 295.40249 
L 140.190997 295.226418 
L 140.260966 295.455255 
L 140.386909 295.485464 
L 140.87669 295.487903 
L 141.051611 295.387446 
L 141.079599 295.206126 
L 141.12158 295.483701 
L 141.156564 295.396513 
L 141.289505 295.484024 
L 141.562382 295.487907 
L 142.129129 295.400435 
L 142.17111 295.047929 
L 142.199097 295.472509 
L 142.234082 295.370323 
L 142.339034 295.475231 
L 142.353028 295.47162 
L 142.674884 295.487924 
L 143.374571 295.400245 
L 143.437542 295.13387 
L 143.458533 295.472295 
L 143.48652 295.340531 
L 143.57748 295.48768 
L 143.605467 295.471417 
L 143.738408 295.486261 
L 144.4241 295.458731 
L 144.564038 295.486036 
L 145.074809 295.487874 
L 145.22874 295.411041 
L 145.263724 295.265304 
L 145.305705 295.486873 
L 145.333693 295.431835 
L 145.417655 295.468563 
L 145.375674 295.487848 
L 145.431649 295.482241 
L 145.641555 295.486946 
L 146.180313 295.410222 
L 146.215298 294.956433 
L 146.250282 295.480945 
L 146.292263 295.40104 
L 146.404213 295.483592 
L 146.41121 295.477219 
L 146.586132 295.487795 
L 147.586683 295.418131 
L 147.621668 295.081047 
L 147.663649 295.475931 
L 147.698633 295.410642 
L 147.81758 295.483996 
L 148.034483 295.487202 
L 148.783147 295.412222 
L 148.811135 295.177192 
L 148.846119 295.467477 
L 148.881103 295.417039 
L 148.97906 295.487131 
L 149.00005 295.470659 
L 149.279925 295.487798 
L 149.573793 295.411113 
L 149.608777 295.188915 
L 149.643762 295.464011 
L 149.678746 295.410943 
L 149.82568 295.485488 
L 150.084564 295.487917 
L 150.637317 295.406475 
L 150.672301 295.165212 
L 150.707285 295.48412 
L 150.74227 295.400695 
L 150.87521 295.487926 
L 151.267034 295.487965 
L 151.749818 295.389555 
L 151.784803 295.191457 
L 151.819787 295.487864 
L 151.854771 295.412401 
L 151.980715 295.484134 
L 151.987712 295.480688 
L 152.260589 295.487958 
L 152.708389 295.389331 
L 152.743373 295.314662 
L 152.785354 295.48362 
L 152.813342 295.420428 
L 153.072226 295.487034 
L 155.157292 295.311824 
L 155.178282 294.834336 
L 155.20627 295.465733 
L 155.262245 295.397509 
L 155.360201 295.48239 
L 155.283235 295.338664 
L 155.374194 295.455519 
L 155.500138 295.487074 
L 155.808 295.487953 
L 156.528677 295.40064 
L 156.556665 295.245498 
L 156.598646 295.485337 
L 156.63363 295.428655 
L 156.759574 295.485083 
L 157.249354 295.487983 
L 157.788113 295.378216 
L 157.8161 295.240033 
L 157.865078 295.460197 
L 157.886069 295.432989 
L 157.893066 295.419868 
L 157.921053 295.48733 
L 157.984025 295.479695 
L 158.445818 295.487932 
L 158.669718 295.390905 
L 158.690708 295.294589 
L 158.739687 295.485714 
L 158.774671 295.433214 
L 159.348414 295.486846 
L 159.460364 295.377309 
L 159.488351 295.326116 
L 159.516339 295.457131 
L 159.614295 295.486767 
L 159.635285 295.471804 
L 160.13906 295.385203 
L 160.16005 295.342848 
L 160.209028 295.484468 
L 160.237016 295.453644 
L 160.859737 295.363833 
L 160.880727 295.318924 
L 160.922708 295.486526 
L 160.957693 295.438024 
L 161.118621 295.484625 
L 161.643386 295.427621 
L 161.685367 295.213833 
L 161.727348 295.48365 
L 161.762332 295.398038 
L 161.888276 295.486471 
L 162.105179 295.48704 
L 162.692915 295.375622 
L 162.706909 295.301553 
L 162.741893 295.470018 
L 162.776878 295.443937 
L 162.888828 295.487857 
L 162.895824 295.484886 
L 163.10573 295.487354 
L 163.308639 295.387178 
L 163.315636 295.366694 
L 163.371611 295.48724 
L 163.399599 295.461856 
L 163.539536 295.487338 
L 163.924364 295.412656 
L 163.959348 295.355343 
L 164.001329 295.487168 
L 164.02232 295.468815 
L 164.148263 295.483335 
L 164.519097 295.485075 
L 164.610056 295.386897 
L 164.631047 295.315405 
L 164.680025 295.487941 
L 164.708013 295.440752 
L 165.330734 295.48286 
L 165.393705 295.392739 
L 165.42869 295.280043 
L 165.463674 295.485568 
L 165.498658 295.431006 
L 165.67358 295.484693 
L 166.205342 295.381584 
L 166.212339 295.359753 
L 166.25432 295.484223 
L 166.296301 295.458002 
L 166.436238 295.486898 
L 168.542295 295.364026 
L 168.549292 295.338828 
L 168.612263 295.480015 
L 168.640251 295.410417 
L 168.836163 295.477442 
L 170.067611 295.317977 
L 170.074608 295.300155 
L 170.116589 295.487456 
L 170.403461 295.483449 
L 171.012188 295.461596 
L 171.131135 295.321912 
L 171.152125 295.415923 
L 171.327047 295.484579 
L 171.550947 295.48756 
L 172.152677 295.381153 
L 172.187661 295.132628 
L 172.215649 295.485158 
L 172.25763 295.346042 
L 172.278621 295.484494 
L 172.362583 295.292979 
L 172.586483 295.484912 
L 172.810382 295.487656 
L 173.629016 295.403537 
L 173.650006 295.31017 
L 173.691987 295.485188 
L 173.726972 295.470702 
L 173.852915 295.485405 
L 174.26573 295.487977 
L 174.909442 295.3987 
L 174.937429 295.203446 
L 174.979411 295.484588 
L 175.014395 295.432564 
L 175.119348 295.487892 
L 175.133342 295.478097 
L 175.497179 295.487922 
L 175.805041 295.399011 
L 175.833028 294.977078 
L 175.854019 295.45243 
L 175.909994 295.384414 
L 176.021944 295.486665 
L 176.02894 295.47776 
L 176.182871 295.487765 
L 177.127448 295.473037 
L 177.260389 295.487898 
L 178.030044 295.321481 
L 178.037041 295.265586 
L 178.079022 295.477109 
L 178.128 295.431307 
L 178.232953 295.484677 
L 178.246947 295.478162 
L 179.163536 295.486448 
L 179.653317 295.446089 
L 179.695298 295.321502 
L 179.77926 295.445393 
L 179.954182 295.487878 
L 180.569906 295.376833 
L 180.597893 295.210551 
L 180.632878 295.485496 
L 180.667862 295.416628 
L 180.821793 295.48518 
L 181.136652 295.481962 
L 181.647423 295.48797 
L 181.843335 295.413152 
L 181.87832 295.274097 
L 181.913304 295.485606 
L 181.948288 295.441216 
L 182.088226 295.487344 
L 182.529028 295.487992 
L 182.92785 295.400346 
L 182.955837 295.241263 
L 182.997818 295.486774 
L 183.032803 295.425161 
L 183.151749 295.486545 
L 183.158746 295.484862 
L 183.403636 295.487731 
L 184.844991 295.399503 
L 184.872978 295.309864 
L 184.914959 295.48424 
L 184.942947 295.447606 
L 184.977931 295.48035 
L 185.0479 295.486002 
L 185.586658 295.487573 
L 185.705605 295.390923 
L 185.733592 295.289869 
L 185.775574 295.487882 
L 185.810558 295.411278 
L 185.971486 295.487424 
L 186.853091 295.4778 
L 187.007022 295.485837 
L 187.510796 295.367984 
L 187.517793 295.338345 
L 187.566771 295.486298 
L 187.601755 295.447006 
L 187.923611 295.487469 
L 188.308439 295.41215 
L 188.343423 295.307465 
L 188.378408 295.48543 
L 188.413392 295.438425 
L 188.833204 295.487962 
L 189.183047 295.404869 
L 189.218031 295.312309 
L 189.253016 295.483199 
L 189.294997 295.394299 
L 189.448928 295.484962 
L 189.819762 295.487955 
L 190.204589 295.391301 
L 190.267561 295.342407 
L 190.246571 295.432914 
L 190.309542 295.429818 
L 190.44948 295.483442 
L 190.69437 295.471466 
L 190.848301 295.35101 
L 190.862295 295.444678 
L 190.876288 295.482043 
L 190.91827 295.230238 
L 190.925266 294.996339 
L 191.002232 295.485993 
L 191.023223 295.405378 
L 191.135172 295.486917 
L 191.142169 295.473918 
L 192.051762 295.487993 
L 192.261668 295.385268 
L 192.282658 295.342482 
L 192.310646 295.487662 
L 192.359624 295.471109 
L 192.485567 295.484619 
L 192.905379 295.487986 
L 193.570082 295.406929 
L 193.605066 295.174709 
L 193.633053 295.486521 
L 193.675034 295.455776 
L 193.779987 295.487738 
L 193.703022 295.437568 
L 193.793981 295.47681 
L 194.080853 295.487971 
L 194.983448 295.40429 
L 195.011436 295.132168 
L 195.04642 295.483507 
L 195.081404 295.402119 
L 195.186357 295.482251 
L 195.200351 295.476347 
L 195.781091 295.487994 
L 196.501768 295.404431 
L 196.536752 295.146878 
L 196.571737 295.447312 
L 196.606721 295.407321 
L 196.711674 295.485022 
L 196.725668 295.469871 
L 197.481329 295.487995 
L 197.929129 295.397486 
L 197.978107 295.482886 
L 198.048075 295.35784 
L 198.055072 295.354044 
L 198.069066 295.437253 
L 198.160025 295.486935 
L 198.188013 295.48028 
L 198.607824 295.487937 
L 202.239197 295.391443 
L 202.295172 295.485026 
L 202.365141 295.363878 
L 202.56805 295.481004 
L 202.847925 295.4877 
L 204.072376 295.401217 
L 204.100364 295.195186 
L 204.149342 295.482795 
L 204.205317 295.253022 
L 204.324263 295.487379 
L 204.485191 295.487087 
L 205.933542 295.329585 
L 205.96153 295.112513 
L 205.989517 295.483916 
L 206.024502 295.365444 
L 206.087473 295.485124 
L 206.059486 295.348463 
L 206.143448 295.464593 
L 206.262395 295.484505 
L 206.745179 295.48799 
L 207.598796 295.39996 
L 207.661768 294.794605 
L 207.689755 295.482601 
L 207.731737 295.232506 
L 207.829693 295.481056 
L 207.850683 295.4663 
L 207.962633 295.484343 
L 207.871674 295.458424 
L 207.96963 295.4818 
L 208.270495 295.487911 
L 209.851787 295.382238 
L 209.879774 295.252956 
L 209.907762 295.483332 
L 209.942746 295.452677 
L 210.040702 295.487529 
L 210.061693 295.477281 
L 210.257605 295.487821 
L 211.503047 295.353585 
L 211.531034 295.137851 
L 211.559022 295.487708 
L 211.594006 295.41991 
L 211.698959 295.486435 
L 211.705956 295.479165 
L 211.845893 295.486085 
L 213.01437 295.371791 
L 213.028364 295.259049 
L 213.091335 295.464583 
L 213.112326 295.443199 
L 213.23827 295.486628 
L 213.539135 295.487887 
L 214.056903 295.379012 
L 214.077893 295.29044 
L 214.112878 295.484958 
L 214.154859 295.450663 
L 214.280803 295.487605 
L 215.183398 295.297738 
L 215.190395 295.213435 
L 215.232376 295.484167 
L 215.274357 295.474973 
L 215.302345 295.438778 
L 215.400301 295.476618 
L 215.701166 295.487938 
L 216.498809 295.377442 
L 216.526796 295.197902 
L 216.561781 295.47906 
L 216.596765 295.441216 
L 216.708715 295.48329 
L 216.715712 295.480527 
L 217.114533 295.487978 
L 217.72326 295.380724 
L 217.737254 295.313506 
L 217.772238 295.479895 
L 217.814219 295.460816 
L 217.919172 295.487342 
L 217.933166 295.480305 
L 218.716815 295.487963 
L 218.947712 295.392042 
L 218.968702 295.354837 
L 219.010683 295.48621 
L 219.045668 295.450403 
L 219.199599 295.486617 
L 219.773342 295.452545 
L 219.815323 295.3207 
L 219.899285 295.453123 
L 220.032226 295.487206 
L 220.815875 295.454037 
L 220.857856 295.24521 
L 220.934821 295.457375 
L 221.060765 295.486799 
L 222.768 295.48576 
L 224.17437 295.452847 
L 224.335298 295.281699 
L 224.41926 293.270926 
L 224.391273 295.442391 
L 224.468238 294.04961 
L 224.53121 295.482633 
L 224.580188 295.297912 
L 224.636163 295.484522 
L 224.699135 295.474443 
L 224.811085 295.480125 
L 224.965016 295.487556 
L 229.317066 295.463375 
L 229.366044 295.246249 
L 229.422019 295.45599 
L 229.450006 295.43743 
L 229.540966 295.487919 
L 229.841831 295.487924 
L 231.479097 295.406165 
L 231.507085 295.100939 
L 231.535072 295.481736 
L 231.591047 295.393688 
L 231.716991 295.486547 
L 231.877918 295.487247 
L 233.074382 295.487998 
L 233.585154 295.403089 
L 233.613141 295.18503 
L 233.641129 295.481733 
L 233.68311 295.473514 
L 233.711097 295.431073 
L 233.809053 295.487917 
L 234.032953 295.487622 
L 235.390345 295.440466 
L 235.425329 295.143391 
L 235.460313 295.481335 
L 235.495298 295.463596 
L 235.586257 295.487395 
L 235.523285 295.417005 
L 235.614245 295.479116 
L 235.768176 295.486235 
L 237.055599 295.456889 
L 237.104577 295.185194 
L 237.132564 295.485082 
L 237.167549 295.425033 
L 237.272502 295.487012 
L 237.202533 295.419825 
L 237.279498 295.480475 
L 237.419436 295.486177 
L 238.650884 295.295743 
L 238.671875 295.177775 
L 238.741843 295.483127 
L 238.74884 295.476354 
L 238.769831 295.419342 
L 238.86079 295.474332 
L 239.021718 295.487131 
L 240.407097 295.400478 
L 240.442082 295.132855 
L 240.470069 295.485625 
L 240.51205 295.445478 
L 240.610006 295.48284 
L 240.540038 295.40004 
L 240.624 295.462791 
L 240.791925 295.487305 
L 241.946408 295.4436 
L 241.967398 295.342971 
L 242.016376 295.470501 
L 242.058357 295.445786 
L 242.184301 295.486246 
L 242.534144 295.487977 
L 246.473379 295.389229 
L 246.501367 295.324793 
L 246.529354 295.484263 
L 246.564339 295.458675 
L 246.676288 295.486318 
L 246.683285 295.482616 
L 247.138082 295.487987 
L 247.837768 295.39834 
L 247.858759 295.320135 
L 247.893743 295.482798 
L 247.935724 295.45878 
L 248.075661 295.486615 
L 249.349091 295.481781 
L 250.062771 295.441101 
L 250.174721 295.472605 
L 250.398621 295.336376 
L 250.405618 295.303465 
L 250.433605 295.482499 
L 250.48958 295.422101 
L 250.643511 295.484354 
L 251.105304 295.487989 
L 251.490132 295.390636 
L 251.497129 295.365868 
L 251.53911 295.482392 
L 251.581091 295.454466 
L 251.735022 295.487092 
L 252.637618 295.47334 
L 252.679599 295.185381 
L 252.714583 294.0875 
L 252.735574 295.405183 
L 252.784552 295.238745 
L 252.931486 295.476423 
L 253.050433 295.476038 
L 253.183373 295.487775 
L 253.54721 295.487986 
L 255.828188 295.405759 
L 255.849179 295.244041 
L 255.884163 295.480637 
L 255.933141 295.457926 
L 256.017103 295.473133 
L 255.961129 295.487924 
L 256.038094 295.487509 
L 256.241003 295.487484 
L 257.76632 295.42102 
L 257.794307 295.180794 
L 257.829292 295.482074 
L 257.864276 295.460279 
L 257.892263 295.421405 
L 257.983223 295.480931 
L 258.151147 295.487589 
L 259.536527 295.418887 
L 259.571511 295.135614 
L 259.599498 295.479638 
L 259.634483 295.464691 
L 259.655473 295.423091 
L 259.753429 295.486569 
L 260.068288 295.48795 
L 260.802959 295.381754 
L 260.809956 295.361192 
L 260.84494 295.487917 
L 260.886922 295.47017 
L 261.019862 295.485639 
L 261.642583 295.487992 
L 261.950445 295.398198 
L 261.971436 295.327835 
L 262.00642 295.481189 
L 262.048401 295.464487 
L 262.188339 295.484553 
L 262.860038 295.487993 
L 263.090934 295.390567 
L 263.111925 295.299246 
L 263.181893 295.480579 
L 263.18889 295.468932 
L 263.286846 295.478624 
L 263.223875 295.483321 
L 263.30084 295.487315 
L 264.147461 295.413303 
L 264.175448 295.351829 
L 264.203436 295.487949 
L 264.245417 295.467666 
L 264.420339 295.486081 
L 265.742746 295.487817 
L 268.072702 295.412207 
L 268.093693 295.332919 
L 268.135674 295.486355 
L 268.170658 295.450904 
L 268.296602 295.487617 
L 269.723962 295.487946 
L 270.269718 295.386281 
L 270.290708 295.331935 
L 270.339687 295.480017 
L 270.367674 295.422295 
L 270.493618 295.486564 
L 270.857455 295.487985 
L 271.445191 295.384521 
L 271.452188 295.366978 
L 271.487172 295.484689 
L 271.529154 295.458799 
L 271.669091 295.487559 
L 272.431749 295.394695 
L 272.45274 295.325045 
L 272.487724 295.487725 
L 272.529705 295.45321 
L 272.662646 295.486465 
L 272.977505 295.487973 
L 273.572238 295.403003 
L 273.593229 295.345221 
L 273.63521 295.485825 
L 273.677191 295.430766 
L 273.782144 295.345067 
L 273.726169 295.485891 
L 273.789141 295.391578 
L 273.838119 295.486317 
L 273.887097 295.348384 
L 273.964063 295.296358 
L 273.929078 295.479162 
L 273.978056 295.372145 
L 274.076013 295.485709 
L 274.097003 295.477591 
L 274.243937 295.485685 
L 275.370433 295.487996 
L 276.811787 295.403236 
L 276.832777 295.366039 
L 276.860765 295.48535 
L 276.902746 295.462016 
L 277.035687 295.487077 
L 277.511473 295.487991 
L 277.861317 295.380379 
L 277.903298 295.485784 
L 277.980263 295.361988 
L 278.134194 295.487243 
L 278.141191 295.478907 
L 278.288125 295.486611 
L 279.14874 295.482598 
L 279.414621 295.486304 
L 279.848426 295.418764 
L 279.855423 295.405234 
L 279.904401 295.487622 
L 279.946382 295.466701 
L 280.135298 295.487758 
L 282.780113 295.48491 
L 283.304878 295.48796 
L 284.949141 295.394043 
L 284.956138 295.368067 
L 285.005116 295.487311 
L 285.0401 295.451069 
L 285.208025 295.487732 
L 285.690809 295.487959 
L 286.222571 295.379066 
L 286.257555 295.413598 
L 286.299536 294.701263 
L 286.31353 293.408003 
L 286.355511 295.422815 
L 286.404489 294.915673 
L 286.411486 294.916817 
L 286.42548 294.823285 
L 286.530433 295.485552 
L 286.537429 295.334742 
L 286.635386 295.47541 
L 286.943248 295.487702 
L 290.749542 295.487995 
L 292.939561 295.38598 
L 292.946558 295.360189 
L 292.981542 295.487753 
L 293.023524 295.476779 
L 293.156464 295.483327 
L 293.541292 295.487988 
L 294.289956 295.385553 
L 294.317944 295.304881 
L 294.345931 295.483643 
L 294.380915 295.453644 
L 294.492865 295.484921 
L 294.499862 295.482425 
L 295.101592 295.487995 
L 295.661342 295.386862 
L 295.689329 295.299775 
L 295.717317 295.487645 
L 295.752301 295.444917 
L 295.864251 295.486797 
L 295.871248 295.48413 
L 296.144125 295.487801 
L 297.067712 295.420909 
L 297.102696 295.196257 
L 297.123687 295.480424 
L 297.165668 295.475212 
L 297.186658 295.426797 
L 297.298608 295.485522 
L 297.466533 295.487261 
L 300.209304 295.487904 
L 300.300263 295.42056 
L 300.335248 295.249472 
L 300.356238 295.478606 
L 300.398219 295.467981 
L 300.426207 295.439448 
L 300.517166 295.477733 
L 300.699085 295.487716 
L 301.902545 295.436065 
L 301.93753 295.212706 
L 301.965517 295.486967 
L 302.000502 295.440143 
L 302.098458 295.487186 
L 302.112451 295.474048 
L 303.567799 295.396395 
L 303.58879 295.197019 
L 303.623774 295.477837 
L 303.665755 295.479484 
L 303.770708 295.475125 
L 303.784702 295.484419 
L 305.338006 295.318792 
L 305.345003 295.242117 
L 305.414972 295.475427 
L 305.435962 295.432154 
L 305.554909 295.487244 
L 305.778809 295.487676 
L 306.744376 295.393488 
L 306.75837 295.341722 
L 306.800351 295.469099 
L 306.835335 295.447829 
L 306.98227 295.485693 
L 307.737931 295.487943 
L 307.870871 295.396913 
L 307.898859 295.310558 
L 307.926846 295.484759 
L 307.975824 295.432602 
L 308.094771 295.48789 
L 308.332665 295.487878 
L 309.319223 295.413986 
L 309.340213 295.348621 
L 309.382194 295.46863 
L 309.417179 295.449275 
L 309.564113 295.483963 
L 310.228815 295.487846 
L 313.741241 295.383498 
L 313.853191 293.764021 
L 313.81121 295.439786 
L 313.867185 294.460794 
L 313.972138 295.471181 
L 313.986132 295.443959 
L 313.993129 295.336765 
L 314.063097 295.484651 
L 314.091085 295.469821 
L 314.252013 295.484498 
L 314.622846 295.487948 
L 320.199348 295.392066 
L 320.220339 295.272123 
L 320.241329 295.484334 
L 320.304301 295.447989 
L 320.416251 295.48796 
L 320.423248 295.48557 
L 320.647147 295.487972 
L 322.501317 295.395715 
L 322.522307 295.281344 
L 322.550295 295.486161 
L 322.60627 295.444308 
L 322.830169 295.486847 
L 324.397467 295.318128 
L 324.411461 295.266131 
L 324.439448 295.48282 
L 324.467436 295.441541 
L 324.586382 295.48387 
L 324.810282 295.487882 
L 326.314608 295.425671 
L 326.335599 295.335171 
L 326.370583 295.484142 
L 326.412564 295.460903 
L 326.524514 295.486468 
L 326.531511 295.483322 
L 326.881354 295.487953 
L 327.78395 295.383759 
L 327.80494 295.309521 
L 327.832928 295.486297 
L 327.881906 295.484386 
L 328.000853 295.482207 
L 328.00785 295.48626 
L 328.525618 295.487996 
L 329.19032 295.399089 
L 329.197317 295.365786 
L 329.232301 295.485061 
L 329.281279 295.487276 
L 329.498182 295.487978 
L 331.576251 295.487991 
L 332.317918 295.409262 
L 332.338909 295.311147 
L 332.408878 295.479531 
L 332.422871 295.45037 
L 332.541818 295.47689 
L 332.702746 295.487897 
L 334.458959 295.487487 
L 335.690408 295.435447 
L 335.725392 295.25967 
L 335.788364 295.474202 
L 335.809354 295.383314 
L 335.921304 295.478129 
L 336.068238 295.485463 
L 337.831448 295.463714 
L 337.929404 295.420938 
L 337.957392 295.455219 
L 339.027912 295.386601 
L 339.041906 295.351395 
L 339.07689 295.487666 
L 339.104878 295.441079 
L 339.223824 295.48755 
L 339.230821 295.484995 
L 339.538683 295.487929 
L 340.280351 295.403314 
L 340.301342 295.340516 
L 340.37131 295.487571 
L 340.378307 295.480936 
L 340.476263 295.479305 
L 340.490257 295.486719 
L 340.980038 295.455187 
L 341.30889 295.487254 
L 344.604414 295.382097 
L 344.709367 295.245917 
L 344.632401 295.435235 
L 344.716364 295.365267 
L 344.856301 295.485072 
L 344.758345 295.270399 
L 344.863298 295.463918 
L 348.872502 295.443677 
L 348.900489 295.368982 
L 348.956464 295.487354 
L 348.977455 295.449631 
L 349.117392 295.484269 
L 350.145931 295.487991 
L 351.769204 295.393739 
L 351.776201 295.366339 
L 351.811185 295.484609 
L 351.860163 295.480121 
L 352.084063 295.48798 
L 355.330608 295.487968 
L 357.324715 295.408148 
L 357.366696 294.70641 
L 357.422671 291.850576 
L 357.394683 295.246644 
L 357.471649 294.069351 
L 357.590596 295.453911 
L 357.597592 295.311754 
L 357.695549 295.482908 
L 357.702545 295.44728 
L 357.709542 295.485985 
L 357.807498 295.479761 
L 357.961429 295.487594 
L 364.587461 295.487993 
L 368.547687 295.390103 
L 368.56168 295.353859 
L 368.582671 295.48122 
L 368.638646 295.464164 
L 368.764589 295.486688 
L 369.548238 295.481721 
L 369.800125 295.483365 
L 371.01758 295.398602 
L 371.038571 295.322202 
L 371.066558 295.482755 
L 371.115536 295.470991 
L 371.423398 295.487737 
L 374.893843 295.412353 
L 374.914834 295.382984 
L 374.949818 295.47889 
L 374.991799 295.471855 
L 375.12474 295.484313 
L 375.936376 295.456365 
L 376.06232 295.468256 
L 376.559097 295.487899 
L 382.352502 295.36744 
L 382.359498 295.357307 
L 382.387486 295.487839 
L 382.42247 295.453033 
L 382.548414 295.485109 
L 382.912251 295.48799 
L 386.263749 295.386645 
L 386.270746 295.373447 
L 386.298734 295.483789 
L 386.340715 295.462194 
L 386.473655 295.486437 
L 386.935448 295.487996 
L 387.411235 295.404606 
L 387.432226 295.370697 
L 387.460213 295.483394 
L 387.509191 295.470541 
L 387.635135 295.486582 
L 388.04795 295.487992 
L 391.917216 295.387688 
L 391.924213 295.351962 
L 392.008176 295.485142 
L 392.239072 295.487172 
L 394.583022 295.397728 
L 394.597016 295.355695 
L 394.632 295.487774 
L 394.666984 295.44708 
L 394.799925 295.483734 
L 396.947962 295.331289 
L 396.961956 295.292115 
L 397.031925 295.448583 
L 397.038922 295.429179 
L 397.570683 295.487967 
L 398.487273 295.487999 
L 398.487273 295.487999 
" style="fill:none;stroke:#1f77b4;stroke-linecap:square;stroke-width:1.5;"/>
   </g>
   <g id="patch_3">
    <path d="M 57.6 307.584 
L 57.6 41.472 
" style="fill:none;stroke:#000000;stroke-linecap:square;stroke-linejoin:miter;stroke-width:0.8;"/>
   </g>
   <g id="patch_4">
    <path d="M 414.72 307.584 
L 414.72 41.472 
" style="fill:none;stroke:#000000;stroke-linecap:square;stroke-linejoin:miter;stroke-width:0.8;"/>
   </g>
   <g id="patch_5">
    <path d="M 57.6 307.584 
L 414.72 307.584 
" style="fill:none;stroke:#000000;stroke-linecap:square;stroke-linejoin:miter;stroke-width:0.8;"/>
   </g>
   <g id="patch_6">
    <path d="M 57.6 41.472 
L 414.72 41.472 
" style="fill:none;stroke:#000000;stroke-linecap:square;stroke-linejoin:miter;stroke-width:0.8;"/>
   </g>
  </g>
 </g>
 <defs>
  <clipPath id="pe4f4fc61c8">
   <rect height="266.112" width="357.12" x="57.6" y="41.472"/>
  </clipPath>
 </defs>
</svg>
